<mxfile host="app.diagrams.net" modified="2024-05-12T09:18:29.521Z" agent="Mozilla/5.0 (X11; Ubuntu; Linux x86_64; rv:124.0) Gecko/20100101 Firefox/124.0" etag="Ptlibu3_XmfgLmMQ_YW1" version="24.4.0" type="device">
  <diagram name="Page-1" id="2YBvvXClWsGukQMizWep">
    <mxGraphModel dx="718" dy="482" grid="1" gridSize="10" guides="1" tooltips="1" connect="1" arrows="1" fold="1" page="1" pageScale="1" pageWidth="850" pageHeight="1100" math="0" shadow="0">
      <root>
        <mxCell id="0" />
        <mxCell id="1" parent="0" />
        <mxCell id="Pc8auaTFQ1UGQjP6-LpM-51" value="" style="shape=image;verticalLabelPosition=bottom;labelBackgroundColor=default;verticalAlign=top;aspect=fixed;imageAspect=0;image=data:image/png,iVBORw0KGgoAAAANSUhEUgAAALQAAADwCAYAAACpBE5IAAAAw3pUWHRSYXcgcHJvZmlsZSB0eXBlIGV4aWYAAHjabVBbDgMhCPz3FD0CL108jtt1k96gxy8K29S2kzjgYEYg9efjTLcBQkmSNy21FDBIlUrNEgVHm4wgkyd2iRquejpDBzKJLbJftcT7S8e3gYdmWf4w0nsU9rVQ42fSLyPywKOjkR9hVMOIyQsYBs3HglJ1W0brsEL9pEGia9s/9822d2T7h4k6I4Mxs3oDPI4kbpZkY7RHNgPrVKoxMYaZLeTfni6kF3HFWXimkvAIAAABhGlDQ1BJQ0MgcHJvZmlsZQAAeJx9kT1Iw0AcxV9ba1UiDnYQcchQnSyIijhqFYpQIdQKrTqYXPohNGlIUlwcBdeCgx+LVQcXZ10dXAVB8APE2cFJ0UVK/F9SaBHjwXE/3t173L0DgvUy06yOMUDTbTOdTIjZ3IoYeUUYAjrRDUFmljErSSn4jq97BPh6F+dZ/uf+HL1q3mJAQCSeYYZpE68TT23aBud94igrySrxOfGoSRckfuS64vEb56LLQZ4ZNTPpOeIosVhsY6WNWcnUiCeJY6qmU34w67HKeYuzVq6y5j35C4W8vrzEdZpDSGIBi5AgQkEVGyjDRpxWnRQLadpP+PgHXb9ELoVcG2DkmEcFGmTXD/4Hv7u1ChPjXpKQAMIvjvMxDER2gUbNcb6PHadxAoSegSu95a/UgelP0mstLXYE9G0DF9ctTdkDLneAgSdDNmVXCtEMFgrA+xl9Uw7ovwV6Vr3emvs4fQAy1FXqBjg4BEaKlL3m8+6u9t7+PdPs7wfiQnJtiprQVQAADXhpVFh0WE1MOmNvbS5hZG9iZS54bXAAAAAAADw/eHBhY2tldCBiZWdpbj0i77u/IiBpZD0iVzVNME1wQ2VoaUh6cmVTek5UY3prYzlkIj8+Cjx4OnhtcG1ldGEgeG1sbnM6eD0iYWRvYmU6bnM6bWV0YS8iIHg6eG1wdGs9IlhNUCBDb3JlIDQuNC4wLUV4aXYyIj4KIDxyZGY6UkRGIHhtbG5zOnJkZj0iaHR0cDovL3d3dy53My5vcmcvMTk5OS8wMi8yMi1yZGYtc3ludGF4LW5zIyI+CiAgPHJkZjpEZXNjcmlwdGlvbiByZGY6YWJvdXQ9IiIKICAgIHhtbG5zOnhtcE1NPSJodHRwOi8vbnMuYWRvYmUuY29tL3hhcC8xLjAvbW0vIgogICAgeG1sbnM6c3RFdnQ9Imh0dHA6Ly9ucy5hZG9iZS5jb20veGFwLzEuMC9zVHlwZS9SZXNvdXJjZUV2ZW50IyIKICAgIHhtbG5zOmRjPSJodHRwOi8vcHVybC5vcmcvZGMvZWxlbWVudHMvMS4xLyIKICAgIHhtbG5zOkdJTVA9Imh0dHA6Ly93d3cuZ2ltcC5vcmcveG1wLyIKICAgIHhtbG5zOnRpZmY9Imh0dHA6Ly9ucy5hZG9iZS5jb20vdGlmZi8xLjAvIgogICAgeG1sbnM6eG1wPSJodHRwOi8vbnMuYWRvYmUuY29tL3hhcC8xLjAvIgogICB4bXBNTTpEb2N1bWVudElEPSJnaW1wOmRvY2lkOmdpbXA6ZDM3YzQyNzMtMDczYS00NGJkLTk2ZGUtYzE0OWZlZjA2MWRlIgogICB4bXBNTTpJbnN0YW5jZUlEPSJ4bXAuaWlkOmYwZDk2NWQxLWM0M2QtNDY1MS05ZGNiLTEzODlmZjFiNGU2ZCIKICAgeG1wTU06T3JpZ2luYWxEb2N1bWVudElEPSJ4bXAuZGlkOjIzYzM2ZjE0LTkyZjctNDQyZi05ZDAyLTIwODc3MzMyODk3NiIKICAgZGM6Rm9ybWF0PSJpbWFnZS9wbmciCiAgIEdJTVA6QVBJPSIyLjAiCiAgIEdJTVA6UGxhdGZvcm09IkxpbnV4IgogICBHSU1QOlRpbWVTdGFtcD0iMTcxNTQ5NDE2MzI1MTYxMiIKICAgR0lNUDpWZXJzaW9uPSIyLjEwLjM4IgogICB0aWZmOk9yaWVudGF0aW9uPSIxIgogICB4bXA6Q3JlYXRvclRvb2w9IkdJTVAgMi4xMCIKICAgeG1wOk1ldGFkYXRhRGF0ZT0iMjAyNDowNToxMlQwODowOToyMSswMjowMCIKICAgeG1wOk1vZGlmeURhdGU9IjIwMjQ6MDU6MTJUMDg6MDk6MjErMDI6MDAiPgogICA8eG1wTU06SGlzdG9yeT4KICAgIDxyZGY6U2VxPgogICAgIDxyZGY6bGkKICAgICAgc3RFdnQ6YWN0aW9uPSJzYXZlZCIKICAgICAgc3RFdnQ6Y2hhbmdlZD0iLyIKICAgICAgc3RFdnQ6aW5zdGFuY2VJRD0ieG1wLmlpZDoxY2JhNTExYi1hZjRlLTQ0Y2YtOTkyZS1hYjIwODc5NzU5MmUiCiAgICAgIHN0RXZ0OnNvZnR3YXJlQWdlbnQ9IkdpbXAgMi4xMCAoTGludXgpIgogICAgICBzdEV2dDp3aGVuPSIyMDI0LTA1LTEyVDA4OjA5OjIzKzAyOjAwIi8+CiAgICA8L3JkZjpTZXE+CiAgIDwveG1wTU06SGlzdG9yeT4KICA8L3JkZjpEZXNjcmlwdGlvbj4KIDwvcmRmOlJERj4KPC94OnhtcG1ldGE+CiAgICAgICAgICAgICAgICAgICAgICAgICAgICAgICAgICAgICAgICAgICAgICAgICAgICAgICAgICAgICAgICAgICAgICAgICAgICAgICAgICAgICAgICAgICAgICAgICAgICAKICAgICAgICAgICAgICAgICAgICAgICAgICAgICAgICAgICAgICAgICAgICAgICAgICAgICAgICAgICAgICAgICAgICAgICAgICAgICAgICAgICAgICAgICAgICAgICAgICAgIAogICAgICAgICAgICAgICAgICAgICAgICAgICAgICAgICAgICAgICAgICAgICAgICAgICAgICAgICAgICAgICAgICAgICAgICAgICAgICAgICAgICAgICAgICAgICAgICAgICAgCiAgICAgICAgICAgICAgICAgICAgICAgICAgICAgICAgICAgICAgICAgICAgICAgICAgICAgICAgICAgICAgICAgICAgICAgICAgICAgICAgICAgICAgICAgICAgICAgICAgICAKICAgICAgICAgICAgICAgICAgICAgICAgICAgICAgICAgICAgICAgICAgICAgICAgICAgICAgICAgICAgICAgICAgICAgICAgICAgICAgICAgICAgICAgICAgICAgICAgICAgIAogICAgICAgICAgICAgICAgICAgICAgICAgICAgICAgICAgICAgICAgICAgICAgICAgICAgICAgICAgICAgICAgICAgICAgICAgICAgICAgICAgICAgICAgICAgICAgICAgICAgCiAgICAgICAgICAgICAgICAgICAgICAgICAgICAgICAgICAgICAgICAgICAgICAgICAgICAgICAgICAgICAgICAgICAgICAgICAgICAgICAgICAgICAgICAgICAgICAgICAgICAKICAgICAgICAgICAgICAgICAgICAgICAgICAgICAgICAgICAgICAgICAgICAgICAgICAgICAgICAgICAgICAgICAgICAgICAgICAgICAgICAgICAgICAgICAgICAgICAgICAgIAogICAgICAgICAgICAgICAgICAgICAgICAgICAgICAgICAgICAgICAgICAgICAgICAgICAgICAgICAgICAgICAgICAgICAgICAgICAgICAgICAgICAgICAgICAgICAgICAgICAgCiAgICAgICAgICAgICAgICAgICAgICAgICAgICAgICAgICAgICAgICAgICAgICAgICAgICAgICAgICAgICAgICAgICAgICAgICAgICAgICAgICAgICAgICAgICAgICAgICAgICAKICAgICAgICAgICAgICAgICAgICAgICAgICAgICAgICAgICAgICAgICAgICAgICAgICAgICAgICAgICAgICAgICAgICAgICAgICAgICAgICAgICAgICAgICAgICAgICAgICAgIAogICAgICAgICAgICAgICAgICAgICAgICAgICAgICAgICAgICAgICAgICAgICAgICAgICAgICAgICAgICAgICAgICAgICAgICAgICAgICAgICAgICAgICAgICAgICAgICAgICAgCiAgICAgICAgICAgICAgICAgICAgICAgICAgICAgICAgICAgICAgICAgICAgICAgICAgICAgICAgICAgICAgICAgICAgICAgICAgICAgICAgICAgICAgICAgICAgICAgICAgICAKICAgICAgICAgICAgICAgICAgICAgICAgICAgICAgICAgICAgICAgICAgICAgICAgICAgICAgICAgICAgICAgICAgICAgICAgICAgICAgICAgICAgICAgICAgICAgICAgICAgIAogICAgICAgICAgICAgICAgICAgICAgICAgICAgICAgICAgICAgICAgICAgICAgICAgICAgICAgICAgICAgICAgICAgICAgICAgICAgICAgICAgICAgICAgICAgICAgICAgICAgCiAgICAgICAgICAgICAgICAgICAgICAgICAgICAgICAgICAgICAgICAgICAgICAgICAgICAgICAgICAgICAgICAgICAgICAgICAgICAgICAgICAgICAgICAgICAgICAgICAgICAKICAgICAgICAgICAgICAgICAgICAgICAgICAgICAgICAgICAgICAgICAgICAgICAgICAgICAgICAgICAgICAgICAgICAgICAgICAgICAgICAgICAgICAgICAgICAgICAgICAgIAogICAgICAgICAgICAgICAgICAgICAgICAgICAgICAgICAgICAgICAgICAgICAgICAgICAgICAgICAgICAgICAgICAgICAgICAgICAgICAgICAgICAgICAgICAgICAgICAgICAgCiAgICAgICAgICAgICAgICAgICAgICAgICAgICAgICAgICAgICAgICAgICAgICAgICAgICAgICAgICAgICAgICAgICAgICAgICAgICAgICAgICAgICAgICAgICAgICAgICAgICAKICAgICAgICAgICAgICAgICAgICAgICAgICAgICAgICAgICAgICAgICAgICAgICAgICAgICAgICAgICAgICAgICAgICAgICAgICAgICAgICAgICAgICAgICAgICAgICAgICAgIAogICAgICAgICAgICAgICAgICAgICAgICAgICAKPD94cGFja2V0IGVuZD0idyI/PjXssTIAAAAGYktHRAD/AP8A/6C9p5MAAAAJcEhZcwAACxMAAAsTAQCanBgAAAAHdElNRQfoBQwGCRfiaUG7AAAgAElEQVR42ny9W68sSXbf91srIjKzLvt2Tp/T3dPs4QyH0hAiRcOwDcGWAcvQl/BH8Jfwgz+DYfjBgF9twLBf/OALbIKGBEsiKY0ISeZwhhrOtft0nz6XvXdd8hIRyw8RmVW1T9NnMFN79q7KqspcseK//v//Win/3dd/ZkL5Z2IIYAYiUh/nPwJSfjAg64hJxPSI6YjJADKWJ86vqf8EQerLxcpPJhnDyPXQhpWXSnl/A7JlMploiURin45ES2TL9HZkF0f+5E//EV/8+i2//Qa2P4+8tDUxZQ7f7Njvh/IdEB7eHdg9DJhlXOvo+8hHL67ohxEy3L87sGoDh8NIHDPXVy13dxtMoWkczSoQrlseX+3Y3R/pNHB/7NntB2LMNJ2nXQeazjPsJ/rjxNhHyIaoELPhGsUhiIPgFe8UFUCF/X7iuI9Mo/HyWcd3Xt6Qcub9uwO+8chaEQMNQhwSU0o4VfIx8/rNgTFmQlBWneP2Zo1vFAGO/chhP3LoE5aM1dbTbRvylJmGxBAz0zHhnRC8kLKxumsQB1M2ms7z7osDppA+9hz/yz/gH/6Df0inSh97pnHgddwjAr/rvs/vp+/x8nDL5vUK/2Vg9b+36NdgvwYSWAIyWLZynbNBKhc8198xP1p9rll53vx8wHKJE6jPrf+8nMK5hh0ocopLuwxOM0ME1BwmCbMGswETELS84Owdzo8pNoe2YXgyGcVIZEDJGJYzhmDlm9X/GDmXAE+WeZge6XMiTT3bUXjpW1oy8S8feLeZWLUeVWXsE6tNS7P2kMGL4/7hiAA3H60xhbYLpJgJwYMKjXOsrwPbtkUjsFbkusGtAs47mq6Bt0eO48h4nBj7xJQM0UTTOMbDRIoJ75Tt8zWWM4/3Pf2YyYALDso1Y4wZjzDFyDQkBPBeGKfEoR9REfphQqaIzx7nhLw3piEyTRkEhmNinDLJoPOKqPBwfyS0jhwzwxgZhkysQZLuIykZ3crTBI/3mdg4VMrVC15ZXzWMahz6Iw86kmJJdDImmj/+gv/r4z/hDz7/Hi/aa6Y8sTIhixKlxwngEmEUXAZ3bcjPFFojH0FcDSkBSWAqJaFlQ0VKwIpguWRWE8AEqYEr89/UkFyidk6yGHhNNXdKzaDCB8FY/08NMp1fjuaAqEDeIhxBIsjEKY+XIBdAl5+VbBmfhWRGksxEYiIzETEBq4GbLDP0R755/2/5N3/6I372s6/YquP5G0fzB58w/Osv6V71XP/6yGFMxGni4ZuMxUy7aUkGTUjItiGsA11MZDpyPRnZMqplkbmgYEbbOto20HYBVcGvPO22wYsjj5lpiEQHuU+oCt3KE2ImJyOOCXXKOCRUwMwRp0zKxvoqkCbDN4qq0Kw8OsEwTEwxA+C84EVQKZ/pcBgZpkTOsAIsOI7DBMmYspGzMUyZKRsiQhwz5IxFOOwmnJe6O0Au8Y9T8KKs2ganSj9MOAznFBTW25b2psWPiYf7gbxL+Gctw37CouD+1Y4x/r/86z98xR/8x39As2oJKI0Iv5tfsHaO7RTwV5GbHztCG0nbQFZISbBkZK2Z17FkZ5vzYOaUgXOJv5wNTMtjNnIqQY6VRAeyZHCv0S2hKzoH9RPMcIE5aoZWQURLoIohTCBSVtBZtocTAlGbF4Pik5IkEQFvkFzGJ+GYRvb9e1I23vdv+ef/1f/C418/8Mu/esN4nOifdRwmx7N/8YapTzinHHcj/RRJMZNTRhJkFN95hkPE8gEJSkrlszuE7rZlmjJBFEswHSL9YWC9bri5XaGqWDIS0GpDGibGYcIUxv1EmlL5ngIxZYY+M065nBsvtCvPMERizLjg8I0nNOBVCK3DNY7VbcPw6wfSZOSKswRwrSJekKCoU/oxYscJGSI4QbXsoDgIwUHMSyLKuWR+M2gA9SWZjNnwKjSNgwz7+4FsRrJM1waCF/zGY04Yj5Hd2yN2zKQhodew+SQQPuvYfX9D8598wu1f73D/5hX973zEd9d3PN/c8cwr19loXM/t2NF+Ylz/wjO+NNKXjnwDeRBEDCecYITVbJyFlCHnTLYS0HP2JlcEki8DmZxP8MQML6Mr2bkG6Ry4whK/F49SziMqQnAJzQ3OZ7AOkR6kgIglmKWcfK1hbQYul98lBG+CJkOnPd9cOQ6//DHj/T2/+NkXvP6jX3C/6tn98pF8jKzUwSGTGuX1N3vSkBiHiG/cEgyqQhoLzo5jRKXAGOcdbuW5uWnL14nG3csrnHPEISJD5tVhwgdPu24IjSfFzJBTWbAZcsqoCNttx9u3O8YpISqkZOgSaEZQZbNqMIG0H8lTxoZEyka7bhAD75Q8lizvVMjRyAbBQdsGcjbabYPue2QsiUyzgRdiTORoqFPWa88wJDBbElJUISYDZTluyfolOMYx4YLgRFATxinSXZeMDZCT0V01uMYRdgOmkbvvveTFf/ZDxn7P/hc7rnLLs6ElPzi+2234LD/nbgqsLHIzTVwdMyELbn3H1S4iNwkmw0mi9QXPG67s+kkwE8y0BLEZMQo5Q0xSg5slfnIuSZN8hm7NCpCNo6tZ2TCtaLcG7pxaZ+wy/8pLxqkjmOHUEGtQl0FCgRwzUJK5RjzL1gaaC9ZWA5+FPB354ssf8+Of/hR7fyA+DvzZP/4J+nUkTrG8Z+Nom8B208KQ2R8GjoepwAJxbDctPjj6/ch9PvLu/ggps143rDYtw5gInbJqGu7u1rRdQ7duUAGdIPjAatWCKHEs3yslo/WBxpQ3jz25ZmTvHU0X0FZREVabwHCcaIInTmnBggKMQ2LqM25Vgvj6xZrH+yPH9wPqFERwnZJ25f1WG8+q9RhGfxjIgDhhHDLeCWnM5FiKpDhEWqc0jUPMCL5EtGoJ8K7zNMFx7CPvHkYEaDqPD4oToek8eSr4Ok+Z5EqJ3qwCm7sV05QI3vNoe+Sl8n73yO///vc5pC/4wbPn3H76HdLVitR4XuQVWRKrcWQdI50qm3sjbB9xuxeoGjpOQEY1FsgwFxMGpFCSbNJSICYHJjWAXS0ISyDnCkWsZuuLojAPumToLFZhwyVUmHO2UbaKURzBZSR5fMi12KsURcV/JiV4qRl6Dubz30lWco5Mhx2P37zj8Fev0daTdpGXfs2wHnj99cA4TqyDx6ngEPy6QYPSNB51yu31mvVVixgcQ2CcEg9fP9KPiYd9ZHuY2F61BBewmBh2Ez44xseB1W1Xdh0veC+oE+KYePfmwG7fs2oDwTkO/cB606JBGWKk6RzBtGThmNluW7wqx2wcjxPTWIq84ZhKFsrK+rbhOEwMQ2Q4RBRQp/hGwVvZCVSJOeOy0O9L0dn3ZQvO2fC+7JBNW6GiU25v1nStRwTGIdI0ER8cljMpJrIZq86hAre3K8QJoXF4VfYPPfv7nvhghEZpVh7nlHE/oU7oth5nV2xZ8fK1Z/uXe14MG64PgY/zLZErXBZCykgUQu5pJ6OLiZVEGgy5/Qo5PENyxlJGyFj2FWbMEaZIyahYdiVjZ1cYj+wXWIL58pw0Z9tT1jUDn2MNQEC0YN8sHzBvM35AxPBKLe8MiQ71EUkB0alCDkPPS0s5sSVSAf+MnTRG3jz8iq9fveW+P+L2jsMh8jiMuI3iG0dMmeAVMWE4TAx5xKkwxYQzY4gRPyhd07Ddtozjmof7Y6n+c8Gn61XAixBTZpoiEgt8GB4HpofIbj8w5oSaMkyRcZrYPfS8i4UV8U7wTgnmSSkxxsSq8+VSGOXzDLFs+yKkKZeFIiBOcVp+h03YlCEaoS3ZEhVcKzT1vFkysisFlCUr0KAW5TmXzyJaadVsNI1w/WyFOZh2kTBEpj5yGCeOx3HB1KFxZDNU4HgYiUM5F4djJCbDx3Lch6+P4I94p3z02Q0uOPY/v2e43fLLf/5veB4hfP8jXn72O3TJkXMiTRNrgZU5XILWjgTf0+qhbNyrXbngCbIJmJYMzAkfz8Fp5jDz5e+5PqI1ZlwN7AJRTixcDegTbQdkqUWmnILfOGVfCu6VYExR6bREphZiEcwhlUg5vZMV7nkJ6jnXS6Hl0sR+Gnk47HCPmS++fId5x56E2yXcJiB9RBBCcLx5s0crWT2mjFNBDcbjSFCPJeiPE2aG07L1pykTx4wTYeojaYgIxmY3MUbjOEXe3x/IklEntOuAOKnZuWDfri3Un1jB3zNGb4NDOk9wgrNS9HkR+mOhx3xbAtw5gSlhWWid0q0FVaVtHM4ruVH6fsKpgMIwTcScyfmCmAKMmMHGXILfCe2mRTuF1jGmRN4lhn4ipkzKEKeMICTN3L870K4D3inJMuOUSFZYk2QG+5HQKGlvtEGZ3o5snnekMfObf/TXsIt012vy1ZHdl78hxQHGniYLfnvDtF7jYybEA43s0K7HxSMEgewwp6gtEXyBjUt2DoVJs4BZqdjMXM2Ac1DPgS9nry3H9EsulksueoYIJ86uBKJqAeqrkMlZC4lnHmWonIudUX5yQZLMO8HyP5V6WTUdP/jBbzHd3RL/4tcM/cjxT3e0m5ZxKPBg0zSAsWkb2s4z9JFgmRgTU8oQhf1wYDxE4pSJMddPUHjLfj/itGWYEmM/cTxMXF11qCq740icYqGRgDRmmqA0L9bkITONCVVK0AJBFcHhUyZIZtV62uCIHWRpCDfKcBg5DpHJjGlKuFwWizpFELoKGVzjEKfkWJh5QTAVnC9FZppqxS+QkjFNhpkxmXG99jx7vmG9auiuW1I2jhGmMTFOkXGMrNcBrdek6Xz5Wx+hcWSBMZaAlsqg9VMmUagxM+Nx35M089gPIOBF+MVXD3S3LfzLn9L+1jfwesenz24I3/su2QdcmnCpx8UdLo+ImwrpLBmxM53Cipi3hEjll61eiBLU55lbTj/XjF2KwbOAlgt4IR8QdedMxRyS81aqamRzeCbAI8Sz18mMUioIP4k1tiwWQ9WzChu+8/y7/Nv7n/KH//7v8+7tWz79wSf8q//5X7D71a5sty3cXq+5frkhj8bxMJAss3vol8+ZYgnwlA1flbiUMzEa4xTRY6n+931k8IkhJkLjmMaCM7048pRBClccvAPncTpBLhCFDNs20IaWADSW6YJju22wDeAVEWXYefohEZNVViKiAk2l4jIU2jM4ohS1bGodZhANeksMIti64TBEECE5QyUxxULFXW9bui6QyEy7yHAoCmU2UK+oFZ5ZvOCD0q49rnH0x5FjHysEqqKXFGjTrBQXhKnP5AyPx56BiBmMY9kpd33i3Y9+w995PPLpd9+zerblt26vOGajycIogdh2xE1H2O/AGZKnU4aUUyEnaov6J2K1XqtFowxorcfm/DfLyHYRp6fdy8sTjExdrVZ2Ppizaj1oNsE7I2ZlJWlhSAosyZzphSfQLpeK47I+DEwdqoH7/sjNRx/x6jev+PGf/JTHt3sO9z3r64bD+4F+mOjaK/yzDjsa11crhjjRhcD9/oiJsKFwyiklrjcdm3XHMEYOx4FxmFAvrFuPifH4MDJOE3acaLziveKawqt7X4LZi2CWiZZBC1QIqtxsW7arwJWDkDOrztF2gaxCtsIJ566wJSkbQYU+xopfy3OmaJhIKS7VQc7sh4Q5GBPsh8TgJsKUCU7mHMTDwfBirDrPetUQx8Swn9i9PXLYT1imsBOtAzUOh0zXluJ5PMbCrFiBRLni79WqLH4U+j4x9YYPpcA/9hlpMmIw9hlxgmRop8xXb3uufteTjxNxNxDTyOiET+YsGhx51eEe96BStgCxC9wLhW60PNPCc3haJRAKNyfnQX0CxeWHfCrQvMhlZp6FET1DusszyndGodBa2eFdKpKPDPUxXnLQZ8lf6sooiuOMDI0o8Itf/Jw//9/+nN/8+BUTYGNiehi4vVrRrT3TlNk9jjxbdzSbFumEbkoEdYQ2EKdEXkNQx+Ew4Jzy0bMtz59f8+7dI1++fsfYT4hAUCE0MIwQU6HoGifl8xm0IgQtgCVno20UZ0LnHGvv+GjteHnXsPFKUNisAtI6IoYzw1kJqiyQ550xw5RLcE6HSEoZ77Xw86JEoI+RISaMwm2PY8d37joe95GUjd0Qeb/zDDGTnGO7bUlmvH+7J6ZcGZSSdeVYPCNDn2i7gFMhmjHtJ/paBBaxS+ic0raBcYqEoBz7xDgaoSlK53AolKfWhSVVhAmNsuoC6/dH3v/0Fdvf+y53GvBWlNLlus959Ck5cPbDKcktwPSshnsSQ4tqXYNal7VxlqHPxROTSx/GiXlDBaJJgRySUZlXjwcpWxLybUrhWaaeHUgIWGKKE3rfM35zoBGlQRhTQr0jJ8O1HkfmMI3oux2rsaW5bvDB47xnu1YSmcP7ARccyYzDMeK90t61vNh4TI0vv3zH0E+oFnoqk9CYaRqldYqMmau1cK1C1zjEYEhKswplt4rw7Crw2bOOu5uG9drTrjzqS7DknBee2mKGGsTZCjUfp4yIwVrJMWG+0n4JBhMYjDaV3WIqTB/p2PDikPCmmBj3h8TuOPH2mNmlxP1+KJ+tZrFsRnBC2zp2+4l+ygyvD3Sto+kKBEu5sDIihVFJMTNKtR0ITLFk0RRrcnKCNo7rTcPYR9QJx5R53I28+dFveP75LZvPb/m09XRWimKR6t3JZSeSxfBmTwHBU374LA5rUM/IwZ4E+fy6fDLXec79G+fKIJdI4bzE80KBHD5h5hAZSxCLXZSE/A3Y/MR+ZKY88fb+NT/+0V8TdxPbVcv6quP1Vw+LdCxTLHhuPzCMkfV+ZDt0lWuFLNAfRo7DxDSl+h2N+92Bu/6aF5/eMh5HYsq8+2bH/jiAK3XKBFy1no+uV6wa5eOrlhfXHV3ji1KVi6dkHTxMxu215/omsN4GuiuPtoUrDdlIqfDKqoVSEiCk8j1TgtxIURtXjpw9GYqoAfgMk1j5XKqEWE0CjSM1QuscqOMuGYchcXs/8X4f+dkQyY3iXPHA9JKYYib4wvLMsFMBycI0VHEoyPL39TYgVoJtd1+8ON3KEcdakFasLV5xFV69f7VnyInxcWT//oj7+I7Rr9gCJlr2dj0LJCkytZxRx+fuynMYYRfK9NkieBqQ3/J7r/KB1/Miup/A31KHS9mmZ166kN2x0HZqT/2mT45R9wbLHIYHfvXVX/HP/smf8pN/9WueS8MYE2Y9eUg0baBVxdWMN02ZmBO7NDAMkW5VeOBjP5GjsV21WHDItuF4nDgMsZh/psTL7z6naxucCcffjARTfBvoVg3f//iKl3cbnm1abteB65sW9UKKRaIlGd4LPoBrCgPhWkUKhVxMQBT5ds4ONvsyJGOmqFaDjS/7YzYjppIEslT2xPvi1bEC6SwbORm6KqpZloypEQSeOcdmJWzcFV89Bo4p8dW7AUXZ91NRKgWaKsl3rSelTBvKrtC1jqZ1qApxSsQp4n3xeTgRgiv4fr5ueUhMUMQeHUlTZmqFgxl9cHC9Yew27BSe7fa4ccANwyUndwYjLixwc5H4pIa7xNpckAx2nuLlZKbzT2vCpQis3mUTW3wYM1zJFXLkrKinZudcD1CsVCK6WE3PKcBZ8Injnp/+4s/5x//rP+Yv/tlfc3h9INwY8RBJ74ppxnWFWnJA6AK+MdKUiJI57EcsN4Tg0Vz8Gof9ERcU78q3Tinz7s2Ozarl9mbLNES89wTvGceRTeP5zu2aH356xyefb9leN/gATRcwNYi5+KdrseKqWUKsBCLkE66cy+FF0c0oJXgsGyZGxspnNUEs1/NztuhVkXyGH7OQgpBjJpsh2VAM5w3XOJqVo1kpm3uhPyR8NDoHhzHw7nHAcnHRWS61StN4RIuLbxwzKrCqi7/vE5YSanB73fLJd27wwP3DkSFnhmFCKUHu1fHso4bDceTBMpNlpnHip3/1E/6eOvLzl2ia0EOP9n2h6ipOkDNYYWfRecrUZ4l0wdclpszOsXQtH58sEC9ybhWdvXDn2VouoK9KyR4xK62L2BzUFpBqHZ2jWM5k74vsjPF29xU/+4u/4N3P3jAdJzbrhqlPxUguRVCY9hOr54GwDmguRhtpwSYjdKHACylBkWJiTIm0z6gvauXjocc/KukL4/37A/1+pD8OrFvHR+s1n9+u+N3Pb/j0t+8IG0W94YMiqrhs4CPFkn9akctumTOYFnV1/r5njjmtW6VIoYtMKd+hwiGp2dwowlCimHDU2cLHksED5rQ441KBNal6xlM2WDnENbRd5geN8Flc8/5h4gvnePXY4/pINGO7bbl5tmb/bmDoJw7HiOAQnWg7zzgknCu1Q9M6ggjqhW4dyMOEDy2ksktqZRZadWjwvH+14/Xre77+1Td0//aef/D3/xbhdoUGLfa/c4/8HLk6Y98zUGxn2NbOMLTZt2TnGY6cUrBVOHwK5Rm8f0uFOcOhXAPe1+AWAbIirvoZmS7FFKlyjS0kDZYGLEUUITrj5npFbAIpG8NuZDQIrSPlzPg4EbIUf3QsWa0RBSflIscS/MehcLAmhXNtVgFVeHw4cjgMvHM7tl1DEHi+bvjdTzf88Lt3bD5uadYBywn1BVdqFZBE3Ace8YX3dHNKsVN9YQUvl+KnBrRVVslYLAUlgEtGtnphZO7YkMq75rwU11bgJ06M7JRUvcEpS/mcCqpA19CMGe+NdVjzfN9xPya+vu95GCZefXlPGnIx7Ff3nVOlUbdcH1Eh5czrrx9RB8MY8StPd93SieLXLWlMTGZ0LzbcDgk3Zb7+o7+kHxNvnm95937H1eEI65Z226KNnjLzOZyVM2Hk24pDzpgx4QJeYE9RRTnXC20nTzD0+YU8R9JOINVoz6aIFCps5rzkjEm8MDmdbQ05jeynnqyO2xfX3Hznjve/esfjq0e6bYMeBS9KnjJh4xiPxdAzxkRORmr9QvmlVJTAmDMxFRd7UdmKMnY8jEx9QgNstg0vrjp++/maz76z4vqTDt8qSsI1ikgNEBMkZ0Td6cRXT4pZ4dyzpbm356y9zIrDxWrxMwd1FiynQgMqC6xAiiqIKpLy3HFEJlfDWPlMmVzfu7jqpCpsKqUWMTEsKKZFA2ATcMGxvjOeHyK3W8fX9xM/+/KBw1CUVSeFkkwxMSG0nedwiEwxI5MRp8yqcWRgd1+K8WnbEqTsyLffuaYR4XYyrq8bhmiE9wfSw4E37w7cbBsaKdI+zpXveJ5hn9ZrctaBYnwLv3eGsZ885bQawcu325AukII+qUS9FtihMsuUCbFC5Be3nX0ru7FUsZbYHe/ZHwZ027LZtKQgxHHi3S8ekAyTJtKYCI1ye7vm8dDTvz3Qj5GUi49BXPFIaIYuKNFV72ztQbNkNMHRtMpHmxXf++SaH7y84qOPA2HraVYOp4ULLr19Zw0L6k6fWwsNpTWbmMmFuO903tmspFI7dVFkjJxywcdmyFSKQKEc71Q4S+VXIYucuQMEUa0sRD4xBa4saadCdloKxlLmk1srGkZKdCvlmXd0Hpxc8et3R7550xeRxwnDlHh4KM0Zbac4p0xTKsWpCte3HX0svhTzwn43IpPBlPnss2u2zza0Vy1tNax1X94zvn4g6xV6ty5do+Yu9Yg5SeYPeTqp77ug01q4ST4rBPN5sJ8FefFynL+RnOGV6jU9x8PLWxsxC52vWWLxhfoKOT4M5AXvZ4rc3QQ0KH0/8tt/93v86L/5P/G9seoaUsrknGk3DidK03l0UIJ3JFck6JQSXkoXinpFtbRORateh6EUOEEd11cNf+fzO37wyS3Xz4TVrcc3Hq+ll85JcZnNm9eys8yZWakBKKeG3rnBTItDTkWQnMrFyAWqFNt32SatFq54hWRYbRaYT46KQC3giqG9HMtc6bUkZXJtYstnrxEF7092SgOcKS7V5KKunB+BzwhIKLjzzZsj41i6bKCwHrMi2Q+l7WuNEKeMF8WFwq9vX7Ts3xzZrFu++tU9xyFy9c5zlzLdiyv0dkVz19E1rjRJYKjlqh8/wctagvOcujsJcCwLfC7g5r7CRaxZvCCnesWfV9mX5osSzPok42s1sTilQo5Yfaz5giQU4YNm2QUCiSNIw/XVhs3dhj/5H/4JsktEM/b7keurjiaEktmA33zxnn5INF55drPGLDNMkbvbNVNK7HYDw5gKf0uRvsnGKgSugufv/tYtP/z8hrtPu+JVcDO80NJ9o+XCS21qk+pTuZCFxC5ISGdFR3XzMcQKmM2FGSrXLSMZHK7AiAWeFCk9Z55cOcXIzFotUvCsVUOPmKBSeh+T5fL5XYEwNkGWhFayyfnSUyeVdmwaZXPleCmGsmIaEo/7iTYoTecYjondLuJ8gSIqwpQSnYWFHfHqSH0samvjuBfY/+qe12Pi1jte7Ea2Nx23XcPNxzeo92WxZaswTC9YjIveU5l3PntSJJ6BZjvDr9UQNBeOsxj4xMvBBcCZM788gTROqhe64mgnEagCy/kSO4HwinjnIkdYXX1EbgP5qz3pfsQ1HqZMc90Us0pQ9ruew35ks225Dr50hJuhJnzn4xtubtfsDn0J6CnSBk/XBtq2tFndrhu+e7PmD35wx9XzQLcu2UpECgW3FLvlu4qWvy1FVoUvLPTaXMwIlnPFzFyc8Avq07TAMi0UXm2Xn7nPEojzhZrN7ZX5oEIeyYZWl1rM1Yxw9nkkG1I9zh4hi+GdkLOWLC/UxVv83Ju1AgH3O9f86vWR+8eRcch0neNwKOMMiguxFqpmS2fQ8O7IahXIOfP29SPHMTGkRDgmJBjtbuSbLvDNQ8/vPE80UujB7dX6jPmqgTsveik1xwWEOHew2Wln50k8X2jnysltd1FhPvV2PPnBpHyYZLWAWmyn9oGEwkWJSM0sEYsT03Rk9/OvWB2LAL9uAqNFDocRs8x0f8BC2W5XnefmuuP9uz37w0jbeMaU+frNY/EvjIkYE6suEFrPumt4vg0837b84W/f0l17wtrjaxe0zJ3VVa+1HCAAACAASURBVNDQStdohR6icqLq6mIkp2VuCZWHlhlTUy78iT6yhcZbmCitvHxdBCL51MNpssygQOTSUmnFylmk97x0a1oq7+QoxdR8GK+FuC81qyxdISqCOvBZ8SHSdsbHn5Rm4If7CXPGMCZWa8/13YrxWLp8XBt48+UjwxA57MuskWfPNkSL9DERY2acjNZl9hvHz7/Z8aMIv7/d03yyJVsir1JhjOTSiblQDiKLZnEy+udL0UWlBvV5y9XJZmF1+/cXvYMX8XwCNue/Vwq5X+CP4mtBKDKULVMS52XhcgQr206KI1+++zl/8Zd/xuPDkZ8/vieI0k8jwzQhKozHjFelHxKbTcNm0zCmEuwxZrzPHMaR43GqZhmllVBxFgQxXqxbfvjJFR99uqLbekLn8F5r4LpTMUctumomEy22rKVOETDSIhTZuVflwsubFypszjiiUoK67gZklmJ2bjdaipy8aFKlhrLaCZ4rZ+0gWN0ZKzbP+aLUL2ml8q7mpHZ8SBnb4Mr3Viud4usq1jSfrDjsJ6IJN7cdh/1Iijssw/37nnYVSkN057DDSMylXlKvPP94yzdfPXLIxn7M2C8fGEfjxePE/Udbbp519GNku01VGyhe8IsszRm0mJsZFgfSt3k+ZLk+JzXxBFH8eVLVs6bYhZCeRYKzDJxMcJJrAXVeEKbFPHqOkYwSzDlGYhz561/9hB/98Y/5xY+/BmCTHW/vj3TeIaqsmsDts4KVfVD2u4H7h544ZaaYiqyrQj9EtPLOIbSsV4HnVx2fP9/yg2drvvP9K9a3pTujdGVr9f6Caj258y4jWrM2VXCY/SaGiKtdFGfloJx15tiJzsMMNxvU54CzfFILLVcx5bQY8pKCCy9aup8NNx9DcuX402l6kIMoQBLm9eKs0IClhVHwKmQv5CrCzFnMecUHR5MTotC1wv6QaENA1k1NFEY/ZFyjeFWGYykgn9207A8DWSGk0rz68Xc3TG97jofMypdG3j4mDg89m9uOYz+yaf0yKmOBZlbh1UxhVLhwzlnb4sPPpxx7IZGf+ezFLjP0CYfLBwTeeeZ2akymtJKKCUfO5jadCzX15TknYoqk4yPH6Z7Hw8B0TAx9hN1EPxlN67m+WaFWLoRhhMbjndA3DnWCVQLF6pAVrFycq6sVq6bhZtXwnZuW7z3b8NHHgavnbR0kA04carVjpAY01Md5yI7OQT8HrdbXn0OAhXQ+eTZqMWlzlWenxSxW2Y1cglqtNBPMhhszQ12BLOfVeiH8APEICbFUMmxKeAQNHomluyTVbbiwKrUJQ0GdlEbebCQRptp5lO2UASUnPv98y8PBePPNEVFhfd2yf+jxQdjdj7SdI2e43gSmOgIhGVxv1hwfBvbvB9xUrviVCpurUFiOdaAfIx893zwJ0A80lku4ce5xvnjCGSOi5xn91BHln2Jl+aDdW56aQGuAGMlK/b74oXEI8dxKUi5MMvJxz6G/55ff/KzMyEDoOk8ejJQSt5uWq7bBrT3xOHEcIg/vj+ScidXMYwLOlazgndK0pfN7FQKbNnDXOT5dt3z+ccftp6tKyc3Fn9SsDCpaL7pb/lYKJ1eCeoYeCxRhGWg2t/uYnDXDVZpN5kC1kxwlFWqRUylqE6X7uaZwq0WypPLamSbNZ5YDm6dOxVj904U9wWvJXFblGBO0jk6TXJkYKQNmWj/3GhWqM7o6dCYWrHq9deS85v2bI+068OJ2y9ffPHIMY/FDez21taUyYw+MOGZarzy7bon7kWHt+I9+5znPb1astk1pco6Jxrs618SdQVy7sMA94SQuYAb2pEZ7ktHnoH7i5XhiS/0WI55Q/NAqp7aZginrlrhQdhWmzKpiziSbGKeB4XFPUEcjigWPiGOz6miuGnb7njwm+sPIFEtvYDlxRo6ZtvULS9GuA5Zh3QY+vlvx0guff9Ry/bLFdx5XWYt5yIqelapai0M5w9HqShAXGq+MHBJ11cNSs2c1HJEnLmZYnTEf8+8X6jKfeP48j10zW7qWRa2EYR1xJVZowDyPXHMOK7OgSraPcwYvVZBRuFRDyKkIM95VvpqCVgyhrSomSck1u3spA3RkjPR9pO18uTbe0TWeh/dHnMBmE8gGu91IP2VcD7uH9+RorFbC1gnf/U9/yPNPbvni1Wt2feTOynQtJ4pNs8cmIXUeyaXJ/1vamp72Wn2bf/p8KUgVVj5I/08p6SdpXMUYsxBctUZSLs48ucfOzPyydJALhA2/89nf5uH1e7ablu3tijEP5GOkuW64v98TYyaPuYzuGiL9GLnaNAzjhIriRasJPdER2K4Cz65XfLrt+P5dy+3HHaELNTirIjfTjDXznmTluRB0S0ZWp4jTEtBSv1OJsEp6zDNItM7byIvr61ySPYkzcqpv5ITXzVKFdif6Cs1zx9Gpe6j6iFWVVClLVJcaEi3brGCLuy7bqcJ0GbIaLgupjqAY51EUIjgHzqDxws2V482bif448v698XgYKqwTjscJA0JTunQO+8g4ZrwKh0PiwY38/Cdf8lwzexy/+WrHyxdXtPN6VsEHh7QO1/raezmfU7ss+JgH9cjie7YL3uyM0luYkHIuvXI5DOYDJVwuWb35oE4K08HsMZgJJbnEnKjgxON9i0x71K/4rd/7IW8PO375+Igfii3w7VeP7B8HunWoBZXhnKP1mVQnDTonhbKbivx9eOy5WTVcN8rHG8fHL9f4u4ALugw8nMdbLYG8ZOCaoUVPVN0CM9wSiItgP7vGzuUry7XgfeLhnd1kFYLYzPLMBpk60GfB0XIy65jMhZMsr5u3RhUhq6KWCmMgxY6KlsBfdiItEFQQ1BnOCtOhFU752q3iXTFR+WxMlskxs70KCJ53bw8cD+WaTjFXRrEM43FOuHresns7MA2Zo8HrXWLzfuDN60e893yzj/SPQ5mdUi292TKOjIYqYomcOlOeZGqpIyhOMcVS1IqdKDsze2LiO3MQyRMsLRfTnU+/zxWTp1xOavlvetLXUrMfVZFrWlbdNT603PeP6PWK7/0H3+fw9Z79fmCMkURRCnM2mi7QtZ62CwxjYrcfEVfGV4WmTN1xGK3A81Z5ed2gG8WFGWY4nLglgJkx8tmgSVGHuFN2FqcnE83CryewWPqkcgZLmMXT3lexuc0ZXhXxejL6L/+jJwPtAsxL9ErtFCifQ2pL/fl1qAYmV49fv5OKnFrgnJY+r3LGS3Fbj+1caYJ11bzkVGi8luZgp7iKp7eto9044pQ4HselzzLWlq1nz1rWK8f+kHj7qmcY8sI4HlLmzW7i7dd7Yko8jpHhGImxeLfVO5wrj3NBfg4F5Knj7tvmHD3VRPgg5C6Vwqcay2wnvZicZGUcWDShkTI4BWd1yMx0wYosBVLNUi44PCssG8e+58f/058XWm4/Fm8Dc89brupXHYBYd5jhODGuUrGHOmXbBT6+bvj8bkX4yOHXZYazUz0VdjMdWTOfVuPPwm7U7Kw1a83+iPNJUeCKmfmM/eAC4hXb6Gx6FqtYtcKFYp+tPufaKW8Lf3Xy/tbBf8t7F/NXXubkmWodEV/rFbEyhchrGYLjDOcDlhKkVLuHFNRwCC6Vp0aZpzEJ3pXhhymV7pahj8SxjPidx85pnQmiTli1DetjYpoyfuU47gqVmIFdP/H63ZHrDHd3V4SVZ33b0jgleC3NGsHVY+olGK6xdepEyXU6lF16L841ggofFsiHnALalhnR9uEQXTnr1j7L5Cfedn6Oq14IqcV/5V0tESvn9nB8xy9/8XNe/enPS0cIxReQpgIP1JSuDShKlsQUi1cjZaPrHN4pq1Uo8zG88HIVeP7RirZrEF8xsOhivdTi4lkgSMnMeioIaxAzG5RkDlitGHfG3P6DPvqTOpsRS3V6lCxUnmla5rlZXaC2qGL5BDnmNCfnUwStxm1dJDLPNaz0Va7ijNROFtUCL0I5Tqy4tcynFXBlnFqKhnOlxSplISerQV6k8S4Ud2DwQgwlGlKdYPrq1ZGuUa6uA2bGu3cj29tA/xCrPxvaDL973fHpsxWbdYufjVjz2LNQ7AfoOR23uK3OnHTnkONceLnQni9xNYbniTnpA7ZDzuHwaT6ESjGYB18tpDLWbHZ+q4BMThEby0hzmyb+6f/zf/BH//UfsekCh/d9vXVCoYQiVoYQCuzqLI2Yy2T8tnGkZDRtABNW3vPZXcunzzY0m4Bvw1lAVhPPwi9X4DRj5vNVWJ+ndYVrIXDRWnzqGW83U3czyy515ynWzmLvlPPBfSalqq9WSTtrBDjde8MWL/nCP1m5Cjln0LoLyuwElPPZAEXdluLhKDtNsV86LShJak0zNx3MHLy6TODUcSMmlc5Tbm8axqkMcfcB0mPm6toTNg3ffHlAdxPd2uFUOD7GRROwINiLjt8cRv7l2wPv73u+92LDi5tVEb+atuyMevJ0yPngmSetWIsVaM7SSw+hfGuD7En6/hv+nfugz2GJqwGgWgpCJSFWrKNSuee5kErTyHH/lpgm3h1e8eN/9hOaVWAcEm3ri+F9gqb19P1EzsrDvmdXe+LIiVVbJmL2Q+T9w5Ggwq0KN92Gu7sNYRvKZPy5cpY6eHIJblmGsResec6r21kByGnQ5JnfQ/Q0VZV5G8xWuGizi9nZ50Wj1AVjOk+m1GVrLUJLPttCa+OW5dMmoHMzV7qYWTEXh6UvUZYGi1lMWcZn2SnLGeVv4hXN4LIjW3EomgORxKo27m5ax/VtC0G5f1cMZ+/fR+x92WX3x8Sxr7P1aoB9/sMb3v78kd/8/JE2OP6dH7RYW9yA7bZBvTvbFWWZcms2t6PZRUotkO3DW/acKOUzH8xyb6CnTbJPZkI/dfGdc4CpctFydjMWMbf4HHJOWE7kOJFy5Ju3v+aP//j/5osv3pKnxHrT4CjjX02F3f7I27cHnBNiFSCcU9YbT/BV8AiOh4cjt6tAc9VyvWrY3AZcUybVnw/NmWHuEpSimJ4VugsEOWVtWZq2c939a3/T4h/ISD5ZZW25c80pK9sTYWq2krJAZl2gWwGfCloL6nxOD850Xv3sOZ9MUwueLAVgluKtzrHERRmOJItxbPaFpFSPUSekelViyrha58yOPJXMqlX66Lm9czw8PhY6W08aQ/CF0szZmMbM618+Qja6DJ/fBe4EXqwDV+vKOinLDnq+7T+doHHBe9pT12b+wFL99J8X+fY/6rcwecv2NSuPWZHzyUkXH6zOLEtlxO7V3R2/9/f+Ln/+Jz9j/9gzHibWXUPOuVTDuYzFbZ1j3QWmWAxKKsLuMHJ7u0bH4om+u1lx3Tk+vu0IW4/4wlzElPFOlwt2btZfDAJyCgrRMl9ZP5D6bfFxLAFbbvpRBf65cyVX9i7XRJG5dJPWGatmT0YSz3z2LPMWtqh0iOe5beWiPV/OLvQs30vN3a5K5bM3OjlBq8CybNkpV5hYdtig5bYd87nJXokGTWP4SWiSkJ3x/t1xgZK51rnBF3gSnBCnshPlvkyFevn7z3n9m0f+/O2emDOb4Gibhm7VFIZG5MOuj3O7aO12/wApnyuGC/yWS/fdOeSQv4EmsScDcKs9vTruTlZIMV800bNbT5hV8KGKNtf87R/8If/5f/ER//1/+z+y+8lb4pAInSePpYJuW49QbvkQU7n5jw+1LSiWPjgXyp0DPto03GwanC/+bDGrC2BuoMmVe36aiU800SJNi9VekBpmNRsWM5A9cXRV+Ve0gpNc3Z8nIfdcap2vmWU7CSnzwlK3XERLuRajp3lvWFH+ToKQLVaxLB6VtBh3dR7AqVLtpLk2C5Rr5Zb6ApIowWnp4FbBxlg6vlEswypkDseIGzJdq4xJmXal23u79pANDcrxkJbCNiNM2fjqiwcOx8SdCL/VBY5jZN8PrIcOt2kuCeDFbWffOppAzhekfWg7vezpKmfffyvX97Qn5qxYnE9QWopShydW6GEXHLQyn8BcuzxgGHvuXlyTXx2Y3g+oKKsXDY8PR9bBM6RU5yQr601bmmJz5NiXiffXnefTm45/74cvefbZtrjoare16Xzzo0q12ZloUmHFMgvmhC9OlNmMY2uQnUSWs++leurzltL8arUQTLXnbykaz99H5SIjySIt1hFeM6Q5YzqylgYByVIabRc7ryJ5thmUITbOZtxfZoLM6FsqRemo7j2t3fKVW+6H4tOYcsKdudi8E9qmDLOPddqSUyEEoVu3eHV88knDw/2B3X3P3acb3ny5Z8jGYcxcd8ar3YREYd01jOPEKtsHQ2Z4YgFdege/jYA+Nyd9oGLLt8y2O8Mwp23RTg6os2At5iTFS6yQY6yPxTusYpjzOB9QHHE8IuIZHt7SiBBWnvFxJJmRx8Tt1ZqYEsfdiFPFu0LRTSmxWgWmMTL0E3d3K/7WZzdsrhvMUzwJVYhx6qvxqHR82AIl9MRULJj6ZB2d6btiIS3eiSJy+OrluFSd5Mx4JVY7Q8xwlsmaK3GRa2DN7IKe+cqfVOtJquKXl26X0m7liuVUyrCbuQF4cZlpGe9V8HddtPOt6mbDlVecWJm1Nzd3zd3orih/yZSQjDGleneqjGQj9qm461wxT00p8/gwlRsuPdsyHidW28DhceSrXz7SrBzt2nH/EDkMkbFt+fnrPdt14O7FmjQlpPVF/zmbBHOZP7+FybiQE8/btYq1Vs6YNf+Uz7tUUljmQlzMxrvwe9QxuhVyyCwYqKIu4JqOlST64ZG/+uJf84/+7E94/U9fs3scCu/ZBt6+fuTqZs3bbw54L2yuGjabttynb5iY+jK5J4jx6Sbw0bah7ZoyGVQcuCKvS9aT2sZ8izmWneJkRmKhq1RPAozMWXlREMMJtqhcrPoid9dbK1QBBdNy+1CDbHFpy1+6XMhLkXk5vKTOrZjH0NTZcGUSU6Ie9Wyq0hlnK2e34svlrlqWi6121hdiKlqAd4WKzDPFPeUlK6tQdjqgDYpXYVVvAxJUONR4igbjmPnNr+9pVw4fhP0xEryQxyIibZ83PLydeNx4pk2g2ZTCsNyFLePMn+1EH/LKF+l3DkmTy6Ezi0ouF0M6/Ie3JPz/qUBPHnQSQitlir93H3RulWBxjkC32Py/lq/Zf3Hk8TDQtI6Xd1fsHwZC53n16n25U2xWdvuB42FcFo/TIgBsO8fdJrBp/bIVZ7MyKGWxhZZAmFkLlcubirqzjLwUj0t2rhK0SIEacxEjjpN8mBdYYrVV6MT0pDOaUytPnZ9g53OGQi7mwFotN6XWHZap4yHS0pFv53YS5AzelWpv2U2qhG5azP0xFtijqsXG6cqt5GYPe062MBxa4YWosN0ELBurmKmXhCmX/sZxH4sZSODmZce7V0fuXx2RDJtGeXVMrD8pdzdo2rD4V2bX4gVjMU8Z+BtuJ3ghjFRfzClpn1q19G8K4KcyuZ4PVJHih9ZFpXTLsPNz/8FSzNQP8+7XB4J5Gu8Y+8jrtzvCJrDetDQbjzTC5qYhk7l5tqpMgpVGAIzOKVergG8ceZxKY6h3aBNwLlRqSKvHoVwU58qjamFCigei+qMXqq76PSrWPrWx5DNn16wEAhaLW245cW5RJ7XmHJ0tqbWX7umtOVTLrSjUzY8edQ3iQxnMInIhAAknNVPOB9zMaqd3uOBxweHC3AysSHBYdRNa3bFMyniCFDPDWO71OBdjTb3nS9cW4cTV18R01lCXbeknNSBl4/H9QFgpvlVSht2Y+fL9gfdfHnh437N/fyQexmX0r53x9+dzI+Qclj25k7E89X58kEQXDC3fbh19YoWcn5Rrb1sywctpcOGHOX0ZLUMTOv7+v/sfkt70vP3JO+6nnldfP9K9flieuvaBbdcyqKM/RJrO1x1ZWDfKy5uOVXDEYYSmLUHqdOGdVdzJm1GnJ1GL09nUMycv4WRtk7PvKZIXLFpBahE05Jw6chVayVm3TmmdylYau00K9DCt9OZy6wUrW7tQLKoGuFzFKI+moq6S/z/C3qRZkiTLzvuuqtrg7m+KiJyHGrqqRzTQ3egmQZAUUMAVyR/AP0oRcs0NBQuIoAEhBQL0UNXZVZVTZES8wQczHS4XV83c3J9H9iIkMiLfFO5qqlfvPec7pYqYjn1UqWbaSYteahlVgjf0gHMwRPKie5hjJmeLlMg1H7xkJY+F/T4afm0sNU3Vzb3o4Dzr1nO/TfR9IDwlYpaZttp1juKEuMuUohy22UzICiuBOxE+dx5awzWMh4yOizUiP8JuOSF+nQHtTjTT5+J9XXgK9dTtcjlRolZ2olWcpGhx4CNoqEbZ8xJI8C6waTZ89c09f/dfvuPN45ZNF4jrziLBsrkq7q5XeHWUlbGY336/pe8C1+sOjSMvrlpyTORDovv4Cl9zCqedbFkXu8UpMYNg5ladnJSysshnnI9CN7XKfP39+AniPUiobtZkD7MEKNEcI1oQLPEJNSdLmdklk8hrme1ocsrCxJX21UQwkx9PRuJTzDRFKdWI68RA5kWVErPtwGMmHZKhcA8Vo5bU0rVS4TBmQxGkQgieIpkiQtM62Fvr0jsHJbHqPENK5ALr1vHyk2vSmPh+t+X6rmH/kNgg3H3c8wfq+H3x/PR2xSebllXwXF+taLpmhlQek9WOK3ia9s3Zf3JG8Vh0OSa90MzHq4s6nNe+vAcXLRdsWDYRXtSG6k4+YQrZDK5hFTo+fPEhn/38Q978zWtW6tls1rx5Yxb5Ptiud/3Rmr//r99Znl0pdKsGHPhdYhWgbx03dx3dTY9bt5Wh4eZ0qcn8Oiu4FlyKaZBxbKcx86ylUkztVzAuhmtq/VwdLBKoTACQ1hYitmiVVC9+GamTP+Ho5haNM0JG6uVPOAJAVFxFGziy5tPjcSY4LXpW0887TSiLorGQx0LcFfIuWcDnYKTR3Wh/HrO5gJxaRvlT5T6LJvAQgiMVqTu7DU/c1BILwhiVcSw8vduzXre8+GRFiplxayztF2Phzz+64q9eXPGzT6+5vl2x2XRIH0hO8WHCRriTEmIyFMuZEfYSi0PkWarV3MsOl4cpcoFwdwo9t4wVkx/OR/PySVvAgMU3NM01q2aNT5lXH1xxeBiNewys24brq55V3/Lmd08cdpGU7Fb+cL9jPCQ+3DSIQN81+NYCeryA82F+eGRBjJdaRy+FSmVmYtSTp7bSVDGbkPmdauJ7i3jLzCP0tSFUTyFRRJpaV8uJikurMk+mhVod3kUWNKlJjVeHKRP/mKVJWZYisQt2JCaUgeUwlrGQ9om4y+weRnZPA9v9yHYwnG5MmTEVnsZI23nKmMlR2Q+JIdqoPwFdH3De47zF2Kna6Xl8X5UxwuGQ0KJ0m6YSnpTo4Nv7yEefeb789IqXn16zul4hrUO8p21M030uejvuvMthy2ncoJaTwJZnCDGZMQYXTSp6JgaRMxyYzulXBj+vemg3HoHnJ5V8QULAuYb/8X/+N/xfv/0/6EPDm9/e88XHt2i2y13KmXcPe4bR0pp8cFzf9IwycLVqaLzj5nrFem3myxppWxsQMi9W58xJPXEyitqOdJRnT8eV/et8CBYn0XYgDepaJHR1UbfHnXmKPK0tNs3TRVHn2zs6WbpqZ0QFSjLRvbiqjqw3fTmmssuydpxjgE3EJHrELE+djqI1mH4o5F1keBw5HBK7fWR7iGz3ke1uZChWH6sqmcKqgUZBg+MwJjbOtNvbQ+ZQjPXR9jAmiJWP552jC47dwbotRZXD3kKPpCj33x0oBe5+siZ9feDhMfL9Dzs++OQGGodrrQ1ab+PHPvOJlZ7F2JuFCfl0qjh3Nua25fLUWoJm9BzFdBRdn/sLpQr8u2lnnAawcwrWeYKWkEX44O4nDHHg5tM7fvWrX/HJ5y/YPx2QpOyGyLCLNI3j+qpns24Qha5pyD6yDo5NawfKmDKtCN75+fs4p1ZDu6P42xaM1aZlLJVKxAwaxwku2M6rCJqmryVVh+yRXMAVNCckD7ayKmJLp1G4KCWP1V2ltTyZdnBXd/a8aPctCExT/3nK6quIMMu4PpYT4hyYbt8+fJdJNZdw/zRyf7/noFZOxJoMiwirxs9YziJCyY62Xpw3K89hyPQ4SCN5zOa230fUBTR42lVgiIVVH9gOBpU3EaQSD5mxdayvPLvHzOuvdtwG4U2MvLrqrA0Y7CGeYuOOwrAFBclkm1WGcEyPmJ7wqWZerkk9bRsdM1aeTSHPHbJnT4DUSIp2KjkaPU4KTzgep9Z0EcdheOLN229sBD5Evv7tWxrn2G9HNAiSzanSrwJNE/Aou2HksB9Z37W0NZkqtK6Wtoa3ctT8vLqIZZGOlEfDVakKaj08SjHLv+8bgvdosU5HGhM+gR8LEkYrSVLG5Yig5DRYresdKgHxVYeM7X7e2R3bt8fR9jRGR5x9bu1NH3dgnd9QZmGSWvCqHl3gmpRSBE2Qhkx+yuweBp62I/c5MkhhLPXhSgZk901AYmLV1azxbCGIWqBpBNrAqikMY6IPge93Aw8p8zhmaDxZhZjVRuM1Wnoq41RhfyjENLJeVS61Wkze17vI/pBoG9N9hPaoVT+XYizLhtMe9BLnpc9r5qIn1q0JnxbOUyNkgcxdtlj0wt1xbn9Rg4Nc5KJ2r/ZRu2bF7d1HxFJ4/WYLCj/75AWxMRnj9mkgJmsnXX9sJKQfvnrDVddwve5Y9Q2bOnly3mSXUr1zJzVnrSs1ZuIwchhHijhc39nu2PZ1QpBBEnkc8EUow0gJnlyTrIgFSeNsITPBvUMKSNcizjJgxEHoOorP+Kari7V2PibvF1Yrq1gJYawO5j8bf8DKGPuVZkqSFhNqaVTSY2TMStorj4OyzRaWmbJ1N4pC13mLkysWRzwAq+RocDQrT/De0hNSRd0Wpd0EUoFxv2d0jqd9IlHbkLXMcNXCVhZ5Kc4L0Q5lWg+rtecpF3aHhKaC855SdSTPMAJ6lLvpAuE8SXA/FgAAIABJREFU8wEXu7VWchLPaP8TV9qqgnDqUtFnHY33Cf+t5CiUInivz0bmPDOeC03oeHn9MT/5o5/ynz7+Ox7+8QEFVquWw35kc9PjvPD0tDeXStfMofWrvmHTtnTrBtc2Rqt3SyuUzKq28TBShkgeMinZ0KDpbHf0XW+OlFBd0/EApVBipCS7KHkX0JQgp9k5kvOUaFp70NsdBIdzAWk85TDQXa1n5rA6b7as5Xuo5Syxt5YUOVVcWJmTr8yPa1jgMmbyLjHeH9jvMmOCEdgPmd02EkshR0s4aBqx3VQTRQwx5nFosXar8x5/0+JxcMjgzZUdB+V2BduYGeLIm2FgVNvlfZhoVnVzzMcLNmOxcFGFqxcNdyvP9c2GzYseWvMPipfTAcd5tMSS/czpAj12zNxsHFnm95x+zCzwX87V3yMhPXu4vCi5OEJIpmqba+j8XiFqEc+6v+b3fvH7/OzP/wtfbRP3T3tSstRSQeh8oHu5Yb+NfP/toynYcqZkQ7521y2uDVD7zzK3s4Q8JPb7A8N+QLLSucBm1ROaBr/qcX2D8+2sjlMyJRtMKzMCmaJCjJGcIvGQTLwz1nTXanh1CHGIOB9o25Z21SKrjjDYdE29N50452Imd3zjqheRqpqjIsOmRayxUHKxnvLTyPg48Ph2z8NuIFWNyONTYn8YUafEkklkSlS6TnDOBjOuQBDPamXxR76+zupAqo3Kt4KsCo0WPvUrSlLGdeGHfSLGgvpjnEQupyukFOtAeIS0zdw4xxd9y/WLNW7VkEVp5JhZOE0BT7MHz6PS6vZfzmXTcmqa4Jjhc9a2k1Nx02Ih6wX5aVn0BmfNavFISPVoLUeLRh1fyzxu9qy6Nbcf3ZJFyVGJY2L3NHB70/PD20dWXSB48xD6Uni16ehXgfWmRTZ2hIU6AHHO2naaCvv9gf27HUGE1bpntV7TrHt82yBNMNT9ZFQtGXLEU8g5W31dLyw+FTOZdlBizUZRGEqhlEhoA0NJ5N1AH3Y4d40PkEePtsEWaU61y5EndkEFPpajoGYqORBKdWqXrGhKaMqUmEjbkd3jgf3TgbeHA/txgFpm7J4y97uRbh0g2GJrAlW34Wk8tI2nbz2hcZZaUBMBXGML2zWmONKx0F035C188EGPvhGKDvywz1h0jdAFV7PKjwtlc+VJ+4IWGJMFOt12gbZ1uDbgO7u3yAl2fxK96UlYyvx3s2ZLZhXdSR7hrJvWZ1qQMBcc+p6R94VWtKsWrI5iRlmvR7vPshVzBp+eEF4fv/oZu4cdj4eR+DDy4m7Fugk1v6Wi1BXWm45xb73R9aalv7EwnKW1SsVByuyfdhweDtysVjR9S3u9pll14APStjNzw6j2xnrWehSrE8QHG7KIoJLx2fBmg2Z8F9D9nq4NpARBM/SOUZQUlTFH2hxMo1ysI8I04PHuKGCf2k6TyGhZL9ZSQ6uxQZNNRA8PB7aPe3b7kXGMZiYeE4dD5ikXomR2u8T1dWMcktBYLFtQGl9ofYP3lgqG8zgf8K5UJ7y1/jKFEpXQe1zK9G3DesjcjIWnUTkUalyF0gahRK3hoELTB1xKNCK8AjYKP7/uaVYtEnwtN0776ictuGeJUs89VnPlcEJ6PHOv1D3jRA99Avu4KMtYHJ4zzafuzn600qO27Zb7uyyBg+IY0oHbzZpXdxsOePquRWPm809uwTt++49vUFGaRhh30PfmK+xrNIJ529TAf8B4GCiHyO3GduRm1RNWAQktEgLiQ01i8lUjcXTWlEJFzdaxt1YVXQW7NI03FZdvyDgbDkRYBSst4gjBedrqdFlSlWzcuXy/3NmJV82yU25bOe6WZUjk3chwGDjkyJBNyTemzCFmDpoorpC9rYoSlc3G0TSuaqk8fd/R3wSc8/hgO2UcUn3vFl0EJ/hGSBlC4wzxde0J76T6Da2V2TQeN1i3Q529bvunyMtNy19+ecfP94lffHrNTee4vTPzhVb4zmx6YLHrTtyXBcrr6PReRr8tf94z/t1yUavgnmlR3+fFWjwy03uUy/RNj209xT0XnyyUY+I8AeFq1TM+DmzWPVerjmbV8jQOeFE+/eKOw5h4/f0T69bTN4HbTWd6Y+fMQRxM7zA87RgftvQh0PQdoe/wa1OtuVBpSNNi1iP01zZIV8X40wjbwtyrb6wOqStbugmIt2D5prWF7oKn6z1d55FgVFFKrhc+mXdhqbkox4GTzj1YnWtn68romMj7SHoa2e8PPA6jBYoW5ZAyMSljVHKCmIQitlh9CMRRq9OkYdO3rDdr2raj6VsSbp6mzm6iXB+xCSxZjqVhQFhvTBctxbggXXAWER1klpnkaML/8HDgn396w5/+yZd8+L/9S8JVS24D4v3c+5dLi+xEPySnsYKLP8hyJChyOrjT45Q2nLCg9cyzeIESLRyDgxrHcVJYLJX0fU/HJIhXBOdbPvrkFdd3G4YYeRoHdvcD3/5mz+1Vx+Z2xXCIlFxYrxpuNx0f3a0JjcNJmFFaJSaII433uC7gVy2uM8UdrvZ9K/JLz2PtZmScx7dCjvb1DDZuCOBcTHyfi4nuc0ykFFk5xa0auuCIWatYyZGl0MV8NMuqSe9mS/7kLscZXkyLgWCydTIYEmU3EvcD4+PIUx6JamH0qcbUxZhrzW+98xZTx63awPW6YbVu6EJLf93Q1Bo25lz5KdZTHsdsXYv673QKKRnXoxQz1GoxR0vrHamWaEMNOY2pVMeaPbS7XeJv2fH6k2v+h5cb0s2HpOBpc5wnnUsu4CQGW4Jk9CRLRU4Ms0tJxRxKu1jkkzBJZgTFYgeXk0TBZ/fB53hdwRR3YjveSdD4SSvazcX72nf84ie/4Bd/+hmlKL/73TtUlX7dcYiFr/7hDe/u94TGsW48n7+6oesc7cqcBOJtZ81DhDER+kBYd7jOH/GyJ5raqTchlc7f2J9dwLUNru0I/Rrfr3FNdxyCuICqVFGR4L31k83d6ABPEwIueNNqFEuiMg5eVeGVUkM3T19RQeuOXiBlJEbKYSTvBw67A4/jgf3BauaSYDgkdrtkLb2qtQ7e0XqhjJkmNISmZdV1bF70rG5WtJsO14QqI/AVg2Z421IHNTla7Z5rq1CoTm6TfdM1bu5mrL1jUyd/Ji04Vldf7xPffbflu+sr7r75DdK2dgmfP5BnJ7csddCy0EEvyqHjzn1h9Yl7Br0L7+MbyOnd85k4qa3BQc1cuZcTTfblrzvx1FpuP/iCP/urP+bXv/oWOWSyF/SQaFctu31k1Qda7/jsoys+frHi7sO17b6+wluK9YebvqXpW3xwdVroFmT92vutImUDnNsJUZq1fdBoJ4E0CXWDMTLUobq3KIqqYZaiiHcmoA+OIiaOEi/VOGtCKee87dA5VSpPmFlts3x0SoNVi1wjZSs3DpFxPzIeIsOYSCWjqbp2vKfpzG0tVROVkrLpoLl1rPqG6+uO1aqj26xwnQmCNCUDzheD1Uw97lKgRCUlW6xFq+g/l5lp7b29oevWcyiO1mXT2Vh+0UJxac77f/9myx9/9TU/++mr2j1wdV3IqbFVpgzw0yyf0/QHOU3B0lOh/5IYsez8hUu7qS7zqy+scieTq7nGurlUNQuTKD4vrgDnGhMT79z2t/zFP/9X/L/f/Jav//1XvP6HN7z88JrXb5+QIKzaDp8soMh7QVuBLtjXVyglEaBqosORvVeqk0Qmsr2bY9DUNyYNrX7UUgQh1UtUbaPVJFgnjlJSNQX4ud3kWyt51FX4IKZL1qwUH6GEajLNkC1Eye4Wk7DpSPqXmntSSqHEQh4ScYgMQ+QwmkpuWl8TICaEQOet05NVWa08XW/hpDerDesXV6RspUFJiZIzJSVy7eXntNBFx0KsnZU8LfjawUjRKEpjNdd2XtgP0cy6yyQHB13v+Nk68K/+2af8xZ//AR0R7Vewz7Or5RRJcBoxsbwEIgsdR/WzyhI7rEt13jHLYhrDhEsBxvJs5idnLTzL2OjmC+H0gX524V5Ok51Qry3Bd4Trl/zlX/wL/p8U2f2wxQVnGoBgl7Smd3TOc3vb0/StdSvqm+u2o3VZqoVJEJvp+AXNswbA20Xa46hdDgVirLXrgbQ/UFI0OWuKdjGLI0VTHblqtWi5ExvaxItjJnQWckpI4yoardSeqSzYz9W3OLm1czFoZUwWCj9m26FjJuqRydG2QggtqdjP0rZmtWq7QNs3dOsekYYhZSt9qqY6Dzag0WT65hyNKpqzMmYLAiqlUFKmxMIY7eKZk/K0L2TFSP/OG5Z3jryz16FvHX/6Zx/zv/7v/4a//PRjPtju2X7yczaPr+1s95YLc+4JPNFkcJ6IxUWWweTdPGY1Ls0s9v/DxUvcJTn0crCiFctaSw4tDvHpJBv00sVyFvM5wYeePmf+5Ms/4+t3r/mb//M/c/96y24faYPns8/v0CHzyfWazdoWs6vaZu8c0pu4X7yfpaBTSM80sABDDIiDHBOqW7tnZGunaUykw0AeIylZ6ZFSros7WWh8LTO05rK42T1+ahOy9NZ2jluYyfML27npr0vlOJt1qWSjfZbRFtNhn9gdEmNSo/PWNmXjA74zDrU6aJpM3wXariGsbzkcRnPMlBbvhNA05HEkBBNSZQUtiVRposOQiEUNX5xzvezZECUOhcNoyr2x5qogENqAVi9nrhWFF1h7x6eilL7l/rNfcr17QIO1SiWn5yiCmct3lpNyEsnGYlIoi8zI0xrjvEsXLoo19HJExUnOeCUnTYw7ikAoZxzTC9X5FPzuvPV2veM3/+HvGFPmsy9ecnu/5/sfnvjqqx/4/OU1n9xtCF2odZpRlPAYY+7oIahdi4njVnAFVNLk4rTaP+U5yLLUUqSkRI6JGCMpxsr5yOSUrCvQNkdGTCV7ynQsyhH06JzVz9PwZrlrIPXvnU1RtSg6HoVHJSk5mk3qcIgcDpkhZlzjWW0aujbQtJ7QNvZgBSE0iRBWuKZFVWjbHi8d+ELRbIOntkVzpkQrOos6QvaklMyLmFOFzlQFoINccWcxmgM9qxqJtWoymsbPigpVaBBefnbH4arjbvUS53vEb1Hn57uHRQrkI51/WVCfZtfPE79p/H1aey8Z0hfuauewxhN/i56wPU6+8TwprGDGY1bhCT/yMoVdTgly929/y2E70HuPFPj08xe8e9xxf7+j+eCal69WuHVjvWcn1TIlqPO4s+6B5oreqTxjzSbwKWmyTTmKFzIeDUZ4zLrnsB9IyXx4pEwZk31eLjCCdIWwDsaWcJz2cysHxDs3i9hPUsGlDhaCMT60gMuTF5C6oDNpzIy1dh5jrmQDT+cCfWho+wbxZkyVKvSSfsV4iLRtw+rqI3AN6gby8GSKvZRq3JvpaLQGEZmZ14RlaSzzopnioEu21y/VZnMuJjUwfXowtrSAz8pt47h+HLi5vqVZuOfxDg0BdaPljZ90NvR0ER9n2ovp4XO87vwXRZ+VyNNOHZ5FdZ4kqL7fieVESUVoQkaLs2hqddVPx4/2TahRZrmMlO0jh3d7PMJuN1gP9pDwwXF11dCuG7T1M5pA3LFXZLnfzPw8u5wlqN46XfQoi7fzMTtPaToT9g/C/iHxbh9JYzRQS7IFJiVXI6rZ/bsqsZTioA5ZXJ2CTUFD1Isic9ah1FiIBue76lFMZBePp17RudSJMTPGXOtkT+8dbd8QulAjHSqarPF4CfjrF6xfrJBVD11jmu/kKuN8b+3GDLlkYrQuxpiUISmHURkTDEOmZAMwTiVALrY5xAwxl9rd1RqFUei9sAI+uev46NWadt2y+/Yt+fbT6QA2tWHJpuNIiyW0qJmnwPk5/viik5tj7aznkEaBkwz5CXiuz3Fg+jzz8HmE8oKeZClYS2zYJUoIzyif+8OOttj28PC45+3bLZtNR5sD15u2aq5r47NG/MqEsi0TE466IylpO1CGYlLnYPqMIRZUPFkz47jn/vEHHp72PD4NvHu7Nb6HWDxcuw70raNthNBA64RWnQ1dcoZ1i3e2qJwLeO+R4JBg4EV1U1Xla4qWMTckrFAXkJwQ2dsbUF0pJSVSzqRioiicI/hA07bW526tHi0iZnxoO1zo6F69pLgW7deUbED5nAt5VPavR9J+oIyR3f0T+90BFyBGc3YPY7bTIFmsWxzAe+tNi8IhFlI61nNTp0URXl619Cnzr3//A37yr39O/9//OR/ffoFcf4Q404y7kihNh98fTG9zzmc+66qdtA70NLCq6oLPBHQyF9myiFEOi2jUUxb04iHRC9PKrELna11Wc0PkZB6niwiu99xaXcOHrz7lp3/wKYftyHcUrsuKkhXv4HbT065tfDqRQWdj4ITFUkGztc2GdwfiNjMMhZSFnBK7mBiS8uZhx3Y/8t3bRx52B97sBlLjGQ8ZUoSUeXG14nq94nbdcbtpWG9a1quGVetpnRAJFArOK02D9YR9sAcnuGqQLZPyvTLyjI+Hb5GwAt3OSAKmll3OxJLYlcSeQhGhbQKhD9BUf2LwuGBDIGk6VutbQg6k7El5JD8NPHz3lse3T3zz9Wv+89//lhgjGjM5W6R0SkIbAo2HzleTcR2cBFeVec4QFYdUOKSyWGf2+jfec7VuYTsQPr/j11+85C9uXtJev6D0ayRt7aRqWpMcUDHDskAUnAR1X2hruMVEcDFlVHS+LD7rYR/10KcRFMvd+ZmXcfGNnUAqQvCTyL/GJLt09uTJZUgIhttquys21yv8KkAnXNGzfdzjvKf1gdXVqo6xj0eTZfwVi2pQg6OXURm2iR++2fGwHfnu/kAqsMtKv+r44IMb/KbhYdzy9Q8PVop1V+yHRKDwsot4LSSFxySkg/JUEn4nbLrA3e2KMpobuu+th414xDemKpuZemmGe5/EX1Bql8MDfta8aDHYZM7KLmeGrHjnofO4NuAaZ0x0F2DVo75Hup6kjsM3D2y3Aw8Pe+4fdtz/8MjvfviO7+/v+frNnjf7zKZxfNgaTTRrB92GQ1a+fvfAcIi0wfx+qyZwu265WnuqwNncL8Eu4WOy984SZR1ctXxxs2b72cf88d0XHPpNvVQ6nJra0MWIhqYaId9DKT8bmkyjbz1PluUMt1v0RDY6azkuXdqe7c66jDk7FeTJzOZgweZIF3ocp5dGJw4NDZv1S/70j/+Q3zze88137/juzT15n7i56ll3oR5zumBU67yzUQVGeCGWwjAq//j6kW9+2HEYIiqOVy+v+G//8pe8+vxjfOf43a9/jYyPvD0MbDUjVy2SAi9az8sm8fLjaz78/Cd89MkHfPPta/7+77/h3ePeSPevHH3bkNSZ5cy3SNvh2qbWhNm8hqKLSOW61aRok0hNR7TXYnyVa0ehCLSNIzTWzRBfJ34iKB4NgXGX+f777/n2m3uetpEvv3zBH//RFzgX+Ov/8J/If/tIzC0Hb/eIfq3ctoq6hg8/+xDfNvzmNy2/+uo7dkNEpLDbZ4oWkmsJYo7vvnNsNvbgPR5MT9KGwOZ2w5BGtHF8ePsKSsaHhlDSvAGGpFZyPD3Vi9zp9HmxzS5223KinNP3rqCz+93iD2HZ2ZCz3flk1Li4S07ipNbZyNTm5x4WsW4XyvLjCLS2UJxvCf01n/30z/nvdk+8/ttvCVn57jf3pmZLGZ2cDhUcLJrNdV0vBVJDgyV47u8HRBx3fUtY96xXHR98fMtHH9zy4Ref41eBzWZN5x3/7v/+d7zbDawkkLqGl63wYR+5XcGXn7/ks1/+kp/83k/5+Pa/8jd/949styMxWZyZlEDoNvira9xqBY2HPKJ5NNAMuf68FvgjJYNGiNuKPsjLGw6ugiJ1Yu+5KddFZ9wv3i576d2ed18/8ZvfvSMn+Iu/+Cl/+Ff/gtXNK0NuDTtef/c1MY3ssiN6z4tV5qOVIcNevejYvHrJqhcYBr59s2WfEyllXj8dGEpm3XlWvee6DQRvPfciysPW3tDVuqWsO/ovX+FD4O16w433FAohj6R2RZanOex0UlvqPO4+O6m1zAtdtVxcvRMLb27PLsn9egxxCkuNqZ4Xysfy6YJn8MjwKMXhXKqkzHTyybqk2Z84YmzO75qOdnXDL3/yJ/wv//K3/Mft/8df3x+Q4Lm7W9mbLItJUpm6LI5c/2kmQxZW1z0fJmg+8jaMwdgeh3cP5HFHu7rj5u4Fr25f8Se//D3evXvHmK0f3DWJ1itNt2bTr+hbs3r99Kcf4f2O777ZUhJ2cRMIV9eEzTV01v7TEcjjnM0ic35hRnOsm0KsCreh5gwyu8KDtwG7r10TlYodmDIOUyYfdmzfDXz3m3f0xfPTLz/kZz/7nM3NC9rrO7R4vvjDP+LLv/0b0rgjuAxB+Wzjue4bSrfhg4/WXH9yiy+J/MUOp8o+F7Yp8rA/oF4Iq4ZuFVivPT5ni74GtjUeue08m//mc77/7BV/tn6FTn32bHjhEEe07fBvvze5QdqfCvQXu+psxdLl+6snGfWUJfdksWXqku4/0QHPnW/P4f3PrCs6IXVVaGfB1BSc4577CpctEplE3qaAc75Bm8zV1Qv+9MsX5C/vePOwJ0nL3dXKNHIT+5ZiE7oiqK/Q9Vi5cEm5/mBDe9XOxgPvjfLZvejYv31NjnsUR9is+OKf/SGfjyPjfs+w3bEdBsYU6dtALHvuv/oVcb9nrwf2w8DmtqFtW3zbIqIc4g6v17VrUU/LkhcTLT26mYs5oFVctVeNpsCbSPve4oaDk5NRLhNxv4CmkeGpkB8SH9+subu54stffMrVzRXBNXi1i+fV3Sd8/sXnPPzwmpvVFgJsek/b9tx99gUf//wLoCNf7dldrfnZB9e8yZltHrnOHbFYOmcuBcmFvrGTNRczN5QCrhQ+e3ENVxv06o42tIDDFSWGjn72TJqbSEWQOtSaN8iqmVkuaC3LRbr4++lXYQZePsvzmbocein96jx+dpkbctaQy0XwIaPF40J8D1RanvGjT3b5qm9w/YZPP1rz8VcdX71LrFfdkaWstXtQ9RlSR3cVxYiEgnfQt3Xgotmg3y6QyshTesS9e0L7Dne1ofvgM0IR0rsf2N+/RR93lN2Okczbd/e8ST+YY7xmHLaNZ7XuzJfnAsVlch7wYYUmIB2q4bXMXiuVcuTRVWaGllRDOvOxv1pL6SZ4nEsVLF4neFnxnSMXpWscm4/WdO2Gfr0i9cJudyC//o6mN3VgpnB9c8uXX/6U/e6BsQaf4htc0zBut+TxkfTwjispyIsVMUbiaFWR7E0k1XtonGWxmDdCaELkUMGP+19/z5/9T/+WEFobKBUh07Aad0S/oU1bUrfBPT1ZPVwd7aqmwZ4uxHPwKLX1qmfdiVpOaDaeSDGur80gnJyCl5x7T06hPB9/L7seU9fMuZrzrXV8ONM45TQP46yLctLcruPOctgSf/M1DuWj646v3g50NfPaTczCOZF1WgiChCp1DK4S6GXeCaZwW3EFcROe1sCKafcOfAMN+OAJfaAtgSEpQ7TMGK1Wr8Y5+nVHv+5oQoPvGtyqqXFqtnvKuEc0zeHzU6Tw5OgRmTIQbVo36Xxn+W91w+RCFRLVJIBi7AzfBNpVQ7ta4VYrXLdi8A10yj494J62DPuBXAYOJNafvqSL1wxPOw7jSE6RpzePjA8HUswctgNjjLzbjwxjZBxHCsqqs55xK0rfOFO/OlM1eA9DzOz3A/puYJsSm2wdEZetw1GKp5TA4K9ZDfck3xOGt6ZGTNEGSakc9TTzlLfmNpbjGpk36brwc7TPK9mGKc7JQudkr2V47xVSLimjjy1E08QKrTf+sfdxIRgtp0/O+SgTeRZ+WLbv+I9//Ws2HVy1gRdr4eq6r5ago7tXpoU8TZucI7Q6OZ/mC6MsIsvEK0IyCGPJMOyq6bpO+lYeFwu+FYKYZUiTzBFr3puQv+kawqo3tkWVrJYSkXQAjYYBkyMBd0k9nas2LxadsdSn1zejC57grcMw9adzzjTF060DzarHrRoj8zegbWB0iuSIpoE87hhzQl3EB9OJ+KA0qYYa5cRuGEmpkJOSNaFE9uOekJR1K/SN2dsEJQRnUcuYknDTe97dG5VpFxre/PZ3fPHil6A9EejHzCgrOn0w7IPWLlTx6H5nMtWYbNwfM5pLvf9Y+ZFivpBZyDyAUlXikGzxizz3UgkE/SexMmd8sUWPeepFtzUeWSQeJ4WLXf5kUz6NXZ2vokmV1w87Hp3y8qrl5x/dEMIxOsAtCEx2KwxWT9fLpvN1RFuc2YfUVbv9NH2qovt6dGkuFISsQo4RTRFXCr5kYyw7U/U5oG0DTdfj6vHq24D39v01HtDxiaB5JkkJNro+3vKXDLYp7WoSNU2GX9MWeydmt6oquJwSJfkZYFhSRrNDGe2xDQGiTUlLHCEly4bMCckR0YSj4F2u16ZstrASGXIkaaZB6bz1nDcrX0+2CoWs8luXhW4VuL0qbK567j64ollfM8TIyoFmx0hDiJGdvmC1+4bR3dDuf7DhznYkDZHxMJKj6WtyratTVg5jwZVcOXiVGLvoXadq/9oforFA5nCrI0/GuQt9aD33Fy5jlqehSm1OzYAaOdVDv89ivgRVIyxiysCHwLrx7OKW7u6aDw4gfahyzLrTUgcTc6zDMubYWW2mrpoNHC6rtckqgdTG49l2iOrcyPWFTdnko1osJSp4T3CBEDxtE/B9g2ss9iE0Lf7qBs0JjQecWviliNYybJHjwtTxKFUyqQv9gf23d2J0Im+WM3wdsmkhDtEYJWPENWYN0xDqrhnJ+x1ptzflm1SHSoqUnEwxWFnUriK3pIqhxhhJMaExcdt6msYRWke3Cjgn5GKaklQKMVloZ1Elp4KOGXfX069ukOwoo5kEYnFm3E0OH82BlEuPvPuOvE9s3zyQkyHfUiqVOajVOGR6bVU95t4AjXe18aHsDuavPMRcS0/h3BIbLipG5/kJqlH/AAAgAElEQVT4cVEuQ2pUbNZlFP9MyVZyoIu+2iLDWt8zHZIqUhIFt7rh019+xAtNbElsVg7fh6NWZIn5lSUHegLOeMRPFYwzJ7eKHXcp2Rtc5ZIpT7LSjJSCV6VVoXUe9R5tmmqncgQXkM7hVy1+1eHb1vrL23tKPOAplnUuMueOzBHCiwvf1ODXpYdOnOlAGqufXRDa3mFYDzthNGe7tA2j5XRLZYhgqj0rus0oUPKApkiOY71QZjQZAFOyLWqXC00ykX/Teq47b3Wyt7uEa8wlEqMFq5S5aSdTjCNNEV68+IBvv/0Nn9z8jJwOiHa4mNhnR/e0J5eG7mmH343kt1t2bx/YbQ+8fTgwxsJhSMQayacVvj6xK6cpYRucASLr5W97SBxiYUjmtKE6Zo4NZH3PDq0/rrQ7MRaoGG62eCTEukvHs1DF56TJZ/fQpuPF9Qo5PHC7XtHK6piQOiVNTf3rObtZa7JTVbX5SWsdKnS8Q2ggJ8PhDhEdIlEOpBjJznZqQzxXEE0b0CbMl07nBN82uK7BNa7W8xFNCafZAonEQtrnECJf3wQfTmKZ5yi4KjUVP00Cq1baC03nKV6rhFtrSVIoeaQMVVbt7aRw1aAb+sa6ASmTYs2JSfFYZ4qQMWmnB0rr2awbcMXAp17mgCZ1thNrsQi6VHIFNNrL3a48ZEUfIx//4c8ZhwOuNGgc0aS4nIkxEV6/5jAU3O++JW4L775/5Gk38sPDwJAyu6EwxEVXQ07Z1xM9zJIdjuFE28FOjn3MpxfCpcBf32OY+jE3S42UJBVH4/MJG8EWXV4IW98Drplg34A0PdebNdt375Abx9XNhuTdMf9Ej5ERy915TiKszA+k1pW+Q0ILrsNJU0mg4PYH3LAnpIjurQ4tmkz0HxwlLMqYUocfTaipX4qoTQPVmXA9VAnplBjgROsCnXY0d9pTFWeGRpEa1FOFyJWl3HQedeZeKSqGbnB2cSo5QrRAJB89zq+tNekb242d4CUTfEfJoVKYkv2q5ZVppKuhubYYFUilOmiK5a6XLPgEWgyp69LUWbBLa3z7RDlkDnIwoPthtG7TfkDGEff2LfL0wPD1O9598x37/cC3bx5nn2KuQZ7T6e8WbePp5XIi7H2ZL31TK3OoJ8xxMHOUXoTLqIIfibvXqf0kZKBxBm1sQrLgIA4XoQeynK9cuIGKb2m9J3rHzeoKugmjZchcg8HMMI05bFKczFgwQe04Foc0jZUevu6UfoU0G9hAiBE3PJhh1G6IdoHKGSmp9o3znH4l4vCSrVMyM6DCHHchc0RcjTZ2NWbipMavKN6cJ8zdMYjIVVNLI4TkGKPlh9vAxR6OVIoZ0nOEJBDN8ODavsa22ejZSyAkIHhKSWjxaPZoMViNxtpSdcfFbAwST4rJdERjQoNnLIlQA5hKVgNXFtiPia//4Rvy7/+WfJN5xOH2o3G1i8LbN+jTjvI3v2J8OPD6+0d2w8jTfnGhK4rqBVbGIhVWxDTZSyl1OZ8wnt37wo81N54H15+yJeYOyTwWL6a4k3i2M+tCOng2Paw3fnGe5uqGVf+GlDOeqoVYbu7Ozf68KZPKVcG/cwt4nCjkA+K6+vMF0P0CZAba1JtXGZDswDV2oYvYFE/yIqY746SckHtsvO1mO9Z07Ilb0H3m3JVZAVM/IB/LphpPoQspzoS9C2J+RhFHibF2b8zEUIa9LXYB33Soc/jWxPR4Z0YHWouIU6EkS4qlsTbYMpu9lILPgnOGNZic6E3xjLEQ5vBOJefCmOD7N4/It9/y+PaBIA0CvMgNkgrucUt3/4Cu1nz/D79lj+PdbphH2JzTly8t6kmHzfkdbBL2y4WJ4aSHllPM+SXxtZ55wgvMbI4Wa9uIv+AZP2HxLs6VE/F1dU73DaWxYxZNFOltYeNwvi78+kq4RUCQm8bi4muZYPWksa4CpAFcj457cG3NWKk1WIlojmhJdRybcSXOgvJ553XY158jaI8djFlsKHUKhDvJdrRLrcxyR5ElZKWmYk2LunKjg4MuHFFrIXjaOQ/UgJA67uuJUHA0tYypLT5nN2TnPCUVc9WUbK1NOara1BWc2pDeyaQ7d5TqVm+KQwah8Y6U0ryoD4fIm2++h8bj1REK/FBgs4/4IZJ/+5r0tGX47s3s5Zz8gM9wiedDPI6UrSMDWhaeVL08CxSqY6Ve7uS9zWg52ZWP+Rg6Bwc5V4ygFMba2DvrdvyIF3dKzpS7j/HN31FIOFpEy8yjwPn6NWUmnUqNBpN5R6zPR54ys2tPFkEZF1dMb6NYTFtNyTaSrYtJ1DTN9r3CHOY55xU6t0zpsJ9zrqfcMXa3tuZOThnRxaKeHsxjKylPwxyzIdpU0UFwYl0I7/B+qucLkiMumYFSfIP6Yj+zd/aQiuDUoaLWxpxwtq7MWnWt7nak0DSulpCBGEf8lIDlbaeMUSt5IfN4/44SrJxpU6ItzvJYfniEQyS/fbTTJ5eLc7tZ8zYDznkeIjgJ2+DHionjpVB10ZI5mxDqAgN7XmrYwSm06BHdOzHu/MgzPSpnxBnVE3OjuIbSriohVCipVNE8dddbZCQu0FHO+RkrcNJNydMkJ1E0o2U/awgsi6cutSk3WhZlwwQvcb5uyNVmJaE6uo+tpFljMuV6U+OVF+hYuz+UZ5QIWQZ/1pMrp8RhyKxWwdCOzka/Lnhc4w0cKXXUL1VuWXXIdkCEeumsDMBSoHXkseCoBgw1DLFU2LoBd+ogw5uzPosjeM9eM6FxRzhjqp2IMTEediSx12BQ5XqobcLDATkkJCWL/TjbnS9trfq+foTqqRF2MUg5yTGsv4fz5XrikJFTzt0RFnM8FHINELLxd7kYDPPMW3hi/HUoBgOUpsW1HYlCTlP4zsTLO4bGT6DAeYDh3NFbhvUzbUcpx9uEZrSkOno1CKPWGs03vgZ2ujnrW9zkQpm6GMHKFwmLF9VaeEetel6cXBw7CSdDKOu94+TkUuucnASaxmTpW0079Z4r+bPCXnxdePZz1odCa+BnduBihVbW17v3lgRW3JEuVS1S84PhoKSEFzEDxaS1KRa6mcayOPWVmBPZ2SvR5cIBpdmPHETpD8l2fdLlRlf90bjIcDnPULsQL/i8gp7adkubFCeiaRGZLyvCZaOsmwvIOv7GCJ6ThPQEaaD6bAp5rDMdbD6gu7lB909kKcensCyqeb/wuHl/NssXkHCcvFc9hNQsPjOseiMiaUQk1B62VGayzsyRIy20LmTfWQ3t2xq6OZr7JFeugWkb6z+tHGf2sgit1CNwxok3FG71HnoxiKKv+YMpFdCE14Zu7WjCUfxvWpL6e/CLi6qc4FUnEtpMja2vly45AXPTt1ohnZl3HYYKo2LKSirWn9aj36QUpQ5umeeftXWRA8g2H/NTzo3Veiny5PQkPs/+ftZIvjC0C/o+FPSz1kjtdkzwG1GyTgJ/wYfn8QKcmWaXw8cToXatoemuzAkybIliYURlASYRSeYAcVN/t/r6ZNlZmGCNtU1WLxFOvUEPg9QdydtOOpUsc5LW0QsoYlxpcS3iO5xfgW/tJ842aayCjiOrbkrPnSQAlTs9XxSnf4uTGYPgnTcBlHc03iPFwjNVA6vg8NLUAY6FhLp6KnlvJcjUf6eeMlOsg9akWWsmHWGa4iaU7cSOM26JJo7JW2rfb0KfHA7ZkmWzGnd7ah7XNRAF+pRJQWif8rFVc7auTqUUR2ru6axDTgPs5TRRYrnBnu7eijuvavSsua3PAF+nvyV1OKkXQldmPcdpd0ROqo1nOVtzInuAuw9qFJjBZCxPeyolZHmYWJly/jDWndJO+2qFqmgAY2g0+Ka1331TyxY3RxTLmT4AceBbXHMF3TU06+MYa2rBVbWYViK/zFre+obJccI5lRkTs85iiN1xwVYrUUmF7UNk2CfSaDnak7PeOXPiGOi8wded2jQhjhB8/btQv67ixYKe5iGQd9XiZXeIUl/PVA2tJRvRKc27s4FnfL0cTpRSXWRTRe8IsZAbQcaMBmfI4Pdc4EQvQ4hOcV3Pa+sT/LMcO2uCHCeFlxR3eiHsbU5S4NhC06nkKA4J4xHj9F7ywnklXssb8ZQKKmdIcHX0m+m0i5z8g6T2qn3dxXVOEZhdLqXUh6IwozMnk27RozFz+cK5RaSzWDdF1WSaMEIerXtSIjObdqKLVsGDzDt9TQOYbFnTrV6ONbr3gqt0/CY4AhauuRsy110gdxltC7TW8/ZOCD7Ybh3shFHH3MWRmpirJeMk2Nh8uigvZAPihJLrTp2rnDMbWMcuqBkv1LB740ZrzSY8ZgraHceXRVk5LbxYZvbtRRefHO9rcuIhkeflxplY7j1NuNOSQ98jI1Uu54EnpqxChydeZNkdK6jLTbuTnVwEdYHiBMbEuDvg+4CbLlYL8IjW+kkrGkq8nIbTaYUjThQjNVK+Oig51QFIZfLpyUjDuhi1lNGc0FSHMnmwU0ITWkarw0ta2KkqGo2lLb5eMg0nZA6Ywhy7ZsZYT/COJnja4Okaj2RlHAr39wONN7c5bUE6+3jTcQRc08zirdprnE8olWB3BwJSom0IxRZZqRdiY9xZJ6JUBmCqE9Si1afnhBiLdd1rsm3TBUbUgJaqFAftmEjB0b8b7dKLXuzqnNfQnI8q9DmeSBZt6PNFvayvw3kDQp9t1XK2wx4XoJtbbooWDyFWXXR+tjOf3mbPp4/WNlLn0P4G110h+S3paW/HvCz6p3X3kdlLJgsG8fHrU3dGN+1cU/q7at2gjvzoycM260amv8vZRrmVzDTdhoosxTT5CEWfchNFjiWMC9WQUIGHWlBytWTVEsc7W9TB0zZTLS3klPnh3YAT4arvWG96gnh801ipEirkxrn61XV2w2vJ0yFjEElfzCdYXzfXeEuere3Zko+qN1vUtoPnbCdUSso4HAvgtvHsqUrJ6VdRQlZKEMKuoF5wlS99vriPcMb3+q9/VNB2kcc1aznObpecaaDlZLByXNYmThJar2ePnlzc1/XC9HHewaeuQndNg0G6SQV9eW2L1tU3ah6FLjoIbhLa1GNd3MKx4uolbJo+F+t151h71ceyQ6u7RGtcsJZp54s4Dva9nUO9dT5kCs7UPEsrp+GLTQ0tkmFOn51E4QzVoOBrtLPVtL6x+rdvvFHzDwWlsN4nHrcHXgwbJNnl04k9BM4b6nfqzshk0i2GElYx8dVEn2KRyKqIkf2r1asgRkLNFX5TL5RPe9N0lLIgD0XF50IMjoLQpUxsPevH8cS4YcKyctKqdZciSy6VIu9zBF5K3z7qoS/DPM55dvPEWpYuE+i8iZN8iFZDu3g2RBf4J6Y8xzahQ/trCC3BwT5nihz5dW5q0zg5hYbgjkY+WSxkWcD95MilJEfjfagzwMhUz894sVqe1B0667QEHLQtND14E+xLTbYSVwfhc8dkWsjNnDMiWCCRvcF5FjUVZx/i66LuOytBnMB+NIH9YSgMMdrgImvdob1F1zk5ZceVbPVxsjG5m0sRTyrm+dSZbXLsm+Vc6u+204+xcKgk/1jrZ53mXArFSbXj2fvRxEJqPattsgvhIT/bEGVZNsiF/e9C+Ot57XwSPnvm4Q56kdm/LCuPRYYsXSeL3vI09jY99DKr8H3Q6Qu19FQTuwbxHe2Hd5TtoV6o8gL5WgXnE7NYasTYPIp2i0ldvZS559RgizDT2i+X2TlhCbNHdwsx1xoTCAFHZZBkreivAsHPXYu53HCThM74dtMEFDe1kGIN8amgGW965RAcofG0redm3RB8YcjwuB9587Tn5Ue38wLCNwtlH0fRkwiUhAuWWV6mMCetyN+U5/YcuJq/MoEj7TWMo62SMRUy8HTIxHIcDiFYLk7dgbM/nahJLmgQZDjvsckpAea85DjhRctifSwX9TE//rzgDvyTuDE9c2xPxiHBU2qI/entUU+KEn7EtXihj9J0lLa1TMJ1Xxent5bgBJWUJcjGBDg1taeOsRctt8mH6FsrGXKsl6cMJdYXrZJAc7ZaOVleYInJ6P45g7OIDJmcLpW0OpUMUmHn4sJRjSeu9rLNcGDqvkkAPIDYhFLnaaGrpYeRi17edfRDbZg6R4qF7WFgndd2gqiJD5hFUX5uIeI8ThUNttt6bAooJ+rIehohdiFU+5iSCjkWhlggw/ZpcpcwU53UC6W+0NkJXVJi57i6N4SuK2c95jlk87g7Oz3Fzp0Ev6pcbNWdtiX0gjjpvM7VC9KL06qoPilm83doZXNMgUHxRGzDsxhE+RGFibW3snpyHWyoy1DEJJremYtkYbaV6aR1i3AgrQIdLeBa4zL7DgiIDsbGYDi6NCx0ZM7X1jFS9qO5WrIBHNu+wTUr6+9KqWTRaTTuqyk21N3SV5xu7aNLgLCxP+faEXENWmvro8hqno/Q9IHNVUNo7V/qvXCImcenPf2q5dWmN52ET1VW29jkEpmTvOxeUbs9Yoq7ksdTsqdaSadyrJFTNLFQHDMpZsZoPOlSHdgi8HTXGLXCyTHcCyF2nvA0ol6QsaIgip4szKlseXbb0uf65ZP9XE6lopc6aEHPZRYXqKPP5aS2qHLBuBgL5L91HfRCt+R8MV9uvIg43Bd/gt++QQ/3R4B2HSWrHPOhZfIs1h6wzCzW+mY6E/mrs/Qr66R0wGQePUJgNBXKmCjR3MlpHIhjIiuE0OJ9S+hX5swOUhMFqpbCBzMjOOvUyFTTzxPMKe+7RyTXaOaDPbCLmn+eq3rBeWG1amhaM/P6IIxJedwOrNd72odHrhtD7GpTXe2TNHSpvS7OlHVJT07X+b0UrD2nSiz28EbVubx4qsbUYSj2ilXLWQpCrsh/X4cqq0OaNSrT8Gmi98ticCyXUh30wma3mCZe8r1ORNKl+iOocJmFcCEfjkWBX1RopJCK0HmlFG9G2fc0ry/Q806lKLMb3CP9rT17JeOigrOAoIkHUgwNcfaNbFe23dnVB6Ae+ZOOWdX6sZTjOLTmbFt0RSSNiRQTY7HaUZ3gm4auvyI0gTBxoeuCZhYuLbAFk1t2vklPB+FoHx88OlSxFUdD8hLz5kK1ZIWjqRZXiEPm4WGP956+73FNiw+pljoLwLJMCbaV/FmTW8VVHFktN7Qil6cLYcrWkYixzDHM20Oe+c5SN5UytywqOV8LqXFs7jO59/h9utxqm/NpTmtnmSa/s3may22O92yzU1Ud0PeaBk4iV8750DJHLpjizkuGic1x9tPq+zTQ5+KlSV/se/zdR/jxyVgaR2svE8zghOZ00oWxtpSIXwBvyrx4hYSW5YNXEVUpUUqmkCmiBkysmRbOB3zfEoKYhLO6XUTkeOkTtxgAuMVzVmyyOCnz/AopA+iAaqzHf42VKubhm9R+TWt68KUUQXJhez+y7iLb+x3dZoOGjPqMhPYIXaeWN1P/XWzMnkuu6QFWlpQSbYcux170ONol/HDIpKTsh6rbmb0NtXdez2utmu6J9e5jgcYhY579oJd6yMsEZHlPOTpPLOTsfX4mP62hgfrjS38xzZTTsWZt27klKXKC6s0hkz/+ZMnMjJRFb9ps+u7Vz2lDU9NfF/qSKfB9Kd6b9QL5WHtVQZCWmr2dI6R9BSWmeSFT0Vslp8qcFrwPhKah9Q1eHE6rtLMaWcX7hR3MPWtt2ji8IgZKgjQgcY/ELW64h8MbW+SlDmWKtQlRQVNlXyy6Sa5yOyxMKjMeRr7+3T27pz27Nw/2MI6jPajTs7vUUIiblX7HtVUViNVNDVLTsOzPYyykrLx9iGeTjFpSzPIAsaxwL3RDJrf++PELwM4y23DJIpIL1QFL9viFZS7n1tTZ5DGTk54TGqeducyz9NMaZCKQRhW6ijFwIVZ9Zz7KGp6ZFOU9i/vIpFNArz9BfIurSU5aMrpwUB/jL+pYeYoPU9udLF/bG+lfR9spSqbUMbVq1S5PLbp6oXShZqMURyFSDmmmHbHkEZfqpinJIIeuAm5mDfSi/HCx1tGpLvJYYzBMAC9jQSKUnYEQ06Am2cxqoZdhjiwl5cLD/cAhHWjX1rbr7q7xIaAxIw0nRggWbkWt8tBUo5nnMmcae2shRpMFxFgYBhuclTncRypQZ3HRWug/Y+fptyOldTTbeFJDnw9UZj30Qkknz/ysvNcUoBe83MIy6v0CkPF5iaBzkV5O2aSmsCuuulWqBUuXs8WzeaWcDsb1XEHoA/ryJ8i3f1uTBJSzVF3rdlR9BlVERAZ8XVAl1ZDLUj/XvHi2O9fINxJFCsUJzje1axGgOLJ4cjoQcybGA34AobXEr/+fsTeJtWTLzvO+3UTEOec22efrX1WxiuUiVRK7MmlLlCDBVmdDomUYHsgT2rAgeGLA8NQDjTzw2AYMzzw17JEbyRIIyIIgSzJFlsRikSqyql6ffd7uNBGxm+XB2hEnTnPzvffwkMiX996895wde6+91v9/f07Qaza2ZLTNaB2mqpCqMJ5LG0538jyq2IZ8RAk9uQ/kNhPXkbhK9NeRbh1pu1LHiyA1+NohWdFr6z7TtYknT264f/eUbtMxW6j/cpTXUtgaw+tQlICSM9YYElm9xCVBNseMRKWdxl4JoVfLQAh5lLsMKj1vNZVsKEOyMcxjwkzuSLl22EnJIWZXYLRvxbJ7PkMjbxp9m1uhMX4nVUj2PKzm+Ehk+AYihrnNpGzxXibzShk1ubt46b3xzg74jklygOqc5ewh8uRHBdiiH6BDFL1xk5T+qZuzCveNddomcnqRynYyTcqpeNzCKCgaJmbWeVxdKx7WesiQygWqbXva1QonEbNypDYSNj2rVyte36xoU6BqPHcfnnF2dkrTzPHzGjevFVrjdTsyRk+EweRKSKQ2Etcd3VXP6nXL1XXPxVXLsguseyU81bXj5LzCOQibxPV1R9tquNDLF0sefxDwmxbbNBPTrhKVBm2zItCkBCypsm7wUOYoWNFTwWToO23VbVq9GEqRvFK6HNK4QnIt8yYRgrfcuUokb/HreLAKh+Vg5VA6at5oNn2zxO1wQd/SJZbdgKE9XvRYhRGyoR6Cg3zBGOxlFW6/zjT27YgES7a3VWMs3HlPW0TDCykFbyPa1cjTJlQupH/1XyHSa6i9QC4uFpmYYSUnco76gFiLr2qqqsHMTssWk7Q/nDMpReKmI2CIIdHdtKxer3h6seTpekNrHaEPPHp5yXkz5+3H59x/dJfZ+QnupMHWapOyg5OkZG/nLsA60F133Fy0vHy54cXFhmeXLU+uWi7bniTCnXnF43sNZyeOdR9ZbSLLdeTkpKZd9fSrlsWDu+SUyoNdXsss5KRa6oGFMcTJ6UJOxY6mrUEMhF6zwq9vgmqdhzZclKFhwuqOJVm2i3rAG5cw0VwZqlUx3qY0zUPbWcXmNgvWPuhzmmP4JVKKN8MaJ4t5H4S+G4K8J06Sw56MkSOV/1CPIpO0qG0z3dYL4uk5eX2lTIlhRJ6HUXyeCJxyoS9LqaptkYl6rekHf2FKkOLkEih4W1H5GntyB1MtyqJrS+dCmOVEbzeEKNg2s77acLPsEedomkbztGcVV32kyz3upic0G+41FfPG48l4KwhKMCKhtNB1INz03FzprvzFyzUfv1rxxy+WfHHdctPpZO+tuxXJCYGanDNBhK5N3Fy11PYe7fV6knmYiq5EI6J1FSqLOSdNEjBZtprnlIv8Qy+mKQhdq+KkTa8LXazshJklb0bMmCAkY5iHRFs76lXYa1mWLsek9NjVPt+CNNgpmG+DlR9+vJcjUosDs+JedTBsrFEMc5tIYnE2KN9uR5xk9kgGsjNgkQnPYrgQ7kQsG0t+/0+Rf/Bb2Loq9dREJmm2wHQz2PFFp2Km7BjkLYBd+W/aEcii9WRlK6pqhl2cY+anSldKFgnXGFYYaajkBGMtqUvkbPCLGXMcOSVmBsSri7DPCoI0TYVZzOhdjcueHCI5R1yKWyF9EPp1ZHPZcn2x4dmrNR+/WvPbn1zwZNnSBSGWqdyitaz7zLpX7ELO0MwN85nFSma+8MT1Ctu40cuYyymjlYdVvG4u+d6puFCy1tGSdDePre7m61bYBE2czQwDyC3aTIquS8ww2IK+spzd9KTaUq96cmVxXTq4f9mhBSeyc1G8fdYmW628HCLp9j99Oymc+LhEjttgzC5Xb4x9MwiSrHY5Sqzb7UWR2QGhy1ROaqbVUlFw3fsa/mu/iLz6CTmsx1GtHdJrpwHnbLsgmYTJlqk8VqLiY1NUD6B3Fa6eY5q5lhrVKVLNMN6CrCF7TKV8EGcspopk65gZwc8TdQiIEaoH52RjFFg49DgWJ7jTc5I30Au5bZG+I/WR3PWkKLQ3PdevOp6/WPLjL274wReXvFp19FEVfiLC6czy8E7DfO6oKoOIZVYb7s1mfPvDu7z9wR2aO6eai9J12LrCZrO9uJSRfor6UIlQdNFmPC1im8i9ELtMt0mEPukwZfKu2wH1gFHg+kQg5mUrRx3m9zYUh1DK465szLT1a8b3zpoDlcShGfagx3Yk0XgsOaZpnbIN+zZ7n5WnkRRAjRCypXFp1CkbM0j/02E5cqCPlokNgd2A0fKrtR5597vIxSdlyBp3duUMuOKYsKPrWr+QHdRnheyfUy76jERVVXqJmi0U6jjol3Mghw2S+6JaN4pXGKhE3lLPamW5db0e3QP1iaDdFm/JNqvRwTUkDF3fQxfply3tTUvXBZY3HS8uNnz+dMUPP7vi9Uq/ninIrztzx4fvzHnvwQnn84pZrdqPd+/UnFc1jz845fTdc6IHyZHcJyplDmzb4ymPGLEUNREgl+4JolYvSZnQ6WBps0m0UYGKeXDXlwuhdZY8d+ooMlvZWrKGk1bFSbNNIFUWPx1zy27Tweztc1uuy367a5Ige1Q9LeN6keOu78mUX8wuxWta70x2Zw2xt/gqQHbgwsFERQ7oHreODSevwqTwcRU2JKLkSZNccU/HsaEAACAASURBVF76vQgmDyP04fksx+5gYI26oIfBjdQzqGZFsF9iyeK6WLW60Q0jptaAEeOxtiM7i63AVzWm6zGdJlrFrlcrUkpISGAzOUeS89i6IfsKaRNtG1lvIqt1z/VNx9Wq47rrWVTQVXrhXVQG6+Duec2Hjxc8vr/gdFYxbxx37s84cZbZoqIq/GxyUuZGGV37ZlZCw/IY0qN87KwQdNmSDyXLmHXUbrR2vl6HwocxE1282sfaRzWxKneZiULOiGCzEGtLvUxImRSO8Tuy6yG00xbe0YU87R/vlRkih8gXuQVjMBXxw3624NR1IASBGVOmtKgYxsVx15Vb1dDyZjbYtAxynnT3EVx9oePJcpnLgxRSs9O25KOhcJFtu44yvMMYfFXhqkbbgdaRBwNsyiNuLCMYVxVQS100CxZMj/GC8eoeN40GxJvQkaMQQsHrGchdj5kZ8s0V4MnOILMKHwWXM1UfOEs174lwWhvurQK9aB/fecfjO3PuPppz596C87MZzUlF3Si7zno11uacle6PGgVy1L64rXy50+bxspgHkX5ZECnqBpaCmgi6kFl2mShZxUmDRp0t/TjVlmx3pQhVVufKfL2XQ1gGK7Jnv+NI2SATjYccKNv2uYtTktJuh9APE7L96Ya8QaI/iJO8EfpsmDkhJYf34Y1S/kOX4cQFLuZQViVbyLlZ3MO8/nwLLZ0I9QXNArFDLEeBI1JQV2TIOZFiVqc0RsMyrYqYRAQT+7KMLXiLDIIiI4WYZDFuhgSd+BmvBZutG2zdk0NFDj0mRB1W5KSJAb2CH3MKRQbqkHtz7sw8TeO5cx7pzlu6BwvI8PBkxqYPhJiYn86Ic2jOZzSLSmmjg5czZ0KbEJeRyo0EJpwQASdZDbS2dICM0UZnuQQOE9JcBiKxE0iWts+kvL20j0wMa/De74ich7cpWstJjOpWWQdS7ahGK9aRglNk1wUut5uxv0rvedpU8XAkMmI/WdbIgQB04twhZEtVBSQ5cD1muBjKLSPCows9j8A+M8LQtwZdOX0LG36X6M1EKZfLw5WxMoFumRKCSTl2kygCDIvJupi1FFG3hjrtS9SaFR3XOlOwJYMnLoOpdCGPftuEcTXia0xdYUMPocWWCAwbnAbkpFh04xk3K+L3hyecnDfa9dgE2mVLv+nYhJ764RyTE8kYqsrrQTKgz2Rg4Gkvm0p3XFfgO5I0W2YAKRtnRzzBEJ2mXRbtQfdtInSZ0AnrTsusTZcQ2euyWgPnVdmdJyjlvfWACL5VvrQNpYWX9xZwqWN2rVjm6FZoispvv34V2S26h43OH9tN8zFs0/TSVvbwVGqn6Uia7FDi9vSIkVutWId+8uGSYHb5HYt7qr8d0WBl0FqENdnIeJkyZisqNwWtldJWi55zxqYMpgdXoIaSFcA49MUHq5Ds85+U+zaKsIxDHIhp1CXiLRKDUkF9xFaBHAyxT4UhYnQabzLVSaOv9klFdV7Th56qD8SQMTEqUsQoUmFIUgVR7XYc+BlRBQymiKecx8Q8YkJspVjd2CdS1NF7Kn3osNH0rK6LpCysu8iqS1o/Y3blN85y9W6jZdNkQCEi+JwJlWXRBlLlxtbcwRziFhmo2VPNcWRNHAXkceiY3Q0NOthAJ0oMOd6vDqUXnbPF+n5vI5ZxUcqO6OnL6B+y99cJpp4jDz7AvPp0S9UcxP1QzK5byeY0fjeVhNJkdafLOWFirwIlSaOWOOdhF7TkHLUPXmj+pjA0KJ5F7QZlUugQC9bVGO8hefVWxoC4FhO05jSmIxoPJhR7osd4p0KqoNYukyPOWsSLIn+jlgpJZJA2YsikXoM5h15yzlZNtehF1KBxyo21enpZR0Zd3DmJcjdSJqZMSLpT37RRtc99GkHsW4ui2sy2es9pzaGbh0tC8I6TtiNVlmqt4qQSFrPrVoGDulr27Fq3iIluL2LNpIaeLnkz3dLNEQzYsGZEhd0yaX1ocFA/Cay4DfV02y3wmKtx+6t9508Qn31cdBoKTRm0vSLa1Bt/nLJD57K402CwNQOMNOooOmZMgakzGFuNDiPEDLFwxdltah3nuhlOQKLqmpNkXTgZrK/ANBjvdaGaTdFV+CK41/aZWBX6mBLIY8oDZOzAEFFPbc4TpV/RI+SS25fiNhsRI9iIusmzgFXFY1VXWF+CgGQIBNKJoCCEkOj6TNslXcxlb5CppNcb5MQjxeU93dFsFpKz2D7vbpzeYkrnxUwIj2aveDV7XT0rk9bxVxL372EM9ltqx2YqMrloTbuDWcBbIYilHsPry+IeCUYTR8pEA22Olv9v+O4FzOIOnN7BdFcKkcl5q5POmYRRY+jkyw2dDTNp0Evx0DEADDVHbYvVLLW0TPuWtsL6Bvxcux7GKklNLJI6PQWsRYjYShe0/mUZW3BhOiksgqkynFAbV4G3WzMafwdbVMr6Z6mIjUDF+ClvoTAYJR05b7enYAaRXr9usaUIFkmhRBMru86Ioes1DavPqs2R6XCtgCWX7y8QKwdIW0QxYMEbTpeqh66v+0O3yZ4i4tgZbUS2wxn5EnHdLeKPnRSsacdjX3YhkzHk9MQJ2bBwkZScsjnEYQhHfAeHkJnD5ozcLj0xBuMbzNvfwnzyLyGrxjmXLL4hAzzJto5WrO/WSTKAT/IYs1Z21VF4PliMCnPDWPULmlp3bLEYnHoV7Uz12tbhO4Oh1+mkFpw63BjIqCWNali0Viw5KTduqIs1wrkMLAqfOQ6lEmhCbhl0xJBKWGgez/AKSyphlMpJlwJHDVTUhetXTquUSKKj9eFLhKQ+xpiKc6W8VhaD907NBZPQ1DGLe4K0sCKYmFUPvYlFkik7ZcauFGLP3DSFwbwhAvCAITbpS3vZJyXJnsJfjvS1y0bmj/awUxH5h8PS/kiT4/Y54n4Vr3/q7n+d8PkPsaLtJmscUWKh/MioDVCz6tbXYKzdTkKzUf32ICm0hb4vZf3HrPWyKQvEKpUpu4DNvbbJvNbizp+q7UhmmLgZ6U1GgGquDm/X6bQx9NiUyDlsHS3THsEkZyUV/03OeRQ8SKnd89ixLIy6AkV0JcrYGI1XpiC+DBZbOUQSKUdihlQAOzFrSy6WiaCdaGmssdjawUlNtsfNGYZMsobTjV4M5ynvvNVmr6Mx3VDNkZnabSKNr7K2Ry2H2Zd5GrMzZDkoBoZ4AgNzo+PvuirkpCMPwVisGI6rnI42z7c+s2lClG1OkXuPkWefTB5ENRTopU5G3a2xW0f1CG8v3QIpRxzZIrYsXFH01sBJ1uO21k64V/e0mIhpOmhmpVS/JkkcEwOMjYj1Ws6Enhy7MbVLrMe6jEtSvlZpF05C2k1ZhGlIjCoXpjToJcpgJCQp7i39mBByoekXlwwGYiIlgyFQz9ShE4K6uNURo0VtiqrV6HtNaE1FYGGMeig3bzdQu+3Fe6dMMNrl8JazZSLWHj+Qk2I+NCzxBjfKQQ9wtwGxj3g+9on+qMhpb9S9wxnb98+Jcodz1pKDAm0szeDdGckeuHp/ri63IBN2FNgmU733y/TPP6cqMQxDJoq6kcviKTDEoZ4YFs+wcCQPF6U8Dm8kySjSUZSsw9oOcYW3XCnL2VQ11i11B7S5UPXVZ+ecwVRe25omI7nHpIAM8cmugkplrHlgWZfQHDugGYayLE+0PFZzTrSnq0FCoU1khMo5pRTEPNggxltWTFFPpGChMkSBPqqewyQNhI/lIphzJqXJpc0b0txgZg7nS89edptqYvTeYqelQmUxY5djdzs0b9hhD1kFe6IMw0Guyv6Yzh/LVtnn8R4T62cDFUIvhoXZetNkQE7ZcGg1F7Nbm0ve06ser6y3V2R9k2xzCqenpOWVUpNyUkh6TmM5NBYpZsuJMNaWCZkoeTOqqzkrTZbYRtqbwHoViTGBKQvZOSpvaBqPnXvq8znRZmwQauvx3tLM5uAt2WSg07wTB4ak/5lJaJCrIFpsyR/R0XwxCxddphFlzFF2XUmZypUgUdG2XNtlksnYxhFLlvcA2xkzhlMimUxsPN66Mc1K17sh5C1tVDnVArEkBMwqqm/fJ9Ra8xuzbzDSxRyt5TRE+trRrMJON2OfjDUSk6aDYTOmaOz20g5g0LLjIj/Q/IsMGIMJUk92p+xyxGUyLPhoDHOTCclS+54sDmcDx1GNhxfDQ/31vpbkOPrJWIf/1q+Tvv93FUc12K72yhOT8xjIufMdRSUCxT4RQyCUUMluFdi87Lm62nCz7umTKLgwZeracnZW8+D9OXeqc5049urIbpqKOzNI14H64TmhxAQTEkY0hMdK0l18aEEkdaPnrC2/IXN8a1wFb21pnyloZtCqZGOIMWmkXi7UI6MDl0EOYK2Sj8DibcIli5WS9107ckGMSdKfPYvmaKudTROw/KLGGMPZvTmvn93slJuwC0wUY3AixJmjvlIRlwvxAMg4KCTtLTLR7ZR6W5KK3AramKwbGXbo/Swh2bNE7SF1ZQt8OSh1TELSEGJvdhhqb2rHTcuZ44tZDjomfnaPeO8R5tWzSUDRbnSueFvgKpNWXqaMf4WYE5ucCaItv9xUVKdQLVuuL9d8drnidddRzeB05nhgT5idvM3Xv/OYk/kd4rrF1BCWLXY+p143UEeq0JNSYXOczAnLTmEzqTQNE+SQCx8kFaStDkpi0juBd7Zov9VDP2QlypBAYIs41hhiV+rrVMqqUn9rkFUiO0ud8vYSX6IwQgiQDJtNZtNHupCL8dVgFh7/rbt09yq6Vc8By2tUXRrqkq1i15oJXjKIJq7vrZjImEPsl5E9EIzIzno0O/bbQ0WQTFpvXqakmjeIQ2TvG8gGKtGS48QkUrLqZZ0M0GUPW2Bu6TObSUjRtF+9/wQONq2BCFR9/Vfpb/6+UnrKzmcnB5xkdYRLVhadtqsTkrVeDOr5JhuDrT1NU1PP58xyItxseP76hmdXK1zruH9a89aHnnv3z7h39zH3Hn8DstC3K5pvnFE1d+ljR3fzBf2rj1hwTs6Z7vklzfkpIST6TVsmcEIOirtNobjAJSugrNTBznswWkIRS55gKagVnChjiy9kwWRV2Wlqq14WB7VtNRL7B32OTlhDzmy6RB8zN5tESJO2rHdU9xrkvKZ9cTO29DhyzEdnaAKE2nFy1arju4t7OW6yE7Z5XNVj9oKGbgvc3F1H01LI7xuvjwYgGnPkNlogggghO+o6jBdDdZLcIkA68shMxScy8Q7udEt2Pk1RV7Y5g1lNapcFGW129ChIxpS0q5RU/JRLC2n8Sk6hkN5XVNYzN3Pqx453W8h95mLV8YOLaxpv2awDL57dkPuExVHNz3DVDF/doWoeUFvHYv6Y7t4HEHviZolbnCGrFf56Q1VVhE1HlEi86YjZkqIjRX3AoijNFZex5VTJApVzirJOKnCyxigRt7xGqZhg9V5QQO2izDqL4gakTOBcScHt+0zoM+suswmZPjP6BM3M8+DXP2BzYgmtZjvmJCOib9/FnSc69tB4Zm2LeIfpg5Z7eXd5ToVKO9LRoyWm2emWgTne9Zjqoc0R8tw2fsvsHfoygvWikTGWYvylcKI1uCffRvY4zvY3e0fCJPtrqKPMiNpRplz9rT/D+nf/b3zUXG+JcfIAKFFTPyeN2T4pBTC6m3urwERnwVUO3zQs5qfkm44HL1e8d2fBD15d8dnzFc8vW377957zK9/9NvcffYARy/LmBWf3aqpZYen5BbWxmJlnfqchP+pobz5l8/Rj8stX2Ise2wb9EYJqlENMpKSJYlEyYrS9p6VUWUipdECyttmct7ikl8OUVY8R+qwXSdnSkyprlaaGwZmtJU1EaPtMH4XrNtEGbcJ7Y2DW0DnhzuO7tJ++pD5pyHGj8hmRA2iizyjG4Lrf9p7NnpBIDi9xuyDGLfGfIw5v+XI1PRhwf+Nv/1d/ZzpEMcea5+a46asqvz/xGs3rfdAxro3bSODppWDvvDJHBNzmqINx/39Nguv9HHt6Snz5mfrnsoyogp1XciQEpW3Lzqho33rtUzvvMfMG2zS4tiNuIlfLNZ9crLjsIynqEc1mzYeP51x+/jk/+Ue/w91HZzTzUxUzpZac1jg3U+Kp8fjZPeq7j8knhi4tyU4wJWs+r3til3VR56xDj2wgG1JQzcVg80pBY9Zi0JIjl9iInIXQKWk/Rj2dYlBiqAVOmpp5VeFPtSNjohA2meurntfLyHUb2YSS6zibYc8cb33vQ9y8IaQ4YrJSF3fJWmW9+AxN0B56s1Fen9+oyWNIRdg2ALZwr4NYt0GEYW7pT7M7oTzW+/O7rQ1zMEyZlgFTd9R0IxUBV3BgGuvmwMQjC5QDt8LuEOWItuNYjpfsfpa/8x7x9IzYrovXcBiiqP4hG9nqSiQjoxHAaS5gESZJGaz0YYM9P+H04Yb3n93lpHrG3Pe0QRv3f/cf/YTrFyt+8Wv3ebzwvProB5h2icxPiZuWzWrFOz/3yzQnj5SyLxmbE2eL95h/85xNumZz9YSbjz5j027YLHu6y4B4qxHGmlZHitvuW1UJSTKxzwV7q3TUGDIxamRE3ymrZMgXDH2iPmlU8GMNVjRaOZLo2kgbhZs+0UbGLHNphN/4zf+cl2+95GazZH4y58mnT/C1J6w6Up9HWrGKkzLR6q9b1p0UcVIs74eM1NGdXXmHkGSmnKLDS99tU5bbyUlHFutt+pDi1I0Ccyv02dLsNFZiYSTnW9wrxwxZcoQfPRFgH0BDRisFxjbMvv0rrF/+fWLRkeQJrFBTAPLkhTRjlIOjDF+s6idCu8abBls5zh494J3H1/zKW/fZfNrzIgX6pGPy3/qDp/zjz1/zm7/wLt94dkm0H9ELvFwn6pR44lrOHn9AVZ0h3iNxQ3t9zdXLp9y8ekV13uAXC67u1oSrNS+XK2QjnMxq6jsVZubIYkjJkpKwbou5NUXVYYRInxIpQ9snQs5KFAzQ9ZnlTUAE7p06ohjEW5wx0Gf6deLqOnCxjGPUhHHqrTw//VVO7tzB369ZbK65Xl9TNzN++q9/zMm9E26e3+y9fYY6Cck6qhhVnLQKh2Wl7PM3zK3i4QP81z54ZnKp2k073pNjjE/PLQ6VA9q6QbscVrbipOy2fO+jS1jeoGzdifd8g8tlz91gLJw8xi8q4qrsCtaRc3GIDyR72S5yMdpWNNaALzHJOUPfY3yFsZ7qfM7jb7zPL75a83vPL7judTGRha6Ds04Iq4SLmSYIdTakPuKbGTx7RX9zw2Vdsdp0XF1vePLFJZcvXjNzGTsP/OEnhk8/ec0778zJNwYThberBYsrz2Je05xU2MZpPzxD32a6kNjERExJux5Ga/C2TyM5dNNFDe2cV0rSr5SP7ZxGT2xWkU2fuFhF1mHAtgn1PPO9v/ZXWHx9Ru1r5rMTZnXDZn7Kq7vPSV0inva0N53CZ9JuiZqNwQYhVR67zioBSPFgGGKm0Mu9y+KeVeV2BaYcCYRlEl5vjpTeZnKFM3ulgUEnhUN+pRUwyWJdjxEHtt97QmX7mbcG08koKNrNz5AjJYuM7Ua9iMzxf/LXiL/3z4jLVfFomlEHPPZAh15wYTBrUizjkZNENdBWk9yZPbjDz//yz/HXNpn/8wd/zCfXN7RJmBmIXeaLF2vSKuAy2Npz32nOS648ISea1Zq87HBd4u6JJ1d3+fz5NRfXcBJaJMAPf3DBsuuxxnG/afjg/JyTpuKtBycsTirVRYvGQiy7zKZPBYRW2n1JGXRJMjFn2k61JfOZ1xq3slRVgT32ma5PrIPQpUw2hUFtDL4yvP1LNbPTiiwVfdjgzh7ySl7wne98hz/Iv09TW16uX5CjjJgDnMVnIdYVYoRclH9GolrH8jZnkiOUARnz3PfkFhMEsNm7Xd5WknhbqnM7xHMVovtRcdGkD2KNaurOrCaMNi6O/08f+EIwYo9A+qX+g7zzeO0+ajLhDG+/n4yhsQY5/RrNW58i6QvS+qbUT3mCPZAJDUoTNJU/rV/dlehkQTFhUoGZ1yzevs/3vvdtjMA//qOP+HS5ZBMzPYafebRg3lSqw/AGU6tERkTwRgmn4sG1gj+tydHSNI6XV2tchrgJfJITJmYuN4GPVj3Pr1vuL+a8WHV8+PY5i9OaLJk2JlZ9pC+4r5i1HdlFTX3VfEEFWc4bj/GWqrGIh+yEPmU2rXLxrjdKNxWj/smq8dz54IT5aUVtKw2FMkKdPf4OvCTw3Z//WX78Bz9i9s0HvProtQqcQtFxVBbXC6GpkZtI8g7fRbXFZRm100zafVLgbRRo5HSWPE4MRXbky0OvWvZmFMPK9HfrNLZa/CTaVx++aX940NnqP640ymcu03hdzLWL+sbaVEa0svcYvGFiuJN9y4GViyMXTB0F53IRsVSzM8KiIc4bZLUmEccoBm39DU5aGR0vWRx2EjivBoFIzj051tA0+DtzHn7jPf5s0/Ctdx/w8bPP+b1nr1nUFlt7vnh+jbsz47Q5wTldzLaUNbbyNGWMbdCwINd5jYJL0Ihw7uCPjNB44YvLnouu5yZEVikyf9zwM49OSMuO7iJoezDDzVVPTJk+5RI8rwTWQb98elJxeqeiWjh8ZUlGyfxtl7jaRNoQtUVYXseTU8u/+7f+Ku89rAFbEmZn9GnD3C5wZ+d0jeHs53+GT376U87nhmc/fkVoZTQNG6unQN94zCoTbIOJRZY7mHbzFjNhiuJxQFHYCRem8CcmNj4mu7zslB3TO59/MAvjONKagYy2bclInmbd77cXdWevXMSaTOUT1vblg1JZn0W8PhlFbn1kk2yVARIzHeKYQ8vu8AOb8eNKQqoRxGQWb3+Xbr0hXlxhgtmKpg7gJEajLiSXrkz5umWXTiiHzhYLlL93wvmJ4+TBOe9ev8M3P/uUZ1cXzBcVF8Fy53qt3AzvdFiDKxYxvSKL09RXgNpYZVyczVjfdJzNK04rx4WxzL0lIixj5v1/8x7NQ8873zwndoFHyw3Ly8Dzz5YKYrdQO0fVuKL1UKFTVRlOFp6ThaeqLMZZvTyuIpdXPddtZNWVsssk5gvPu99c8K0Pf46Z92WvVPCl+DkxLjm1d7mxHefuLrI+53WdaNKCl5/dEBuIrw0yt8QbSzaGJIMjGXWhyxbYaUqbyY4Le/ufHRfwsHjzpG2wFwshu25zMQZ/MuvLYs4TSAu7lbOYnZ17WktbkzEm423EmIQzg+Vfbu8lDrWX3b/+frV/pmm2A+DRlJtzc/KAdi60TUWKcSQETemZZpwi2i0jYucH0zFynzbUUVVqufGY8wW2OeH01FOfVdy7vKTdtGASMfR064D1Fa4p8XMlcsKVtFvJKtfMUUX31aLm7Lzh7qrn/mnNq1WgthYriUVlufrsmv/yv/jzVKbm//l7v0O+zMwuM1+vT3jwqGIVI8ECM0vTeO3ShEgzMzS1YzF3zBpP9pBiZtVFLtaRLqlKT9CY6HuPa37jb/06dxf32WKERh8K0VQkl6nMXZarFV9/+xE+XrMIDenyhq6FVWOJwSGnlu7GkWpDXBYNdSEzmZHyOEQ6CVbMyBoxk8E8OyXIsFPnnU6X7NTPxYI1b9bj++hMEV6K3TMy2l0xyQTX4UwuGdMZa1QmaUgHjW/zBgWe4ZZ+zdhHzHvKPHMwY9H56sAy7jC1wa7NNqZijFAojvEhptgOwv7yxVPexp2ZRJs22GiZbQy+uoOc1jB/RHV2zul8zvzmhtB1hNWSfg2SAs08lUD6YqWK+gbFpK+TCYKsAt1lS14JNlhmtuFBk9nMDKcL4bu/cJ9f+t77VD9ZwUnLr77zNtddi1tYojGEDDeXN7xq12xMxteWlAzeZqraMmsslbVkV6A015HrZaBPmS5qZ8M6mJ9bfvHP3eetx9+mcW4SDFWybUjUtqaPPZWpIdZUtuKDtx/xabfk618/5bOfrvH3hYulwzhHsp6QLb0zxN6WtIRCwSoMuTG3hu29a7RvjgLgPGpASu4WO/mXspsfL4Cvq6uxY2BLTPDOAS92b2+WHeeuGZ8uM+opzG27qhxhAZuvYsQ6IpkaM6YnwvLyZJ+99R7XT1+WZNk8gsvNkNldTL9DhPL0JNq2oIRkIhFHnwIutrCyODlDvINZg793D1d73HKN8w6TtHW2XkWcK/gDUW1RNhBSxpqACYbQOQwNzloe3m04X9zlT75ncd4ym1c0D2pms7l68qLDhYpmoTuUdZbUBdysIgf9ubvYE0KmdoL3Ducs4q1qMFaB61VPH7XrkJJOSm1lufe44S/9B3+d+ewtnJUjIy5bDLhzurjhdH4Xk9e4kwWr8wYvCT7IfPKjyMk5rK4qzNyweeUI2dEnWxSOk2pBdIyvJ+SYkjOodEpFMCk9Ru08O/9PxjbCVnLqvXtZeol5jx7G+JRuY8rMjmJOzdFeHdhUqmXAD9Lvw76xOSLg3mnXHXoID6KRbmv3Tdwv8/Nv0Dz+Kf31q21Ip9nyH6x12xD2AmgxTmPQMpYsqlUWIhlLyBt80BBLyYJrZpi6hmaGGKh8jWtmpNCSu4hLmoWYrcGkXOScJehe5hoPlxPeC4u55rQkSYSU1dvnHMZZuqvi+ngdIUFVVSozFSW/Nt4yd56+y7Qhse5a3ElNhaEWh4lCyomrVc+6S8zrYg0rOIK7Dyv+8n/ybzCfv41zM6xxk0HUtsNg0Elj48/oaTlZ3Ge1WvH2O++CfEblLVcvluTecnImXL30mMbSXWsLM8kuqGe6eRgUhGP280+GJNzxHzeVnW2XtJHJRwneuYuJtmK/A2G39qTdg367R8tc/zIxZTFHDBU7wd/IgcjpEJIqeyoPud1Ka45JV2R0rjs/Z1ZVXEvx99lBCL810Rprx5xw1UznojZTK9RwhCUiNkMnpTTJPaSIiw2mqnHZIM5imqog8DJWlD/tyhBGIricyKInoDUOWydM6NW+lCI2RSV4lmrNOMX35phIHWFTcwAAIABJREFUoUS7GaVV5ZQ0qjwlnDGkPrFa9aoH8cLGBHKlOvBNG4iSOV80zH3FcrkpIEbL/MTyS9/7i3h3gi3eSbNVf01StByZhLMObxtsBU1zDghvvfseTz9/yte+Zbh+1VHPTSHX6rmdxIwslF3djt1bZ7uqy9Fyt7OoD32nu6Ing6eMirc73N7tbWAx77OcMSrNNGusnIDpylNl9xR05gBR8Gad6y1WrD2AsNkRFJo9WJfBRb34GMI2mmGiNDPFMEvSene0FVndhXNxg2TUxZEEzXqRRh1WWXBdwFbl4a3BhOIqSb7cLUvaVgUmW6wyw/RldVb3gRSxyRSNdMYWvvRYTxqD9FEbBgU9EGMklElhFyJtTFzedOU16EjAsktUld4fzuYVd09r2nViHQJtzjx+f8a//5t/gqa6j7FNkeSayU64Wy7a0sqr/DkhXjGbPSrwyYZ793usWfKt7675//5h4N7blk9+YBkGhdMqRsqMovR1J0D62w2wcqj33BvNbP/Aj5LM21yKZtetsiOdM3k8GgxOkbaD8md/Ye9ZsN4kWrrdGiy3TBZl145uLIvze9T2CZ1E5UkU8f8Q0qgpAJqq5dgyOwadwdD4V8d1wqRE8Lmw/HTfcLbGpoB3dkxXHfueuRjrJI2XUWOc2qMwZImIqHPEJCBUWAKuDEhyKRtzEvqgeK6UMzGq9mIdA5+8uKHtW55frlluNBF23SUCcDLzeFfRNI47Z3Pms4ovnl/zYh1wFdx55PlTv/AXFMNgfNnQppAus9MyM8aV3oeh8ncw0bCYvUXbvuTBg/cQeYlzp7z94WuEzP0PhKf/WsNCU95CF40xJUpkIjKyduJHNbd4lcyhU+WYOMmY2wjO+3O6I94ZEoYaMSWt9aDNbY7KReWoRHRfKmoOtdFfMmPc+cF8jT+piDGSsyfRH5wLgmyTs4YYKFfgMjGWxZXIYgjoDio2473gRUPojXFItjhxoytmOLVLhaGosqxG12Falovyz4iMia6D3llE+XMChKCyUslqj+qSXu5CDqoRaVuuVi1dVmWhcwZvYF47Kg+LeYWzjotXG55frOhC4sG7c/7jv/1nqOtHGFOVGOmD8fDe+5JL5qNgTY1zC4xxzGaWtn3Fg4c1OV3wi3+6YXVzSftu4uXHPWEjmDTZhMXc8t5zXCp8ZFD+pjXgjy/kQ5fhcT2FVU5FbnR8II3a9Q+Ordu6GHJ8Z5bbRP/HduvpjjI5Dbwf22/kfhIXV27JU7XWEIPmCoymBEwqpteSQijePj32kwhiKxI9zlaY7EAqFWaZ0vMp2NoxrCgon9oYFQiRpSQKaMchhKiewpxIZFIxNWQrJKs7cx8DbUis1i1XNx2bruNy1ROiEBPUteFk5pnXnvnMUddWByVReHa94ekmcHq34pf+zD3eevxzVP4uhwHFtyGLSphqSQp2dqGaeBy5zhjT8uBhxWb1il/4tz3/4H+74MH7hic/6sbL/yiyE7NTO5f0oS9BWhw3Tu+vLX+A3zoy5Jh2IMzOUWSLbX7oXadyIRx+8N04ZNnraHzJJnvLs7D7+XKLj8H6BpPKx1aC6Qf7/qHhV7DkrPEaZkiJRa38NmfE2pKDLQRJxS4VcGKosse4hpw8zlUF/6W16xCyiWRyiKrPzgU4XoysUlzeOWZCitrtoCBvRQVHfQr0OdP2HW0XuFm2PHu1Zt1H1iHRFXtUbaH2ltnM45xl5hwnOF5crPjxkxXJwNsfNvzG3/yPWJz+bNlx38ytOlgJZpul49yCxIamuoPkiqapObuTwbQ8fDuwvlzTnCQ2V/EAV/dlf9dhgfHmZsGwtrzZr43NMTHnbcy5hDaQIjDbxkMclCnwFXpvx0sfs3WbTGmoZqeMmUiXygXQmApCHm/JxmdSLOL/YcS/V8ZIygpPHEKTrAMrOOsU3zUYx0UzS0LO9NITUkvde7ypcFYjkkee84ApyLlYwNIEvmJGAE5OuqB7MslCMqLREH2k7yJtG9h0gaublstVzypEbvpISJmmhsXMc9Z4TmpPZQ1z6zhrGlarwI+fLFmGxNl9z6/8hfeLuKzmELYMXw7dklFfjnisnZElUNeGEODu3Uc8/fwl3/mFd/jjf/E5zUxor5c7HPAdiPnUqAhfmTYqt+zhijEwx9p2hzo5c8tCNyUomWMlx/5Fcs/6KLc6xWQq/Dh4vbfBWZP02UkPJJCoZg1drwE+xoJZnCKrlXY4Sh/JmUlqgNU2kR2SZwGcH6Q6isEd09J0jJ0k0+eAlQ6boRKzDQKVktUiCq0hqUFV0wWcdkSMgWRIor3oNinLIuZMTEK3Ceou6SLrNiiUvA+sgyrvvDecn1bMrFWTbuOpK83jbjeRj54uebbWHfKdt2q+/vUH1M0DRALGNF8mMnjDMW/HelrdMA5rhRh6Hj58xA//6VMev/2Qy8+fUtczuk23OxYxE/jQkXJakDf/9fvO7zLX8Ls733Rqdpi1tY/eNaIxayLN5Fl3jChHeZPmeVeWelzwwUHZMk7HB1vPhPQ/YAxNv+Lq939KTFkloQMBs1/Rj0q4rWrBuqqYUSe0pbFpotu5rSqcNWU31R6vKZl/CV2AKSbWKZEj9CFivSPERFM5jBgdmAhK4B8i6UoyrgJnIA4qOBEF4PSZdRcIXWLVRdYp0MXEuovUleXBac3Mq8qt8ZazRk+Jvku8uu75+DKwjkpP+smTJb/z2z/CnZzyM1/7y7iR3Sd89Rpwixsw48Xak0SoqwWx80iqWDT3OD2pefTY8umPP8baRMxpj3pkD2i025mbOd7TGJIVzD6yTiY5hVPGx06NKm8oF6RgZ50q68QVJIocGcAc1jvmVqfKLX/3Xvbzsf6kEYGwoX/1KZd/sCQ2kTiPhXqgt02vUYQlOMiQjeYbGjellOqLMYY9iS5IrLbdxCYUrJv1ApcM0UTEKkQxkknWEVEKaofdpuCWi2AqmIEhP3CAj+dBDJ/ZRkfkTCeZaHSRd0EzZe6dNpw0Ttl6wLxxeGNYLQMvr3ue3QSWMdBFYZMT188i/+P/8GOCMaRfa/nmt/4Kdf1QIThfVSE25RhMcgatdcTgmJ84nn4Cj99/wCf/0jCvLJV7oRdi4n6CxFFpxPGS4s0nhxkdKwUqZsye7OdW7O0RkvVQclAyQ8Ttka3NG76dYz3pN+Qh3bKhS06Y7obN04/4/J9/zOYkkdugC7l0MCTrjhirCum6Eio5hIS6sqjLA5m3Cj4dvJThi9NFCgZnEtYqLNzYEt2Aw9msgZdacOhCNvqr2EI4KnYpKaVFKlw+YYsh0PSubRa6Ec1jdMZy58Ry2niMVxWssxYjhtfLnqeXHRebRG+ELmdcY+lulNBkneN/+Z9/yvXrlsV/eMoHH/5VrLO3vFdmb/x8nJuhF1sHYlVOXDtcDrz7nuflTz7n7uJdnnR/WFqc+dB1dGCMleNdvWMulT1iqd83Hx5q4vItNbRsOxtyZPFN0mF3eNPsI564pWfxJTvGTos0Y8Ka7tnHfPQP/4g1gRwrrl5dcPf0vAj7pUScCd4G+mA1gVYy1mjen/KlLbbQ/GWIiBAm4EedqDlrlN/WB8AVHyM4l3Ep4wYXyUjc199nY7Qaywp9iSFiS+AmhaVB1qCjkEpvf/j8oGSl09rR1A7n9AGz1kCE1+vAs8ueZZ9JDoLoFPT19YooiWYxx1eWPiT+3v/6lFn1//I3/7PvsFh8U6eFsj9kM4dnqdndW3L5nBSVzNqtLaenno+fOkx01OYUKyvm7h438UWxzcmoqznY4IwcaRvKLU29LbdlizGYnBtmn5VrzK1tlDFoXixiAkZmmu8hFQfRURz3kh228L7iFXdvkG/Chvbjn/DT/+MPaH3HyaP3+eNnH9O9XnP3vROk2Q7bhxF/NRPiZtuC8iW6wQ3GhlHsL8iktlb/m84WnbdlQKI7v7WQncPEhLVpywYZyfmFGYJOABOCVJW6uce+NYr0lYSJcQyKzy4zb1xB2DJCKMWAzYbrTeTJRc8qQPaF6S6W5XpdhjOJHCNUDVXtkZD4B//7U372u3+XP/tn/1Oc8WMY0lbPkTl6VB9gBLTQzMlSN5anL+HeW47Pfzdz7/wRL188wdOocncYee+Pu0cCqZlUNDItm4+vE7O70PytWH2zG/QmO09sORb3RfxiCwnfv6H2On4O3H6dNYdP5NSKkwLx9RNe/PantDeZ5r3HLOOSL14/p950SJehcbsiKdGQSmt1YeUsZJOUX2FK1rYr92XZdkCsNaPPworT5NnS1dAcFSGLDkaytZhRDqklSs6iKF8DsbTqkkCMkSS2WMVAnNANiz4mxJUUW9FXrpdtvokkuN5knl4EbvrCHDGGlIWXl9f0MRKjegeNs3ivtNREZLMJ/E//3Q/5zp/4Xd56+Gvg5rd3ng6uN8VxhCElgzWZlGotOzDEtXDnwYLnH11zPnvMxfpzHDOytDsFy7FaWuSwJJU94r7ZsQbKPsZgD507ODp2iDN7kbbGFLdBBJmjIqfmCPQA3txVl1sKjDeN5LcywvT6Ka9+5wsuPrrmxdmKOmeev7rmDz/6jHfJ9G2kOvOanDWIkEoXw9cQ1rq7pKxj8DQAU0wqIT5bVViWyW+tg6bGhIgJNS5HkISNGefjqIPZyfQrJUPOmkOYjKbdZmOQJJo3WLh9jahUJoVIlKSkfTLZ6QU3Z8hBWK4iT68CN70gzoyo3ZcXV7Rd0O5D7ahnFQ8fnhb+CLimpm0Dy2Xkj37/X3H3T3+Txr6nY/BjUgPz5kGdiMV7YbnxnN4XPvmnGmBqS7TciXvAur+YXP7Mm29oO7mFHMRH7DtVhm/HHyTT7w9EzPH61kx8AoYA0pTFXRXntj2CMDjWHjdfvbzYf6jChvbjS64+veTzqytO6xNSEF5fXCm2S7SPW8UavPbG7Ugjtcpr9hX9VUDE6AXPlezvLKV/PQ0EVYezLZFvxhioNDZNsoXCmLM045BJBsVdyhiJGCJEZVg4q5fEZB1G7MhrzgacWGxvtOxJJaPEG23zRYghsVolnl333LRC9pYQhXXf8/rqSsfrVs251hjuPTihdhZXV2Qx9F2imjeEZc/v/asn/MlfekJTvzVyTmS/BL1lsDGkCUg5hYwxxBbuf2h59q87zs5Oefby89LONWWR5q/UJpSdYc5UDzIxMwk7oGr7pp7jYPvf/lciFKZtO9xOUY7Jk7adHF4oplfSoz+QfMmfb1/Q/uUzui96+quAX0Hb9jQPFvRtpE+Z58s1y1VH6pQHPcYZmO2F11lwzuukLorSiBJILIt62BFQcGLOaZskO4z9ncHWlcYj1zVmVmOamSZhWa+vRxJSwXblXCaSlhIypFptU1uM17xurGC8ILboOowu/pyFFIW+F16vAqs2g9Naftm2vL68LKm4Q+C80MwqThYzmrpi1lTMZp668fi6IqfEP/ut5/zoj75Pijc7kaci+Y2SiLGNkC3OJVJw1LNMtzRYr/VtF3pOmjts0iWVmd1WaHxlyMWtK2icKxwsulHypdmER4Qq47Ewlhy+tO0cXx4BKnsfIkee+mO9SNmbNBo2T27oN7kIyjPtpuXue+8yO22ougjO8dGza9aXG2h15GyGkqMgDUzO+FO1j4WcCSHT56yXqJDUP5USJmtKa86JnIKCIbsO6XsIfZGLqsPaWFeCiuz2xmMteKuLUorhQNRzmEqyq8RIipEYAzFFYs5jKy+Vz0lJ+dDLdeS6FZJxZGtZdR3Xy5stNN7oPcE5y3zRMJ/PRseRdw5fe5zX7/PyVeK//2//CZvN52z9Unvv4t5FcNc0LVpy1JF2JczuJq6eB04eWlbLFX1si3pB9pxMUz/oTipnmRTu9d4mf76N6dtdW5Yj1vCdRsfOI7HlJcjk3627QPu5tzbFRY6oSs2O4+SwWX64WxsRUr/UUiEKbqZ0zasXS/LVhg/fe4euiHyevFpz8WpJe92R1qFkbpeRttNtzJlMfccrPxqIGYJAjIkUooZq5qyosKQ7dA4BkqIOJCek75EQNAZjuKdkjbMQ2Rpvhzcrp0iIkdhHJJYItqDMuhgiIeifxT4ReiEH3TNSELpN5mKdaBNEA6vNhovL6y2Ex5jx0HTWULuK03lF46sSDU1xwOhC6daBt9+a8/Gn32eMABsWteS9d2CMLh23H+sGIqja1mIInDyIPP30CtfAy+WngBDYHJQb02aDyG7k8k4f4OiQ7ZAYYGXv2zxorY1sjLz9e8y2+6F4mjAaG8cb8MHuKke64rfVTV9y5Bhon31BuukJJO7Nz3h0eg/bwg9/619y9v597j86o2sTz16v+KOPX/PTHz/j2eevuL5aEkNUp7oz2v5CEVKLe37sAccS8i5jdku5IBZKaU6RHKIu6hDJXU9et0gbkK78F7QVJyEgXU8OAYkRSbmAF/O28xGE1JVFHDKxj4S+OFOCjsDbNrNpE9eryKbXvnrXd1xeXqMhXGZEsw33cBGYNxVOLDPraZzHWY20UOyFIUb45McbPv3xF6S02duohpmD3F4kZoN1kdhnmnlkfdkTYsuqv+Zy/QxjoU832w1xZxZxLJtCbvE0bbnTInuRtGUUb5m4a81eDTvm+g1zkmlpPM7kQ6mjA1K0suwTcG5dnHKr5lXe+JGQNgFJQrCJlY2kuePefMHrLy5pf/KKX/1Lv8y88VzfRP7x95/xT77/Bb/3B0+5fL7k5ZPXxBBG/YYrThNfWRb35jq9i4mALmwpNXNW5YcetiJagnQdedORNz15E0jrlrRsyZsW6csCjlmTrkIc07dyVk9gjonUR/pNT9dGQquBRn2f6GIihEwXMutN5KYLLNeRy00iW0Mbem6WK7VIGS2bnNmGC1kM3jj6ZeD6xQobMudnDWdnTUn3spzUFffnc6pNwz/7v57St88Ribsy4b0q8RCDrAZgIZFy4OztwOcfv6K5v+Fi9TnL9JQ+r49vXbciAg5NWG8UbZq9tt1xE+xu220AHh7mVgyfH6EYZGU02N5WR+87YMxRp5jsuWZ0sAH9RU/slZOMFfKs4u75OV/cXPHpP/2U9//yz3B6fsbHH1+TsuGzF62aZAXeff8Oi3nD+cNzvHdlYWsXxDuY35uxerUhmqQw9C5o1oHXcHoZsiKylHKkBGUah5OMCUHj5optRXKGmJCgJUpKmRRKORMzISfVaqRces/abtxsIut15GYT6WNm1SauVoleLJvQsVytyEmTvqbloS15jYh2S+IqIFVFZzqMddj7DdbBN775GGcXvMMJL+KS6FZ8+vn3+dlvva9c6xEEbW+5RRXljtUQpLrOXPYtIfR0+Zplf4VfQH+xPtLOLaM62dXdHxXy72DCzRsmh+D+6//mz/+dHRf3G5wl5uAJyigZ2mBlVvaEqnykPbIoOdTgmv1hzqHt1UyCbnSWsmL10xf0N0WZlgQRnczlPhLXEfrIg197zOVPX3Bx2dPlyKZLtH3Eo+FB88rRzKoyth7SZnUC6CtLt4l6kREphFUzCvQpwTw5JlIecrNzGZbkwtLLSEz6PXWJ0AX6NpJDJsZMiHoStCHRlZ24H3blPrJeJ27ayLLgcW82QpsMbYhc36w0N8ZMX0qz6+MxukOfuFqnlVFoTj157vnaN9/iL/769/h6OMH3jk3u+OFPnvPy9XP+rT/3q1g/H3Xhx0VjctANazcqs/3kx0sMwo++f0G77ljdLMspx04X5XhXDUC+UhF6rJPtdxfsV9BSHCR8luSpyfhbux7bJ/v2gYnZ26CPE6L3f7f8yceEy16Lm1TijK3g5hUPH9zBGoPfGCoz49GdU/5V+5yIcL0uge/oomjXHT/zzZ6zB2dUJzO8rwpfD6oKFrVl00ZaEZLP1DHjiSOBDdDuRBbtSEjWHbD2DPnLEhO508td7HRqF1UvSoyZNkXalFmHSEyCLfLUdpO5aTUuoo3COkKXocuJm+WNproaOVQi7ozcdGonKZMCBIkEY6hrx9/49/46D+5+wJM//C2Wny6ZNzM8luVN4MmTf84HH/w74OaTrSjfcqUZ7hmCmEhMPfceO37/n7/k5L7js59oOGqg3za1ZCIDnZ7xEya03LpLy9ES1ewuaN6gR96fr8iEG6Odja3MaGKo3PEVyu1uFfOmAQoja2P7ojrC64CEkkk96CuMw9SJ5nzBA2vJq8jr31lR2RmzmWfdR6IYrtpEfr5mue558WrNxcWGb//8O7z74UPsWYVzboxQmJ9YTLYs20TuVFPspfzdqeiGSjM/iyAOfGVGyqnJEPpI7LS7EoLCZKTs5F1KbPqoJoE+K0nfQN8mrteRq3Wki0JIhpBg1bWs1xtSTuMkbb8WHSGYQ0EgJdswD8m08Kf/f8beNFa3LL3r+z1r7b3f6cz3njvXXF09VXe76bYNjTEYhEwCJApKFCGZkMhCURIpn/IFKZGiRAQFUBSSICAhEyKxRRQwNmPsAG7j7qZp48bd5XLXPNyqO5/xnfaw1pMPa+29137PuRW6Vap7b91z3vfsdw3P83/+w9e+yI07r6LrEne8xmRC7kyYOr7r+ZX/9zv80T/+u6PZjjx1wNJZEBilKSsy61iv13hf4VxJWZ7jfIPX+hIwYIh+yQWgdoPppxcJo5eNz7NPWkxP5e9pejoLSA1+FhpClU9Ymk/BpEUuTivl4jWkqiyOP8QtXVxQUYDqI7HfGEyeszXNWU6WvHD1KudX1vyzH7xF5YR1qVQeSqscz5uAGqw8GoMurz9rGG/PYmikxRewtZdhTkrmZR3KglWDWzrWjQvxybmhyDOsFWwWYiQyEXxY5bgqlDlV1QSSkGo0VQzG47ULtbMDagdl1XC+bDhfOGonOLWsy4bT0wVluQ7TyoG5fWsLcDnkKrFR9F4x1qB5zm//yk+EIVCjbL16B/vRE8bk3Nje4oO7p7z5/WPefe+XePGFn0TsuOOipOVmO3TxWqPe4VxJVVcUo4oHHx8zO6h5cv8MOyKkKlzivaEqAwbfJyqxLguhv2RJZTyNJCQXBx+fRIiT6LWg0iCaXfJaG6GDOjSi4TJbtdbPTBW0wR8fUb5+RHVU43wMoXfhdb0GPrHxcHL/iIM//Bme/eLvpLj3G/yLb7/Or7/7mLJyVD6Q5MXBumrwHt54+4RinJGNMq5lhmI0QqKsyBsYHUwYlTknRysW64alOmrvqDRAe3kNo2iG5o3gSt/h0L7yVGVNGZGLJmoHl5WPgfFK1cTyo1aWpWdZKlUdmH5n5wsWixWuaboS4xLpar8wfDr0CC5QjSqZCPl2zmc+/yy7B7cQL2T5hOLTz/DgH/wKhc+YmgmZnPHGr8355v/zfW78sc8ymdxCTBE4HoEM3hPWfAPqqZsFimO9XlKVFYvzU548PqeYNizvri45YfXyE3aT665DgtwmHnHZyC+73GJALvAvNJG4dwB+5EOjWYTvxgNHo4sYxSU4dOcKepGaqOoCG369ojw7Zf3hnPKkdTLqzC2i4Z8JEp9S+MHjj/lC/TxmNOZg/zl+2499nu998MuMJxkj7+JQz5CLsqw9j08rXv/BE7LMkGWGa7evYloryEjVdOOMvaszxhOLEeV8Cc0qsJXUQt1CnGVDHTemq8MpXjZhMde1o2ocZRONyh00tbKuPWWplLXimhAkf36+ZLVcUtc1Pk7RWnxZNtwGBm6DRvtksrigOwRgkvPjv/d3kWcTMgqcljx5cJfzesWLO4eYOtTvy7Oav/Mz77G99/N87ff9DnZ2niPLdrB22oXeq3q8L3G+xvuK1fIUrw0f3z3GZGs+fPOMxaIJbMELp/MnaLo3DtKBi8UljLuebaefQB996rxdL4dfpAGddkLZHnaTS6Z+8gkj+jTXy6HlEj+fUx3NOX9wRnm3QkejKPQKaupAiA8dtHGeYun4aHnK3nsf8pnfXiKjETefe5YbN3aoPjplsQ6pqHkWpK/Oe+alwx5XvPPeCbdu77J/tWY0GSUD0ohqZILdHXN1VrB1vOLRkyWrMgT41A4a8axcjMmIAlrn4jjdeWoXFnjtiFFsUDVKtYKmEVZrx3y+YLVcUVdVl4BwYai6YZjp0yesqZyuJ/4icOflq9y69QqYUGevV3P+7i/8EuJLJldm7I22EP8wpG6dNfz8//Eux2dzfuiHX2R/7wpXr71MMbqKNUX4DLShLI+om4rlasFquebue0e8/2ZJWVY8+aiJAaDpGn362tJLiGz6lPWXsvJSEC+7TEVyYXKTpqilD09IrL/i+DuS/PWSRf3JdND2tw1arvHzOeWjM9aPVqw+XrA8q5D9CUajQYtj8AGqd+CEe48e8oAVex/fo16vKCZTnv3cF/ntP/EWj3/un1FWDV5CU2aNQY3gVFmsGx48XPLeu0dsb405vH2FPA+iVh+5CqhiMou3GcX1jNs7BW5eszhfU3rl+LwKaVSqrJY1NUrZeDIrzFeOuvFUUTeYWcu6qhGtWK1rzk9r5vM1jff4qPhqjyST3Hu9g5Z0ZP9Qfw74b8HrA2WlDSOToQKfefU5RtOd7pZ9fO9tvvHtN3jxcJeqDQ/yod72zvH47pKv/8ID3n/9nNUi48s/9jpf+urLHF67jXpDsbVF05ScnTxmtaz43q8dc3aivPVaxdF9jZHPPe9HNzMkBhy2tJ6+HLZr1S4XFYL9As0u0wkO1d9PwcS7A7WJDqQ1MGbIr75MlfIUywL1aLnCn51RHi1YP1jw4J0jnpyesb2C6eEexma9QYt3QZsXyw51HtbKW4vH1HnDa99/m/ff+g4vfOHHGO0c8MrnPsUr3/+AX/vnH4a01a6hDA9orcrZouHNt4+ZTnJU4NrNPbKswJjgJeFb2ZAQKKTTEcV4RLE/Reuag8aHoUhdc3a6Yr2uOV+F9NXpJMi88qII3GxjWK8aVgthNRVOZ1Au4XwejMk1g6ZSTGaC9Cq5wHx6inVRD9KZ6LQfU6Oesc3AQO0cn/3857DAgP2DAAAgAElEQVTZCDEW1zQ8uf8xZu05Xi54880P0SyedT46RK0b7r274qP31mSZ5aP3F7z+3SOu3drj+p09nnnmgNWqYTRTHt4reXyv5LvfElZzmD+28cSVp4IbmzaimxdQd/qqXkJdu+w4FLKnA9YbxnlPTe9M4bo6uHNGDFo+AT3pvpOv0fUKf76gfHLK6qMlJ+8+5vTknPOTVfhWO7shZRXtxtDt+2mvd7xQn654Z3kSwjed8u1f/iZ3XvohxjsHPPvi5/nS1+5ycrbkt15/EN1HhcXaMRtbjAjzyvPoScnrbz4JKIU1HB7uYoscKxoV4TGNVvpTUaxBpcBmgZUnjWFvZKmbhoM6TAabOgxgvBVqFxb+9lZOfnXEalGxWFacnJSslg1NbA/wjuPjNfOziqUXmnXMSTRCXUY/PBOEC41T1qXrm8QoLavx1Mazdzjh8PZzIXAUYTF/wse//hbX12M+vH/K4+yM3ckUKyac0L7NRXE4gmjg4d2Go4drtnZPmWzfpxiPyPMZewcZ56cWpWBxAquzPAjkKzPAnFH5RIHHBXLchhq2ayIvIGD/UrDdJ6muE6EsNiIb5sLX6sbvBi/vG3Qxpzk5ozw+Z31/wem7x3z0+Jj1+Yq6CUOGcVaQjXPMKI+y/0i1bMuMiHTIWvnoowc8rhbYkQGjfOfbb/LSK3+fr/7+P8L24XN85Ue+xmK5xK8bvv/GI0CZFCbCT2FYf7ZqMPeXmJg0q95zeGMfk2WICeiFIYpdxQS1OTFYvhVPW8FiUMkCkmGC7Mk3AeVQMRgTJpCmccy2DJNJwfbWmHXlqV2ov3GevYMJ9byk9IKzgXzkYlZ5uSgp66BUma8ci0XDfOVYnjcR3gvk/rmr+b0//CqTrf0gAsbw4O3XefBP7jLWjIfHC04OVhzu73RBUd4HXnvrq+0IFsPOKVXZYJ+sgsrdnmLshHw0Qn1BvZrg1gbfmF4fGEskfQoMfHng5gaHXi+32r1g0vnJxKEhzNZLsiTBohuMTiLKMelgu4GOXLW35PIN/vSM6vic9aNzFu+fs3x0xsnjOcfLBWVVh4kZBN6uMUhuY2MWYTpC/l8glzeod9Tzkn/67rs8aE64cTsw7a5enfCdb36XOy+9zI0XXuXg1qf42u+qcauG45MVHz+aUzXKKG8tdoO97tnSIfcW5BlkGUwnBdn+TrTAauPJQvybajBFFwza+A6FCDLE6GaaPDdrLRkebxTrXMjEjulfFpiMlKLpQ462dka45YhaYd14nAt2u2KFZndE5ZTVukFsMKR0wUia5crT1MFObGQsn/708+SjnSCJqhse/eB91suSE12zKh0PnpzzxTu32SoKjhfLcGC4cO97lEaD/buLP5yIxFKswZg15boAQiScyB6YGbbI0WYU+oE679ZRtPp5CgI8vH31E6bfqfWc9rCd3zhZPwF3Vt04oVO2hkGpMVr0AxbpLWNZLXDn51QnS9aPF5y995iTe+c8Ol2wXK7DeDay0CwhGkzEkBUZZlSAtaHOjti0RJ8L1GAaWD4+45/f/4i1VMyPlky2C6aTEafZmt/69W8z2zpg6/AW129/nn/l3zhkcbLmF//Bb3B0XuK8UljT6QYr5zmbN9y/v8LYYwprePlTwvbuFsaaDnNHBZNchx023pYiGmwRRAN3xEj4GWzMf9fYfAU1eF8LS+vDYQRvhHy7IPfKyAftY92EG6oZeey6oWmUSWEprcPa8HVpqpdDufP8cxibI2JYrY54+NY9llXJw2qOF+VkvWZnPCEjRMCF2lcTmC7cCg2uy7cxRqKzvyA0GLsK/iaU5NkOGVPyyRRDga8MqxWoN3gnPYPzggXY/59aZWONbjgoZcNcqad9n0Qwe6GmtpEPPQGCuUr3HT3o+Sn12Zz14znre0tW9895fP+IR2dz5usKV/sQV6x97afSb5xMbA+2xA9efTBCVO9xTYMuPb/8vR/wcL1EcWTGsKoaquoxz79gePet+3zhyyfo7iHj6S6TYpt/84/9FOfz/4lvfeMtjk7WNI1jXPSsskaVxych3DI3wmRc8Ky1THdnMfDGd5taooed+sjfCG+uU0Wr9GR5H4lORMm+xsY0Je9KJn1aFMHApo1wNgaK3OJc6FMyG7BzmxmKwpAXhqwxmDLIsHwsgbb2DkKOjHrmJw/54P2HHC1WnDc1TmFeVzS1i1bZffxwSwPwsczxiQ9AizQ5kZDu1QRd5rgwZNmCcaGMc89sMkMb8N5wclJQrZVqbeJrSaf7aF/vgnXdgLNyCZk4OamzAS3zqXgznfvPwA6hRUVEgAr1Fusdui7R+ZL6bMXq0YL1x+ecP5jz4aMnrBYl61WFa4J4VNoYQe1tyDxgrJCJYWtrioyyuEiSH8bHerYRlqdLvvvoHiIeK2Ek4j3MT1e89drH5GI4/toDxttXkO2rZOMRB7de4d/5E3+M9fx/5ju/9i5V7UkDPUWERuH4vOGtd8/Ic4sReP4FGG9Newq6RnKU1zDniU5H4aROwybpNiMt9OiDE9KgRUk8QLx33WWobfCRRqguWojVdeBP+1ge5IXBloYsF5oqbJ7t7TGz/YOAbqjj3jtvcffknONRw8LVZEZYNDVn5bpHpxJCv48rLlgKX2QtdGiWCMYoztTYwjC2hp2ZZW+7oPEOxbC3X3N+ZlivDcv5mNUS6sp0nvOXuigNSJ5ySW54b2WQ/cvoRC6qt1MSYIhrkHqNrCvc6Zz18ZLlRyvO3jtmvpxzdrziZL6iKptImO+3pGAGYLpENXXQjxpMlod4tlg/977KcZOV8NpvvsP9chFy+SLBR1oFsvf81mt3+at/+uf4qT+xYv+zz3PlzssUWzOuPvMqP/0f/3H8f/O/8GvffZ+66fkPXnvI8XTe8MZbJ9gsfNjPv3idfBIFn+0prK1wNh3XRxJTtPtqIo+jyxyPGdXSpjK0I+vu9Xv+dzcuNiaM1CEMbBpHE12aIPA28sxgW6QD4XOv3GY8248Zjo6z0zM+PH3I45Nz1nX42rOy5p2PHwbsPb5+q1vx9LeK30AWtIMLh1rpsc3YnozYm46YFjZYrokAjnHhqBuhXCuuMayWwtlZznJuqGL6b1jcegmnSQcQsm74hmQbnqM8fXIoF41HPMi6RJdnrI8c5V3L+QcVJ0cLHh2fc3y2wDWKq5ogxfd9RK5EwWYbxxBstnoNhIghs4KaqHjWZEN5F5q4RqnPS/7Ru+9SupLaKbmRLjPRed9p6I5Pzzj6++9w/q33Wf3eB1z/ypeZXLnCtee+xL/3H/0U/IW/xre+/Q4OidKsLt8e55Sjs5o33joNEJmHF1+6Tj7OEzg4zOzCRD7wSny0MCBuQhMXaZvv0vKwQ6yv71xPjRHEt16qdDeGautNrbjK42rF1f2ou/17NhWQqvLKKzfJ8imiUNdrHt5/zKpcc7ped9T90iv3F3OevX7AW48es2qaBNiSTqirull56kCv0Y7bjQjTLGNkLVmXdxrKtK2JiV6DDlXPYgU7+8pqKSwWytm5ZTm3eBdDOwepsUOhqwzG4ro5Kbysmh7mpmjcPrJcwrFn9URZftBw9m7FycM1i7JhVVaclyVV04RrNVF2Dex6E2piH8scFqMIFDYLH3i8UXzMKulceyrDh+/c4976nLIJi1dTDL296r0ylozRJGNrOmH+zfdgWXH4O77M5Oo1bnzmh/kP/+Qe4z//V/jHX38dMQErbr/eCJSNcnpWce+jOXvTguXhDlMRbJF1LqWaqDBCudCXc0ZS2xPBq0Z73lB3KgYxmpi7D58LAYkMN1BMw6qiSMDHv17k4VmVpcPYkLfiFbZ2tsAEjna1XvL++/eYz9edR7YgFAYenJzzhds3OZhN+bg8x6mPN10sQXQzni3FKsJGmuQ5O+MRu+MR06LAKsQsOqy18cYJHHqTh1lFnsP2rKGswuLeW+YsF46zM8t8bmgacI2Q+jw+DR3JLj+B+5q6d5gMglDWc9xZSfnIs/rQc/QD4cmTOaeLivW6pqybkGXd1lu+P41FN4gJsQAzMmSHGQn1c2YtPgtXYBtn3Fp3elej5xX/9N23Oa7mZCZ8bVeTS2CY1c5RWMO12YzJdAyTjAxh/cZDntT/lP0f/2FmB9fYvfkyP/2f/Ac0/n/gW998K0bZxQVkwntclJ737i44Oa1oPNx5/oBr13YYTYuYotvXepJMAETasF/f2QwYCb2CSD/ONilDI1lsnnBLSERR6sqFAKPGdwdWnpng3+FhnBlGucGPQx1w9eohYkIfUi7PuHv3EevKdZqK9nQ/rSt2t6dhoyVXu+owloRLfJmDw2v47LZGBTuTCaMsD6WPi/1F03Q0X+88WRaML7M8I8tDPvmoUNaTivEEtnaE1SJjfm45PbNUFXgXFnaknF+omLMhFNIxBnrtravQpsGXa9zJgtWxZ/m+48n3Vjw5dpwtalZlCLwJ7vSpTswMaqtu2bYGLQypju2HLXEx50Ww8FL1/UlPGKiY2vLk4QnfefAxZeMY2aBizozEGlyiBEkYGcuVyRQzzmjGGdKEWmL9/pyHf/9Xuf4HfieT3QNmezf4t/7dP8S3fvXP0zjfJbS5pB8uG+V0XvP91x9xvqxZna149vkrjGYTJJYaaPSZbpO1gpVhJ/gzqsEGTHVwhUob7hkdl4ShMFmj/Ms7H5rBiDxIhNHEALllNslwjWLFIZmQZVl34perOR99eEyRW8rS9yVDfN9Tk7OdjRKLr/D+nCY2vxtVaXpa5tYyznNGWUbWJg/7sOC9tnYHLlgyiGAyizYek1vECEVuyDPLdKys1o7VpGQ8FWY7sJqPWa2F5dy2dimx1pbNGrrnnHY/iGvwvqZaLqnPGxbv1MzfWHH2qOHkUcWTeUQqGp908tIvUL2Mx5FQTyNEI6Zv4IR4WktbK3rauzrgtr57OMw97394n4flCjpvurD4cgQfBbGZMeQm48p0Bnm/4QSDtwIPSx7/ra9z5Sd/mGx7i6wSPnuwy68/PApc5yw0qD7e6xLLj48frlkvHyN1w3Scc+22JSvsBo1XumNXIrlJNaJC4lsoO5CeYl3lL9FWa5KSG4hZGsxwWnIS7WMSrCo2M4xGNhiyZRL0rhH3fvju+yglJpZShRXWvvd5rquGwpihHaH26V/pKb0ZoJpbS2aF3JpgQWYi4hR3QVDPhAxG4vDINx7NLFJ7TGaweRjlF5nBTAyTibI99ZwtHfPJgu06Zz5X5vOCuhTWa4N3Ef4DsoHdl3PgoXE1zXrF/N6K1fue8mHDu7+5xpc15/OaunHReZMOL02ddFIFcuuRJhuE9H4Ry0A+1K54I4LkWYxIS1AV78Eb1sen/OO33wunkJEL4WQm+i4IkIlhfzJFjekiETo7BCOU5w0P/vo34CDHl47f99KrvH/0LU6bajBH8r7fkE3jORXh/qMVzz1bU1cNJg9+eaLBQrdL50gVGS7g7L71zTA9W119OjCK2HbS5QfnJKWsHd7FGGjp1ZvehJLLRmsGW0Bmhe393TAj8I6P7n7MerHqhkmN68uW06pijWM0KQLzzpFEfwwBXSNyQWHSuFDG7M8mjPIMG28Fk9jkGjHhpO7UW4LWvkss8F7AOBgF94CiCEXE4diys6VUlWdrO6jh18uc84Xl7Ax8Y2mcknnfhGbD1bjasZpXNEcN848qnvzaiqO5Y3VcsSrLeCIzKGAkKbR002Qp0QSK9AHycsFOSgaLudsU0US8xZ27lyqV+dmK9+dHNN535UV3CsRTpHVBmtiMSZFHbxGJNMk23jSkTnkr6FFDXdVc2T3g2niLs8VxgAm71KzkAzVCWXtOz2oePl5w9fo2+TjvM819bzes7VQwjXKLKEZbU7REG03YBn36ao9hN5Fb3XItMJDFRrq14rNWyDKhMEHBLga0qTk7usdv/sZbuCY2ZVGeVVih9sq8drz18UNmsxGZNZRVM0Brt/LQpDcRPVrWwa6sndzm1rI1GlHYjNzafsAWR/tGenxbO65Sr1oIjqpBzFC5GpuHTWNtSAYY5YZRDrOJsJo5yrJhe9UwnUJZCWUpZKvlAlM1lKeO5X1ldbfm9PXA0T09rVjX4UN2MSyyG4nqBhXpEuVWC8P12XbtBkhjk00ixR8qZBp1nQeGICG0HfDnFe++/zEr3wRjlW7ThKsxTxACVNjKCooix4cc+7CJbGTNxZKmw3GtxRjL9dk2b8yPwimI4OLJ1w6YQsQvgUf9YMHu9jE3FbZ3x8GosMNuh6PaNmiuLTU0Ud20x3iH/UZ/ujZ1Vl2ImGiiG6mJG9RG83MfJ6jGGbIYF2msQaYF3te89u1vcjI/p7AZdRxhexl6XTyqV/y2/StsjUfMV1X3HEeZZWc8Zncyxqtyui4x66C1rL0nN4ZRZskz2/04RmQQvCSJdUVoL3paaEsT7QZQxEbSOaQQvArWBnteyTMmk5yqckzHDdszz3LdsC492cM318j9muqR4+EPGtarmvl6HWT3bYiN93HcnGCeelnwcayq2rxskU4H1xqNk2a5iDwVKtSuCYmISft3nccvS7794V0arUNtS7v7W4BAO+QkF8NuUZAVWXx+rf9zdP+MTVh3dWYGW4x4dneP/OGHrJxDTGg20//V8cpeV557DxbMtgu2d8bMtrKYcRglkS2/o9voCf9FIhSXTL9Uw9i94z23a8CB1p6qDgQlQTDRyswaOrN0K2HjZZmEeDqBxx+/z+HNz3B2fhIsglXIvNCoBGqrD9pIAT64d8TveuUlpkXelYzGGHaKEZ+9cZVRllN7x9F6jTk5x6uyqhoyE+rmURYEwwPEp/XaS8TQxvYMvNahi4j8KEN7PV81YE0wfrdEK+TwmYyLjDz3zKaBDpC984tP0PtCXTtWZR2Uyc5FZ3vfLeKW6da7SF4UWZlkbNzjJT1RZhCZJj2ykdrRpPmF6SwlMGZAV8rZkzOO/JLZuGB13vRfKz0Lu6s7RdnKiyA7cj6m+4TTzRgTTijjI6k9vkdruL13ZYCJ+5hMFfyiA+aKKo0Ki9Lx+NGC5a1tvNsKk7MuUFIjd1qiQ2Ai62otebT/8/Y5esJCItJF1YX6udXohYUs3XWMUag9TkLJUYjBxQHO44cPWLk5Hz+4j6Js7Y8Dq3EZ9I0uKRcXVc3E5hRiBmXhrMjZnUzYnU04L0u8FU5WJaOqDgeHtUxHBbuTEbk1Ayi2hSm7w2xjbO6T8lUiCtYJGjSc1DiHt4JICD4yNsRXWxHy3IZn65Xs4Q/mEdels7UKjpmhpmkdgiTV1mmvajHxTXbNSbcbk+YPGaAbra3rkC3dPoQ4XOlKhsSKSh1Uyt2PHzN3FVemU07mqwEeqRLq6Lb+tAi5WBwO44IzaCdczkz//cUj0gbYwyQbMbUZax/YcMZKV954r4MTu6yVk/Oa4+MVz9Rhji0Rv26no15DcLR2V1wPZw03e9tE27bE72KWF00T7AhMOJ1DudFH0RkHRnrGnfqAey/nCzCGVVVR1y5s7pgI0HhPo33vUXtHuayYjgqsDXixFSEXw7jIKUY5E/WcVxWjLNB71VgmecZ2HKZk0RNb5KLP4oVfK90GFpWenJRkUfrO7qVHRoJtsZBlgXdtrA2U4/Wq6qZqPpqC+1bWpIkqIBmDor0pYNuQWdMjF23scJufB8lwZePETmPMh2atiXV1HDJ4gPOSe4tTDrfHXW/qvGJFcPSoQhtqZLDMsixxx49526I4bUJYjvHRaChCa4YQz6Y2+NY5pTB9wGebOaixW3MKq7Xj/oMFzzw8Z+/GViDXJ/Y4Ph4I6ck8mLRF4lE37Yx/wZvwwbq6CT4gsZbPjMXm4YSWOJ0UE2G6aHKjCE4UXzZYm4dbVxWPUjrPunHJODu8r+Oq5u0Hj9jfmTHJM9a+DnHPEvDhKgszgklRsDUqOMszLEKRZXGB294DUXokuM2XlMtcFls6bgvzRrGFb0lSPplVm3jQ+4BuaeMweYbJoi+La4I5oG96o0Bc4AsQhxkSbQIyMRSxTiqsZWQzivjr3IQfJjOR0mgNNsaiWWO6Rqr7SWWznu6JQb1Vh++MZLTxmEo4Oz1l63DCH/jSqwMDSR0EyfQbMRPDtMjDoooq7JbkRNMBuB2WG5xZICsKxhQxV0UipBQbr/bE9b12svawqhxHR3PqZYXWQVnjdVgLp/VQ2+V3t5kxYfAS1TJdpJxT1q6JnnlhQRsrZJklywwmi8QfCYhAyBvvPaCrRYm1OTYPDbgdCZrBqvHRKzYeDAqlKkeLBTcO95hNiq58tGKQKIMz45xxkTPKM2ajgtwa9iZjChvej7X9bdt7YvfNnuoQCWvbLtOVeO1r9j7XbfnRrk3fKNqENIOmbGjWDXVZk8VmNxz9qlFNTFdKhLrUdB13WyO3JG+R5MSNp3P4OUyyONM54cY/mxjnACY2IYY4Nhlae+bLJeAZFQVb44LtouBsXfXdczzliILWTIRZUXQ4bndz+aAZwPkgp9J+nwFkuWViM7LI64h+NuRt4qz09XV7qp4vap6clOydrtkrbLgWpR/xt8767fRMAW9axl0yCZWEsqshHMjF0sWIxEUTG7/I1zA+/N673patvQtmZkRux0zGodErChuw8AtsiPAVR/Ml2+PxgDNxa28Hn9uuJLDWMskLdidjjMI4zzjYmlLk2WBNdJBuLO3auYd0UO8GezNxkunEwK13niZiFBP+uxjpbz4PmU1bMWGQKiGbi3NjPG3S0qELgZceBJKULcYFwE43RAiyoUBo6iYU9wEHw68rVnXF3nQL9cr2eNy/7sARLbqFImTGMM4zvGllUz6qQoJRdyg1pMs8UTEBErOG7WIE64vuPgPRdYJMrCrP8XnFo6Mle1dm4XBQaZOKBkY7rQWu187uqMuQNO2toRIcozrbhriYcyHLTRjkxFo8syGIyEsL+oXTNAeuTA4QhaKIOLn29IS+PG2b8mA8OSZjKy94QvB1DryL/iQVE0rK1ko4lJ3xdohYf2fm2C3exG96k+Sk9GkBni7PsVP1ex2UpGgfpNqtARUykzR2mxW7bNa/7Q9k0j8fohcilzkvScfsSFMzNKnJNyNuVRVX1ogDsQ51gnpHXljEZBiF2/t7PLO/S9Ucsa5d0pVr974mJiM3keCERigomBB6r7iyIsszTMzxwwR9lDXClcmE5gSyTGiiltG1ibSeoK9rGX0O5ivHw6OS8dgynZ1y69n9sJFSX+2WsaZDzWZH/4zHvjESyr6oIXQaG9NMImwV8xKj3MqKxXulkTB0sV6YZTnXtm5xOL2JeM/+3j55do+mUZZl3U9yU9+PaH/gas+tw13un51jMJ1LlcaTM0wpQ0kzzrMI0UpEj2SgEemGRimVWTfs7bVf6D7p37zvkbV+YNbj9kI4fNreKdMURkEG/AtJJnciadxbYvAlZhh1rPQ2rwNcWfqaUfvjKMB6CUFGUt8lAQfiBOOhWlVIZvFNQwM8d/UqucsQeYt3Hx+xqprOmKV9B7M8J7fBpsC157fv7WFdAyIOFY9Rg7Eh5tgYw04+xqh0Q5fGhyGLlQAl2aiMIY6gnYezec2jozWzrRWHN3dDTRu7XmnrHR9qV8F03OguvdX0WLVoMMSpXOBRtKeiiU24bQ8aI6GRjYQmdZaJGm6Nb7G1dT2M26uGq4eHoMFHryx9VzamtF4DHK3WvPfgEfu7W2TWYlSwYhP/+zAVLLKAbrQbKzOWQQ6VXuITmgyxNEU0uqa5H/O3pUQvdogzg7426yaoJvJPDN53jY52nNdUKaDDoIoEG+y/ZvPrh5paSGJmLkmAGX6fDUVEVHgYr7x/9x513Ur0A6pxZX+bZ67sc2d/t4PSXLL790YjtmZTMmPDQm/B/G4EHU3KG9e56lOFB7c9GYe4igCD4uL12kdw9wro9rmta8/RWc3R6Zq33n6EK5tkSNQ+U+mikiNhNtad0jWD0sJ6jbKumm48LEaSa93EpCuJ/OdACMqtYWbGjOx2MMSpHc433LrzIs+/dCcYrTsdoEySQGlnZclCa64f7HF9azs8u8hm1FjLelUKk5FnlrJpKGzGeJR15Ut4Hn5jfWyw7DUxtYnrMPBV+l/7REfYCnNttGcwLUyc8NAz9UQzQDPAiv3A/kt7roSEMbBJ6+OkRtnwLe8XtSS89Q7ySkWOPYdDvQalSldyesq1I8uzbiPhgxzXGOHFa1c4X614cr7kbLnuNmSRWW7v7JBNx5DbEF8sitOQbtregVVVkxkTo1stxgZ66WQ0it4UJMT9cK3bNvo42tk2TaiLHYH2+PjJmtHIcnK8ZC+fkdsYNm/Aa6SW2jY5IPYWEmwPiLI0ZwJfIzMG6z2uHV5Jz5Ew1nRlR6gnPWMdscVVMjsCD9WiYn3/IbPdK1zd26OsXJrrtyHlCO6sHzw85tXn73B9PGNd1v18gaHGyUiomx1KVTussUM+dXcAJtPfC6ey9nOPDf+WXs0kiZcdwwCrpETOUiipG6+3OXFekpK67xQ7+ZAMyxGJE7i+ZtZE3Jl8c56SKJ2MuzWO3EUDN2G9XJCJYe1dmCRpwG0za5lmBXvTKdNRzrIMSm2vysFozO29PXRmsLklawjQVztmjQ/ae6X0DbkYrFHEG6z17G3N2DJjSj8PFgXxETineBMasVb/1g5cjBHKxnM6r8kfr9jeW7B/fTus0ciRlnb4E7nbNiJIiARuibFxwZteFBGXUovgSAoPSdJ0+4zJaofJaBtjLfWiol57zNqxdeuA3Z0d6toFWmdCjdQkw6Rpb67SMRnn2DNhEo1+TLzqGxcmls5p2KzxeQ7S/xjOM9J/y4bNXCDta1/qths3RdtEBgtaZcPOAMg6jK89gSTmILaeGsiG6pao5oiRaJKeGm1trlE7F+tklaGXRgpjoZ3xoBfpkAgf/5t3DbYR6lVJ3SW4tl150KmN84IXrl1lXpZUjWO+KlnVDVdHMw4P9simI803mN4AACAASURBVMilQxbQBvGepo+Xx3lHTbDt8tYgWHa3tvnMzlW+/njeXX8igU/QEgDTfsETVCUNcL4MKVtXjlcs5mt2DqadyFWJ/Iv2OVrbmaV3pbQYGprwnruGS9p04W68rvQnrRFhy83Y3bkRounOgjXBvh+x9+lX8apMptNwU7Smj9JP51rGXhDaWnwuHO5sc3S+DBrO/oolNxYnTXeijvOcovNOMQP0olvMiWeJTyxe0mGTtqzMlp1H//t0gXfYtvjBiZ71aUT9FeHRTpw4jPDsyw9jDCYSkDDS1YAmlVnEa0pTf1fpFZXSqp7pO1licE87uVQFVzV8ePcBpsg62KkNQFeFPM/YM1NeuXWd+8dnLNcV23nBpw72yfem6FiSpqFz3sDWIS239ayrm4YGF04iLZlkW3zx5k3+ycP3kZa/0W7W6KQfQiz7wUzICSckBVSee/cX7L53xMu5ZTzNySNOG1iGkVeSZZjMRjfRKERTT2ZMN9nrBj/J8NTEz8JGyCxvDHmzExQmVY1UykE25fmf/gkoMnRdsnNlF3wcsHTq7v4OMBIgyOPlinfu3uczV25w78kxWayhWyxflDBA6/z+Qh1svek8qlNwWQelx0ZQQyxraWV0CZOwvbm6U9sMeSCK7VAPRclMXEDSKo99OtHRBC7pxZuhdgwfqBEboqklNCSYJCoo1spWGHj/ts5DvitL+p3XBseLtFM9T1N5JqNRcMd3LtbR2jWARpXxqOAq27xy/ZDHZ0uem+7yQ88/i9kuooQeTGb6mr0MuKVzMSE2/mylU2ppUDwjKu4cXuXl2T6vzx93nXULNfpOSUPHmfZJ47BulJOzmg8/mpPllpdevIIRS15ENMDETy7GKQ9Fvqb3lvM+ngGhTMhizRyQhbCoZjJiotcDg25dowvH4SvXufOHfyejGzfxRvFNzWx3m9nWBJufdnTcgc90/JlsVJvsbE24sbMdn12/mAM2HSDR3ARfDSMX+RthoZnOqbo9vroDtOXtRPZjDw/3kGTbZ5CUIj411OhcmITMdm9G8VElIVGrpqKRl+qTGiia+KmLmr1AAjKmjQmKtMwE/vMdrTQRAsQd2F7jHQifKDaIH6BrSvLcsnKu408MphqR4jjOc3YnY3ZHY750/QbMcrBBgygSxsNiBUMWvrcRbBMME0WC9IcSlq6i8p7zZsHudI9/7dUvcO873+S0WaMt79j09EefaB66eG8NvhlzUT7+eAGqlJXjc5+7ic2LGPZpwhS0rYNtG+oZjBrF5mRWep9oE5h0CeCPFWFHpoybG9BYdLVm5sfs/8RNDn73V5DplCZyVbCG2e4+B/vb4O8lt3doclrW3ySzgVdOaPi2RxOW4jrOSFoDG4RxlnU1rjUmEddqx6lpmYs+Su9sbM666bORZLqclBmmF2W0zVgiiu/YwO2izsRIp1A2PtQkXrSvqTXIYnyHCabXSXDJ9Ai2lWFJP6Xz6RWfTI1au76BU5P2C96jeDXU3rEu15ydnVP7pGHUBItv1R/OY43lys42z+7t8cK1q2RbOc43iDMx1dh08mrJbegBMo9vTLCx8hoC3c+Vs3LJGWDn59y8cY3f/9zL/N9vfD+iFKnbU+Ih13JfYoHaOI9bC76uqZs5q8rhET7z+Vvs7M/IbITpRMIJbWwcsoQP1xqHjVeed/Q6PWM6+GpbtxiV1zHk+NOGg+cOuPKHvoTZ2aYuBE8d6a5jZGTIRzO2tidMpjnzsyqozntYnjwusJHNwAiNelamiShRT+sMLMNQ40/HI7LMUGRZh4Z18GQsLdsmzMRbu120Jtq5i0kbweFiTv+8pQ607lTSGYnGGrp9+NJxIUw8rXtzFC/B8MOjCQatSe0dfu3VBxhLe51bOwKXdCDY22YkGkQZ+FEoyqqs4fGcsmo67DOc8NpxrZ0P413nQs15ZWeHr77yHKPDbdQITeODINQmulUJdZ60Y24DagVxHnGO8daEqq45nS+5r8fcNIYf/dynWbuav/3OD6I7kyTlmGxExGh3BasopVfcXFFd4hQWq4bf9uXb7B5sU4wsxlokM8Gy14bBkYoihcNLmApafDdUaUuNLZ2xVd8iU4spDbOvXGX6O17BbG3HgZfi22EEihrBZkUoD60MZHIp5UCBrVEgJs2rknxvRF26KOSN6EJ0qLJFhhUosqzLTe/7omEPJtHCINAATMfYJOVLt2tFwq2PJEJcGSYThr/uO1y/szHo2V4B4fACVnvSh0SP4HZqZkhl6RvxyV4jPpxAK1GV0UqwOlNGNJ4QMuAUWKTDolfrqsfFN8aprYTft82IFYoi4/pkv+Nx0zQxTiII3MUavEncmrIIpRkTeNI2kLt3/Q5N6TivSu6fH3ODfX7iy19klBX8nXdf68bErvWL1oTpKj3q0eG7DuZLh3+wDAaVqnz5q8+yt2/IJjnWFqE5HI2gLFFpcFYYjzLy3FJL3zCLQCEZO+UhEy2YXJsx+t0vYvZ2sKNxrLcvRC0EUpHJO46Ekc203lDSjyODcns85qwseTw/Z3syjsOePvjd2t7yIotErMEmb7Fx3aBQxCFXO+WUhKWWwpHaCabbRnyoUx0M6jpzzwQaaWsUE7MsROP1J73As2NJabg+2lNbkqlKRxHc8K7W+BomvkY/jR9aonewTmoCoRtsLB2kWUTecrQ98C1G7oMWLUJ1qiZc4WrQxNFTJDQA4bY0GOtxu4Z92aO++4TKN3x8+pgb/go/9oXPsrc15Zfe/k3ur+aDyagwHCh1EqZIYC+r9lmVzLbWvPnGQ27fKnnhhRuYySS6RFkks0HEa0MqbZZbrPedRZkxhr1mi0O9yugrN8m/dAcm44shwBtjwEwtlV9yPl9R1S76jfSL0AiMjOHa1ozrO9vYLIzmt0ZjMmPC+L33qOgQDhMnnMPcko2t0jITtR/fD6C4DerlcEphOpptQo+PQNqQyZip9rATKWtuw0/ERI6Bb2ugFiBPOBrpLkwXceuYmebNDl2ph9OhtpwJkFg/dfIb6Et7QjvvsN50nssqrXLFDArdtjoyNv48hlh2xFOk1UCKITPArODgcJvz0wUr3/Dx/Ij9esYXnnuO529e5Ze+/12+c/8eTcIEk2Rxt8aR6WSsrBTvKt5684Tz85J7H5xwerrmS1/9FBObYV1D6uiiJpCjcmeiclrYcmN2FzfZ++kfwW0XYQMMw/cGT7f1TTFiWS9PeXjvnKbuAzzTgdveeMSt3R2m4yJI1FTJcxtkYEmp2ZYSNkq1Bt5znXfbpva5h3iR/nRusXblshzWvgttVTUm3uq9QU//RRkb1MHBcFN6i1uJ5UNbI+sGOU8TEWTfqUoHlhthmFmoPV83zcwYnPSaAvDaG7VshBv0HIO40Lsf0nXCSxpFbeTUahZO5P72vBj/IQY7yhhtT2kqx6h2nDYlx/WS1aOK/Z0dfv+XfohpUfArH3xA5f2lVln9TdMfllUTNuH778052l6zqj1npeMLX3iGazeukhVZ2HFWOv1j68qakbGz2OHZf/8n0Z0xRnzSxyTWL4niPnZXiBje+e73ePjkNJlA9s9yklmuzWYcbs2YjkedTq/9bPxg5twruz0blhatfZxccHbsnrWYfkH7DU79gLr8lGiW1OKh78las8Zk4KGbgYciF/Z9J0FS05UX3a7bmCpKaiXfpTRJlOGbbuHKxuNtR+Wt4CBdJ7rhf+0jwcib3m4rVUuIuvheW8OTUH6IMRirSclFb6tAgPqycU4xKsB6TG1ZVmsWTc2j42P2Ztv8nh/6MttbM/7ea79F6d1TckOGJUg6mDk5q6nePeXkvKZZVnz1R+Hw5pW4gByeYOqYRxXLTbvL5/7EH4W9LVTrjZOl//QlMcJUfOiJvPLr3/kBZbNKrNXayZ/h2nTGrd1ttmcTiizrSV6qA0XQ00LR2hYtHX/370UvqDo0OfgGJgAwmEz2w7lhgISRIdVZL8spvGCl27nQJ56pob0IC1QZqhP6HnRAomFghxrFpuqHzA7ZqLdbCmV79ujQzVeTBtGhgT5pTFd2SCua7dSmPeXQ2kiB1yScXQhCWTFIa6yYG8a7Y5pFFfm/hsLWrJuK+XKOuoavPP8yhWT8re9/n7VrNrgRF6mRIn2P4Twslw7/cMFbI4Nkwo/8iLC1M0W8i0OvUGocbu3w6h/8KeTKPo2WgyUmHcUgKtvTgk4Dq291fsQ//JXXqUrfnbwtln0wHvHs3g53ru6H01mGRo6iPYvxaVEPaXR3G4PXcn0GGLPpF7amqrz0tk5q5nZo0nVaMswdb9eUQcgGNlwbGYOSGKIMywvpFvNwNMRGBScd9jwcgfskg4WubpUU10ssDSRpMpQhe0s18UwzJkz9Utwy8lNCo+FjM9sv7AANmb7eNK2Dc3ireQZmWsCyIhsXYBukMWSNpWoayrqGJ3M+f/s5Rrnl5197jePlujtKUpk+GyY87ZOrnMLa8/D+gt3dER988IhPvXyTTBSxlizPmIpw+/qnyQ9vUFJusoz7X4m5+FmIQZuGX/zZv8mHD+736o/4WKc24/Z0ixeuXGE2ncThVmsnHA6L1vdDNU2gfEokYFvPSmLauUk4ukCukkESgKSZkNqHKCEyKIFT1y0PZDbF+XQYwiZx7JWC4zqYkw5P4E1rXiNccGBvr9zN5AshbRylyxHssEcdasJJ6IjtoCM0YdpNKlUlWdQh5sx3ihXTLXDBdw8nDJcirRMfZFpW0VGGqAkfkum5y5nY4AV4vuSlw9v861+w/NxvfI/j5aobQmzWmJo2kPEtlo3CecPxkxWFCFrXOKM4dRhruLZ1wPUf/0lsniOu7K/2NLFMElQ8ERrnkjM/esBf+9mv0zR1VwsLAdV4fmuXl69eCXbDSS+jydBFSVyzEsJZ4maWBpjEgdHw1O0guUT9hAy3h2zYEqfWF6kblybMQzpthJBZa+JJF4kfHbYsF3Iu9CkFlA4I4sMQIunb0N4voy1l0qsj5U93BoQJCSnima16oV32XvrF7aIPBR1hfmhiQ+voj+mxY6WLVEDC8KEjTknM6/OGfGsE8wozyiJlOZDqXWbInMU1DlnVvHLjNj+xWPLz33+Nyvf9gSaO2yRQWa/ygdIpx2cl9+6dcu3qFkUe/v7E5tz+wtcodg8oWTOATmQoLN08V0Z2itaOv/xf/I/ce/IgcnW00wYeFBNe2Nvj4GCHYpQNlXA6RC56KZUMFCdGe9yZrpdKiGrSGzy20EpaOyNcYHUO4OWO3dn/hdQiQpLXyIwxA+8NbXem6oDq2cFvF+I+dQB3pOQSJeFHJ7i0EQZCWhnUzX2z0kN7PpHB97yJ9JTzGiyufFylgRugPb+7HZsbg8F3p4hGckx8+h23WSUEZHYLzkBpPKNxEdQbTRipGx+sH2zj0bpB1w1fefElHp+d8fX3Pgg0gmTjpOmoekkDfX5a8+77x+zvjnn++SsYa7hx9RY7n/5hnHFRweMHzcTAPU97WVthxkgD3/q7f4t/8I3v4upgVdFSE7aznJcO9rl1fZ/ROE+CkDbjXHtLt+6w0x7R8TIUefQYs14oMYSLg5T2z3xSk/Vi60T8kFoxxyGT2ajhM4kWs6mnRToF7IcGfS3sk5QkuayIGpjQpA96I+ilO7NkENmgoolsMx12DWG7y7w42vG48b7FuwaISQo/CR7xAQM1rf+zMbTJEMZrmCp6hzUZ2ThD8oBtG5v18Rxeg69JbfC1J5eMH335Rd588pCPzlYXJfoXcFY6Zp3zwuNHSx4+OufOnT0ORlOufuarMMpptAz5LZsytdS0PDZhhZ0hXvgX//Dv8Wf/zN9gtVyFxF0NXiVbWc4Xrl3nlVvXKMbFoMHcpJNqnPSS6k6FvqSjb74l8e0b1MppKZRAuiT/7pyFO25G/2fp8GQo4pauN5NwQksPk9EbY0tXo/q4ECR20nEE7lM0UgZxaJKSsjdwQ6TXI6aIR8fNEx3+UNoXPKmqgnSUEKmo7R3ZeqOZ7iGYYQ3vBZVNr9P2Ko5TUJFO8xbeiyGzefh6Y8C2PbwJQZqZx1uLtzXeKdf2r/Dq9VvcO38nCZvXgT1tSg9vH0fVKGXpqUuHbzwHVw8ZP/NKkKS5ZCt3TXEyYI/fuLAzjIPX/8kv8mf+1F/nyclxUJADhRh2RiNeOjjgs8/dJLf2ouRpgFZdDAlSeq5yemd36zcRJQzG2cnp3M8sNkqNNF+m/dp4rfelSDr8aMXZ8YQOBt19lJAmp6b3im0ndG2dLbHjNUn8UFL89wYsfenBAK0IhPROebJxaGmHQW/WbxuyeB3q0oandKySVRIi/LAB0eCbHll/vadIx0eRSKOV4GwgWmHGI0wRiFqmnZDFIlJ8iFQwluC/LJaXDg/5R++8QxIo9dQAvZTLsqocp/MGizC7+RJSjIO1cEJk7//f+1kgMLFTaJRv/MLP8d//t3+bh0dHqAslRmEMVydTXjm8ykvXr3afQxd9zUYotmwsnu7gSijAnf/zwG40nOwDvV9/yPV9V0JGat2rolZzqBuUSwEIlWFgUFdDi6YPNGm6RGI4ZqCQdpMfSxcYOSyhh/ZesknlkvQsbqmmqbKXwdg82bZBopVYKfcf5lA97juqX4CdjDcB4YgPqj31PdqVFt1pYnqEp4WnJA5BGuexVY0dT4LAdjBoklbXGglOgjrh9pVD7uzs8ubRyQXx50bsY1dD5ib6bhi4Mttj9tzno/lPEnDSTU19911zUwRLsvmCv/1Xf5b//X/9OvNVMOK0CNtF0S3mO1cP+qFLSmRKr/INNEok8eDDDGb87aCMhOeeGhNpetpK7w2Y3uDGDJ1nzSDth66R7gcWeoEDBBroo4N6pVvtPsLFFonCzn5RK9bowK+MJKogxexELmLb6ZnthsP20PDIxUSawfmhGzycBDnxrTM/0VnUhMXs49DF0AdFtuWMj2WKOBI1eu9iKhE3b7Qhc4pvoqtGdFsymQ2RCq6FggXNlO39HZ7Z3uWNJycDHdxw4pImTUVVeaO8d39OPt7GzHaoxXeLt+8hfHczjewUVDn58D3+8p/5GX7lm69R12Ug31vLTjHi2myLz9y4xpXt2dDjZmODDXSjXUpZbMvTEtKYAe1YEwiuKz03jOxVet/uwNHpNwAJQ89cmEvKMBIiKTsGCvLAhx7CIB3nNXrOinpUogq5nXCpdLVq632cgIR91ERS8Lcw6WDAQisE0A2zmwSvTsa6hmHcxEW1o3ZuoIqPazoEnUgMs8SYdOv2AxA/NNfrbQHaRW1CYyR07qzBWzEMPrxzNLXvmiNDmDI+v39A/sEHVJuq5gslSE8PLRvPp+/ssXv7+WDAp66Lhtb4a41ex+NsC2rPb/zyL/Hf/dm/y8cP71FXDRnCzmjEtemMw9mMFw6vsj0ZRUJXz4G4AJNJe0LGzyyS0kwyJ+jHgRtI1dAoa2DCOeBpbJQR/c29idu1EJ+mPvEMwnwSeWBY0GbI17tAClETd64JdFHvI0oQ6+1oTau6wd1I/j14o0K369v6u42J8IPqpIeGOs6BXGa0nvpL9PCgj7NlQyiWpbs0fMQzTdyMm+P7YbqTSX6mFlb0TQin95JhCB4fSvQtziL1NooIDrd3GVtLrc1QOQYXuvUWoHQeDq/usX3nU1Hq1Q6QXESfPFZyjAj16Rl/43/+Wf7Pn/kGTb3CN46ZDb50d3Z3ubO/x8393c48vRukxYcmDP0J0+ZNpbVv08EAQ5NERZ+sv5TqoEm2zqDy7JTm6evpwEZO9aI9QZ8rn0K7wwY78KEZBKJsMLWiAYxKwGV9NG7U5KS2rQGLpNFXUUNo+kUtvY+dv4zAFPnVnTVYpMz5YbvYcTSIBi9DC03psV4uhkX61vZKgwhXtd0AMnBL1WTSlfqqWQIs6FwT4EtxeGOxmjRrLt4CEixOZ5Mpkyxn3jQbhi7Dx64bYtXZbIyd7eLEg/c9jVI9IzNBPZx99BF/4b/+3/jVb/wmTV0jHvaLMfvjMYdbW7xwdZ+D3e0OTWm5z+lpajZHc7JRBsRgoY492P0VM0SiZKgqMamLalJSdm35gHGW4GWiFxh1m7QBBvTjRJoHZMPZf+qPQM+tjNovbY/+NhyyjR/zGlhrG1EDMsgpHMa3XQLJdtaoaBg3e4RMN+p0Df4dtiX72I0dHR+3Jrhnan2bCgjazj7wOZKHK6201wx8q51XXMydESXK9n3nNxFyFdsxvgmCYmNoRzl8AsIxZDjC9t4OphjjuiDOUGqM7RQqzxv//Fv8uT/11/nw7kdo4xlh2B2PuLW7zYtXrnDzyh5hCsxg0MXGYEcGJ4sOSoA0e3zAatPhdE+H4B26AfeJDptH2QQGZUgp7jaTXnxKm+1H+tkrnWKFbqQpA7XuRmHeuQCYROYcwXefLGafeEhsZBG29bq/hJJKOttXjSryXmncWqYKveO72+AbD3otMRdPn3jKtiGhmGTbtR4j9ErjvsEJ//jGY6LaxXuP8y5oEVNo04UbwKNMpgW7own31oshPnUJWSmlfT773LOosV3N7H1DYUboquYf/81f4C/+pb/H2ekJxnlmtmB3POL5gz0+d+cWs+mos0OTdGQtPSSaohg6yO1uDzSTaEGHNfdAxcAwX1KTIZ1h09Yl5dYPNabpQxj2T+lAbmNhp1GC8YDLUl7AIJMq1Ykntq+p7ZcGQV+4yk0S9WtkA6hPGFQMLQ4kmfSkghuJGjKJ3nZt6A5xYNKjHQlJiTQfWy82JoN6vr8VBoKElqcdQ4UkHbXGyOIstyH40jddMymW/iTFRK2kBvmUmCFefglbvYVMrcBLN3cYH+zHGGXBqSOXgvpswc/8hb/K//U3fpW6LLFe2RtNuL69xaevHfLsjauduaTZQFC61zZD08G2HRuSGjZmCKJJD3P5ZLj3nB5gf4MsFWQoDhmY1Mql5nADC14SJGwguO5Oax+jkUWGdMQBZdT0i1pJJjNxyGKCy4906EePV+sAm08ZVibhhfRDiothMu2zsrF50wRySjyNfdso9Jh2QjIciA/S5sQgAxaYmI0Fbtq9mUwafbBAEHxXpXgNhuTeN7F+8QnXIVjh+g36ywAViHVBO4z4t//VL/PiF38cQcgpqNUzf/KYv/yn/wq/9A+/i2sqrMKV6ZRndnf54jO3ODzY7ezRdPMm0PQUTnIBSfnLMrzCu7KjV38OGn+RDRoDXeiRbpav6RCk64G0k13J4H1ueIWnJ328XfWShdw+00xSa4wkxHJja/VXghrS+V44sU2n4A66r41kWa/xWJWu5NANIHSTrZda/UvvsdD7sLVcjtC19D4NA25DgvHIxTq+JQq0rkeppWX3oZmEcxDhQLESBktGupGsNRZrM2rXDAF/F+MkuJCq3meiR889I8ILV6e88PnPIcWIkeaUfs3J/Y/4c//ZX+Q73/kBOM9YLFdmU166esCXnr/NbDbFq5Kp6UqIrpnqgnt8MgNOI/P0Qj+jA7RKN7R2iRBYhieyJAMpRTZJgQP/Fd1EqxKTUBmkC8TbVjVJn03pEP1n3pcc3bWsA21gqo9TMRGTblebH2AJshFrrGkXZFLutPTd7Cb2zEWwRSVpZ+IRJukoluFYtuftckF7uBkrlpYjPoovJVFMpHzbQVliBXEEOND0EqMsszSuiVa9xH9fVKxvvpe20RXgS5++ye6znwJrqF3Fo/ff4k//p3+R7/3G24hTdvIR17ZnfPWFOzx745A8y/DeB1gu1WkmY0i1QTCcTuJ8QgDqzlRN/UZ0ALMOGKqSkMtSV36kV84IGwOwvuG70ARvDJ2G/137myetl5N6xCUDvmwwyUsXi2woulWTRa2dR4MmVL70jhOzQXBOLFYHI/LONHyDBCOb7GodGlBLwkFJ3HpkU/+kKfYx/Kw7Vp/0Mcodv/UCe7BVtMjg4m4jGqyx2DzDNE3kHPv4pFteSeteunHvad9Y394v+IN/5PewdeNZ1Ds+evM3+S//5F/i7TfvYjzsFmOev7rPj37qea5d2e1EuNbYgcSrGyt3fij9s9ZkgNbeaP4CU18u1slxgpuWGClqod3i7qmmSHLbR/qPT/WgbfnK0FyfTQeADQJXewt4HSIdUSTbB8r1u0eGRFtJczHaB+T7rl16CuSAqIR2wTzDme9GY7nZX3DpHZh8H7mAZcrmlahcFqvV1aqDjRPhPwavLQMQqj/NoFk3IePEpI8qeONZazHicV46hpsfKEo2TunW40/g93z5Ba5//itgLA/efI3/6j//K7z9xl2MU3aKEc8d7PFjn3+Zve1Zz4jZDLTsuUZdKaWDF+yRBh/rLIMkQoQLxNQNHp5s1Lk6ILZdwNkTU6EhpNt+zWUCvkRml3J7lOQgYYOCHNZB1oPZ/VMYVlr9ApdEUybEgJ2oJm6tYQcSbgSxCUejY80lI9BBkuoQGRnAhZrg44MuWbrd3rv2DtEM1fR1NvLbOt6JdkqX/uSWwWNrf1suSibb4/+vr2uHjauIoufOvt0Xr/FvbQvb2CQQyQohEQ0SiAYJUIpUlEgRSEikoKFGVEjUSJSIEokSiZKClsYVKfiFX6JICCyBlDiYxLs7l+LN59yZZ0pvs89v53PvuecTRuLBHRQa4noHwfCyk2g5KGZ+nqevNNlk3ebOIw2uvnYV48k2/vj5W3zw/sc4/O1vtOqwOj6D85sTPPvUOSyOx2S1JQa+UtNVI9mm5c0kJj7P4L1iD5qu9/E0pS3KUCUtYKJxouJq9zBxzI4Wu8KC3lEpKUtRXMTpZjKG6uGzhrtLhwzLZVyaMEol45RUOmiG7FhBbaSunlIKUTSVQhizFkKycNWpI65sD+5FpQM/o3B9IfaFugIqZBmP0IrT4ImhVPYMx00m43DkhguKZt+Fq8vcA85j6Aa9A5TYbC4OHa68eBFbl5/Hn3du4qMPP8X04QOs7ixAfh9hf3Mdz+yfxcJCa2y94hzVZuCcduaVyuPO+AAABLpJREFUhIta/JxOWS2yysTeRBqda9j6i65V1UK62xclVzgBlCQp770ZRsWpoRI5zSjpkSIp8rGeyCelkwzoRyVgUNO9r4Cc5teQSQORuRY9MuKCzdeYFPiNhczyOFaL34RqOxrvKgsyNZPAO75z961OnIlqTn4R9OzKErFA9mccbz4D9J9pCrmXTuOEwUDgxWGpbaFH+bU64gN7AC9c2MKr71zD/buH+OyTzzEUj0e3VrE8PoOlVnFhbxuDYUMLxdMtXAgHeiaQpnDQDHcKcXD66ldTW6jtXdKfWpOsWGsUb8f/M0CwGsYQIEQYnhR5Pd6IPWyB1OQYNnajlPTPCi14Kc99xoTVSqIMcsFnU1QDhxLEd3w7lOYF+Rb02aSQ0U1V02+mjUV+Dkb6yNejY/MatTaupr8OEFKyFAufe02K6O6KnGM27epqDCQTr5yDiu9UIQxj0lmxP1nAm+9dw6hdwVdffImT6Qy7u+vY2FnBRIdoFubJUstzGaGkzjfSJTFogMGQxSIKxjrQ9NHEZ1U7rcubR2q2YGzwCmSkjgHSNNqQwl/Fe7JsljyLgFpH03JIFZtHk7EiIhWsVEnMlcbTQtxkB5M/mJo1kR7/mgzYu5h1qGGRF3CPXZ20qIW2mRkGkKReCm5BcuJR+6KVGH6mAnfmd81kHI+TB1M0o2H4Lp/xdpEubDNySAaSZE7xZO6QCWBl5HD9+kuY7JzHN18f4Patv3Dx6T20iw0ef/IxnNw4xBHuJ09qmFCeXB/zYlPrJ5AIWazXLHeWagmiabUIK7d8qX3uuB8qZxF5MKPVgYdgpN/lqXuLKolYlY723EDkgttYOJQ6L8nG5Gq4s0L4YwHjSOZQ5BPBW6+PkqiUSOTBWkyRUovqgRefvgT9EZdQKxYf0oQxuoDGB813Q46TE9dprjQ5XrrsuUfCkenDGVzTdNBl2IhZEypZfuQGWGrb1MjE5DbnBM9dPotLL1/BnZ9u4uDgB5zdX8f67grWJqvY2N7F8ZHHvVtH1NjazkoYk7X6h1Pmy+R4Xxlk5lNeC1ZgWszSI8g1za0UG00NT6hEJ5T8Qbr8R18hXiCngXox87NI9rZjYaIS2CfRSoDWeTZU9EQI9IQ25H8+D2XCRA+U4FRNC7tvC5UtMfBApU+pd2NOn8neMtdQhvyUpvoBV6fXHAk9TqWSJXX8gfA93mM2nWOkPvetoS5wqpDGBYsEDZkzYpTf4gR7ywt46903cHz8L77/8Rc8cWkNe+e24BZHWFxZRjNqMb17nEb7uaEqORdqsrMVNSW1bNC0z2eFivB4WHUxcn3B8rx/pDjR1dxaPYWuKXEkUQO84bWISN3WRgU6MeHK7dfkLlUzvgxJuSv84Gya4sL55rlxk7p7jsMKFZ7s5ZIgfSrEOFfKxmIPj4IbopouVRrX24IwEcLL0bowmQmV+5OGrJOYchUXqKITzk5nc5vBF4zX0+k5yDVa2+TaMlpYvf72K1ja2MR3v95Auz3C2mQTg+VxJ21qh4ATHN++B3HS0VITCzFj/CgU0CV+bwEhMqsjTxMtVXlFbeq1ln4rjIq5OLVtDDKKSJwoBI4T3jnZZUjBrSmbysjbQCEhSwp4EfwHtXMv9rfIZV4AAAAASUVORK5CYII=;" vertex="1" parent="1">
          <mxGeometry x="120" y="200.34" width="88.75" height="118.33" as="geometry" />
        </mxCell>
        <mxCell id="Pc8auaTFQ1UGQjP6-LpM-53" value="CNN" style="shape=trapezoid;perimeter=trapezoidPerimeter;whiteSpace=wrap;html=1;fixedSize=1;rotation=90;size=30;" vertex="1" parent="1">
          <mxGeometry x="205" y="235" width="120" height="50" as="geometry" />
        </mxCell>
        <mxCell id="Pc8auaTFQ1UGQjP6-LpM-54" value="For each&amp;nbsp; (Rig&#39;s) key" style="text;html=1;align=center;verticalAlign=middle;whiteSpace=wrap;rounded=0;" vertex="1" parent="1">
          <mxGeometry x="300" y="160" width="60" height="30" as="geometry" />
        </mxCell>
        <mxCell id="Pc8auaTFQ1UGQjP6-LpM-55" value="&lt;div&gt;&lt;span&gt;&lt;span class=&quot;LrzXr kno-fv wHYlTd z8gr9e&quot;&gt;µ&lt;/span&gt;&lt;/span&gt;&lt;/div&gt;&lt;div&gt;&lt;span&gt;&lt;span class=&quot;LrzXr kno-fv wHYlTd z8gr9e&quot;&gt;&amp;nbsp;(value)&lt;/span&gt;&lt;/span&gt;&lt;/div&gt;&lt;div&gt;&lt;span&gt;&lt;span class=&quot;LrzXr kno-fv wHYlTd z8gr9e&quot;&gt;&lt;/span&gt;&lt;/span&gt;&lt;/div&gt;" style="text;html=1;align=center;verticalAlign=middle;whiteSpace=wrap;rounded=0;" vertex="1" parent="1">
          <mxGeometry x="300" y="224.5" width="60" height="30" as="geometry" />
        </mxCell>
        <mxCell id="Pc8auaTFQ1UGQjP6-LpM-56" value="&lt;div&gt;&lt;span class=&quot;w8qArf&quot;&gt; &lt;/span&gt;&lt;span&gt;&lt;span class=&quot;LrzXr kno-fv wHYlTd z8gr9e&quot;&gt;σ&lt;/span&gt;&lt;/span&gt;&lt;span&gt;&lt;span class=&quot;LrzXr kno-fv wHYlTd z8gr9e&quot;&gt; (uncertainty)&lt;/span&gt;&lt;/span&gt;&lt;/div&gt;&lt;div&gt;&lt;span&gt;&lt;span class=&quot;LrzXr kno-fv wHYlTd z8gr9e&quot;&gt;&lt;/span&gt;&lt;/span&gt;&lt;/div&gt;" style="text;html=1;align=center;verticalAlign=middle;whiteSpace=wrap;rounded=0;" vertex="1" parent="1">
          <mxGeometry x="300" y="265.5" width="60" height="30" as="geometry" />
        </mxCell>
      </root>
    </mxGraphModel>
  </diagram>
</mxfile>
